<svg xmlns="http://www.w3.org/2000/svg" viewBox="0 0 48 48"><path class="st0" d="M6.1 16H3c-1.7 0-3 1.3-3 3v10c0 1.7 1.3 3 3 3h12.5c.3 0 .5.2.5.5V45c0 1.7 1.3 3 3 3h10c1.7 0 3-1.3 3-3V32.5c0-.3.2-.5.5-.5H45c1.7 0 3-1.3 3-3V19c0-1.7-1.3-3-3-3H32.5c-.3 0-.5-.2-.5-.5V3c0-1.7-1.3-3-3-3H19c-1.7 0-3 1.3-3 3v12.5c0 .3-.2.5-.5.5H6.1zM3 30c-.6 0-1-.4-1-1V19c0-.6.4-1 1-1h13c1.1 0 2-.9 2-2V3c0-.6.4-1 1-1h10c.6 0 1 .4 1 1v13c0 1.1.9 2 2 2h13c.6 0 1 .4 1 1v10c0 .6-.4 1-1 1H32c-1.1 0-2 .9-2 2v13c0 .6-.4 1-1 1H19c-.6 0-1-.4-1-1V32c0-1.1-.9-2-2-2H3z"/></svg>