<svg xmlns="http://www.w3.org/2000/svg" viewBox="0 0 48 48"><path class="st0" d="M13.8 1.4C10.3-.8 5.6-.4 2.6 2.6s-3.4 7.7-1.3 11.1c.1.2.3.5.5.7.2.2.4.4.7.4.3 0 .6-.1.8-.3.3-.3.4-.9.1-1.3-.2-.3-.4-.6-.6-1C1.4 9.7 1.8 6.3 4 4c2.2-2.2 5.7-2.6 8.3-1.2.4.2.7.4 1 .6.4.3 1 .3 1.3-.1.2-.2.3-.5.3-.7 0-.3-.1-.5-.4-.7-.2-.2-.5-.4-.7-.5zM31.1 25H24c-.6 0-1-.4-1-1V12c0-.6.4-1 1-1s1 .4 1 1v11h6.1c.6 0 1 .4 1 1s-.5 1-1 1zm2.4-23.1c-.2.2-.4.4-.4.7 0 .3.1.5.3.7.4.4.9.4 1.3.1.3-.2.7-.4 1-.6 2.6-1.4 6-1 8.3 1.2 2.2 2.2 2.6 5.7 1.2 8.3-.2.3-.4.7-.6 1-.3.4-.3.9.1 1.3.2.2.5.3.8.3.3 0 .6-.2.7-.4.2-.2.3-.5.5-.7 2.2-3.5 1.8-8.1-1.3-11.1-3-3-7.7-3.4-11.1-1.3-.3.1-.6.3-.8.5z"/><path class="st0" d="M36.2 39.8C40.9 36.2 44 30.5 44 24c0-11-9-20-20-20S4 13 4 24c0 6.5 3.1 12.2 7.8 15.8l-5.6 6.5c-.4.4-.3 1 .1 1.4.2.2.5.3.7.3.3 0 .6-.1.8-.3l5.7-6.6c3.1 1.9 6.7 3 10.5 3 3.9 0 7.5-1.1 10.5-3l5.7 6.6c.2.2.5.3.8.3.2 0 .5-.1.7-.2.4-.4.5-1 .1-1.4l-5.6-6.6zM6 24c0-9.9 8.1-18 18-18s18 8.1 18 18-8.1 18-18 18S6 33.9 6 24z"/></svg>