<svg xmlns="http://www.w3.org/2000/svg" viewBox="0 0 48 48"><path class="st0" d="M38 6c-2.2 0-4 1.8-4 4s1.8 4 4 4 4-1.8 4-4-1.8-4-4-4zm0 6c-1.1 0-2-.9-2-2s.9-2 2-2 2 .9 2 2-.9 2-2 2zm-13 1c-7.7 0-14 6.3-14 14s6.3 14 14 14 14-6.3 14-14-6.3-14-14-14zm0 2.3c6.2 0 11.2 4.8 11.6 10.9l-1.8 1.2c-2.7 1.8-6.4 1.4-8.7-.9-3.4-3.4-8.4-4.1-12.5-1.8 1-5.3 5.8-9.4 11.4-9.4zm0 23.4c-6.2 0-11.3-4.9-11.6-11.1l.8-.5c3.3-2.1 7.5-1.6 10.3 1.1 1.8 1.8 4.2 2.7 6.6 2.7 1.8 0 3.6-.5 5.1-1.5l.3-.2c-1 5.3-5.8 9.5-11.5 9.5z"/><path class="st0" d="M42 0H6C3.8 0 2 1.8 2 4v40c0 2.2 1.8 4 4 4h36c2.2 0 4-1.8 4-4V4c0-2.2-1.8-4-4-4zm2 44c0 1.1-.9 2-2 2H6c-1.1 0-2-.9-2-2V4c0-1.1.9-2 2-2h36c1.1 0 2 .9 2 2v40z"/></svg>