<svg xmlns="http://www.w3.org/2000/svg" viewBox="0 0 48 48"><path class="st0" d="M47.4 38.9L36.8 28.3c-.4-.4-.9-.6-1.4-.6-.5 0-1 .2-1.4.6l-7.9-7.9 5.6-5.6c.8-.8.8-2.1 0-2.8l-4.1-4.1c-.1-.1-.1-.2 0-.3l4.3-4.3c.5-.5.7-1.4.4-2.1-.3-.7-1-1.2-1.8-1.2-4 0-8.3 1.5-10.8 4.1l-12 12.1c-.8.8-.8 2.1 0 2.8l.7.7c.4.4.4 1 0 1.4-.2.2-.5.3-.7.3-.3 0-.5-.1-.7-.3l-.7-.7c-.8-.8-2.1-.8-2.8 0L.7 23.2c-.8.8-.8 2.1 0 2.8l8.5 8.5c.4.4.9.6 1.4.6s1-.2 1.4-.6l2.8-2.8c.8-.8.8-2.1 0-2.8l-.8-.7c-.4-.4-.4-1 0-1.4.2-.2.5-.3.7-.3.3 0 .5.1.7.3l.7.7c.8.8 2.1.8 2.8 0l1.4-1.4 7.9 7.9c-.8.8-.8 2 0 2.8l10.6 10.6c.4.4.9.6 1.4.6.5 0 1-.2 1.4-.6l5.7-5.7c.9-.7.9-2 .1-2.8zm-29.7-13c-.1.1-.3.1-.4 0-.8-.8-1.4-1.4-2.7-1.4-.8 0-1.6.3-2.1.9-1.2 1.2-1.3 2.9.5 4.8 0 0 .1.1.1.2s0 .1-.1.2L10.7 33c-.1.1-.3.1-.4 0l-8.1-8.1c-.1-.1-.1-.3 0-.4L4.7 22s.1-.1.2-.1.1 0 .2.1c.8.8 1.4 1.4 2.7 1.4.8 0 1.6-.3 2.1-.9 1.2-1.2 1.3-2.9-.5-4.8 0 0-.1-.1-.1-.2s0-.1.1-.2L21.1 5.5C23 3.6 26.4 2.2 29.6 2c.1 0 .2.1.2.1 0 .1 0 .2-.1.3L26 6.3c-.8.8-.8 2.1 0 2.8l4.1 4.1c.1.1.1.3 0 .4-1.5 1.4-12.4 12.3-12.4 12.3zm4.1-1.3l2.8-2.8 7.9 7.9-2.8 2.8-7.9-7.9zm24 15.9l-5.3 5.3c-.1.1-.3.1-.4 0L29.9 35.6c-.1-.1-.1-.3 0-.4l5.3-5.3c.1-.1.3-.1.4 0l10.3 10.3c0 .1 0 .2-.1.3z"/></svg>