<svg xmlns="http://www.w3.org/2000/svg" viewBox="0 0 48 48"><path class="st0" d="M44 20h-2V4c0-1.3-.7-2.6-1.8-3.3C39.6.2 38.8 0 38 0c-.5 0-1 .1-1.5.3l-4.9 3.5C30.6 4.5 30 5.7 30 7h-.4c-1.1 0-2.2.6-2.7 1.7l-.9 1.8c-.5 1-.4 2.1.1 3 .6.9 1.5 1.5 2.6 1.5h4.6c1 0 2-.5 2.6-1.4.6-.9.6-2 .1-2.9l-1-2c-.5-1-1.5-1.7-2.7-1.7H32c0-.6.3-1.2.8-1.6l4.4-3.3c.3-.1.5-.1.8-.1.4 0 .8.1 1.1.3.6.4.9 1 .9 1.7v16H4c-2.2 0-4 1.8-4 4s1.8 4 4 4h40c2.2 0 4-1.8 4-4s-1.8-4-4-4zM33.2 9.6l1 2c.2.3.1.7 0 1-.2.2-.5.4-.9.4h-4.6c-.4 0-.7-.2-.9-.5-.2-.3-.2-.7 0-1.1l.9-1.9c.2-.3.5-.5.9-.5h2.8c.3 0 .7.2.8.6zM44 26H4c-1.1 0-2-.9-2-2s.9-2 2-2h40c1.1 0 2 .9 2 2s-.9 2-2 2zm1.2 4h-.4c-.5 0-.9.4-1 .9C43 37.1 37.5 42 31 42H17c-6.5 0-12-4.9-12.9-11.1-.1-.5-.5-.9-1-.9-.3 0-.6.1-.8.3-.2.2-.3.5-.2.8.9 6.2 5.5 11.1 11.5 12.5 0 .1-.1.2-.2.4-.4 1-1.6 1.8-3.5 2h-1c-.3 0-.5.1-.7.3-.1.2-.2.4-.2.7 0 .6.4 1 1 1h1c2.6 0 4.9-1.7 5.7-4.1.4 0 .9.1 1.3.1h14c.4 0 .9 0 1.3-.1.8 2.4 3 4.1 5.7 4.1h1c.6 0 1-.4 1-1 0-.3-.1-.5-.3-.7-.2-.2-.4-.3-.7-.3h-1c-1.8-.2-3.1-1-3.5-2-.1-.2-.1-.3-.2-.4 6.1-1.4 10.8-6.5 11.5-12.8 0-.2 0-.4-.2-.5 0-.2-.2-.3-.4-.3z"/></svg>