<svg xmlns="http://www.w3.org/2000/svg" viewBox="0 0 48 48"><path class="st0" d="M44 20V3c0-.6-.4-1-1-1s-1 .4-1 1v15.8c-1.2-.5-2.6-.8-4-.8v-2c0-2.2-1.8-4-4-4h-5c-2.2 0-4 1.8-4 4v2h-2v-2c0-2.2-1.8-4-4-4h-5c-2.2 0-4 1.8-4 4v2c-1.4 0-2.8.3-4 .8V3c0-.6-.4-1-1-1s-1 .4-1 1v17c-2.4 1.8-4 4.7-4 8v17c0 .6.4 1 1 1s1-.4 1-1v-5h44v5c0 .6.4 1 1 1s1-.4 1-1V28c0-3.3-1.6-6.2-4-8zm-17-4c0-1.1.9-2 2-2h5c1.1 0 2 .9 2 2v2h-9v-2zm-15 0c0-1.1.9-2 2-2h5c1.1 0 2 .9 2 2v2h-9v-2zm34 22H2v-6h44v6zM2 30v-2c0-4.4 3.6-8 8-8h28c4.4 0 8 3.6 8 8v2H2z"/><path class="st0" d="M9 6h30c.5 0 1-.5 1-1s-.5-1-1-1H9c-.5 0-1 .5-1 1s.5 1 1 1z"/></svg>