<svg xmlns="http://www.w3.org/2000/svg" viewBox="0 0 48 48"><path class="st0" d="M19.3 45.5c-.3.3-.8.5-1.3.5-1.1 0-2-.9-2-2v-9.6l3 .8V44c0 .5.1 1 .3 1.5z"/><path class="st2" d="M19.3 45.5c-.3.3-.8.5-1.3.5-1.1 0-2-.9-2-2v-9.6l3 .8V44c0 .5.1 1 .3 1.5z"/><path class="st0" d="M32 16c-.6 0-1-.4-1-1s.4-1 1-1h6c.6 0 1 .4 1 1s-.4 1-1 1h-6zm0 4c-.6 0-1-.4-1-1s.4-1 1-1h6c.6 0 1 .4 1 1s-.4 1-1 1h-6zm3 4c-.6 0-1-.4-1-1s.4-1 1-1h3c.6 0 1 .4 1 1s-.4 1-1 1h-3z"/><path class="st0" d="M43 9c0-1.1-.9-2-2-2H23c-1.1 0-2 .9-2 2v3c0 .6.4 1 1 1s1-.4 1-1V9.5c0-.3.2-.5.5-.5h17c.3 0 .5.2.5.5v19c0 .3-.2.5-.5.5H30c-.6 0-1 .4-1 1s.4 1 1 1h11c1.1 0 2-.9 2-2V9zM11.4 0c-3.3 0-6 2.7-6 6s2.7 6 6 6 6-2.7 6-6-2.7-6-6-6zm0 10c-2.2 0-4-1.8-4-4s1.8-4 4-4 4 1.8 4 4-1.8 4-4 4z"/><path class="st0" d="M28.9 15.6c-1.2-1.9-3.7-2.4-5.5-1.1L19.5 17c-.1 0-.2.1-.2 0l-6.7-2.8c-1-.5-2.6-.4-3.7.4C7.8 15.3 7 16.5 7 18v11c0 1.8 1.2 3.4 3 3.9l4 1V44c0 2.2 1.8 4 4 4 .9 0 1.8-.3 2.5-.9.7.5 1.6.9 2.5.9 2.2 0 4-1.8 4-4V32c0-1.8-1.2-3.4-3-3.9l-3-.7-5.9-1.5c-.1 0-.1-.1-.1-.1v-1.6s0-.1.1-.1h.1l3.1 1.3c.9.3 1.8.4 2.7.1.4-.1.7-.3 1.1-.5l5.8-3.8c1.7-1.3 2.2-3.7 1-5.6zM18 46c-1.1 0-2-.9-2-2v-9.6l3 .8V44c0 .5.1 1 .3 1.5-.3.3-.8.5-1.3.5zm8.7-26.5c-.5.3-5.8 3.9-6.3 4.1-.4.1-.9.1-1.3-.1-4.4-1.8-3.7-1.5-5.3-2.2-.2-.1-.3 0-.5 0-.1.1-.2.2-.2.4V27c0 .2.2.4.4.5 9.9 2.5 6 1.5 10.1 2.5.9.2 1.5 1 1.5 1.9v12c0 1.1-.9 2-2 2-.5 0-1-.2-1.3-.5-.5-.2-.8-.8-.8-1.4V33.9c0-.2-.2-.4-.4-.5-10.5-2.6-3-.8-10.1-2.5-.9-.2-1.5-1-1.5-1.9V18c0-1.6 1.7-2.4 2.8-1.9 0 0 5 2.1 7.6 3.1.2.1.3 0 .5 0l4.7-3.1c.9-.6 2.2-.4 2.8.6.4.9.2 2.2-.7 2.8z"/></svg>