<svg xmlns="http://www.w3.org/2000/svg" viewBox="0 0 48 48"><path class="st0" d="M47 44h-5V28c1.1 0 2-.9 2-2v-1c0-.6-.4-1-1-1s-1 .4-1 1v1H6v-1c0-.6-.4-1-1-1s-1 .4-1 1v1c0 1.1.9 2 2 2v16H1c-.5 0-1 .5-1 1s.5 1 1 1h46c.5 0 1-.5 1-1s-.5-1-1-1zm-35 0H8V28h4v16zm8 0h-6V28h6v16zm6 0h-4V28h4v16zm8 0h-6V28h6v16zm6 0h-4V28h4v16zM3 22h42c.5 0 1-.5 1-1s-.5-1-1-1h-3v-1c0-.6-.4-1-1-1s-1 .4-1 1v1H8v-1c0-.6-.4-1-1-1s-1 .4-1 1v1H3c-.5 0-1 .5-1 1s.5 1 1 1zm2-6h38c.5 0 1-.5 1-1s-.5-1-1-1H32v-2c0-1.1-.9-2-2-2H18c-1.1 0-2 .9-2 2v2H5c-.5 0-1 .5-1 1s.5 1 1 1zm13-3.8c0-.1.1-.2.2-.2h11.5c.1 0 .2.1.2.2V14H18v-1.8zM21.5 8c.4 0 .8-.3 1-.7l.9-3.1c0-.1.1-.2.2-.2h.6c.1 0 .2.1.2.2l.9 3.1c.3.4.7.7 1.2.7.3 0 .6-.1.8-.4.2-.3.2-.6.2-.9l-.8-2.8C26.2 2.8 25.2 2 24 2s-2.2.8-2.6 1.9l-.8 2.8c-.1.3 0 .6.2.9.1.3.4.4.7.4z"/></svg>