<svg xmlns="http://www.w3.org/2000/svg" viewBox="0 0 48 48"><path class="st0" d="M28 29.1c0-.3-.2-.6-.5-.8-.3-.2-.6-.2-.9-.1-.4.2-.7.5-.6 1l1 16.5c0 .1 0 .1-.1.2 0 .1-.1.1-.2.1h-5.5c-.1 0-.1 0-.2-.1 0 0-.1-.1-.1-.2l1-16.7c0-.3-.2-.7-.5-.8s0 0-.1 0c-.3-.1-.6-.1-.9.1-.3.2-.5.5-.5.8l-1 16.8c0 .5.2 1.1.5 1.5.4.4.9.6 1.5.6h6c.6 0 1.1-.2 1.5-.6.4-.4.6-.9.5-1.5L28 29.1zM24.5.3c-.1-.2-.3-.3-.5-.3s-.4.1-.5.3L21 7.7c-.1.3 0 .7.2 1 .2.3.6.4.9.3.3-.1.6-.3.7-.6l.9-2.8c0-.1.1-.1.1-.1.1 0 .1 0 .1.1l.9 2.8c.1.3.4.6.8.7.3.1.7-.1.9-.3.2-.3.3-.6.2-1L24.5.3zm3.6 11.8c-.6-.4-1.4-.7-2.1-.9-.6-.2-1.3-.2-2-.2s-1.3.1-2 .2c-.7.2-1.4.5-2.1.9-2.4 1.4-3.9 4-3.9 6.9 0 2.6 1.3 4.9 3.2 6.4.6.4 1.2.8 1.9 1.1.9.3 1.9.5 2.9.5s2-.2 2.9-.5c.7-.3 1.4-.6 1.9-1.1 1.9-1.5 3.2-3.8 3.2-6.4 0-2.9-1.6-5.5-3.9-6.9zm.6 10.7c-.5.6-1.2 1.2-1.9 1.5-.9.5-1.8.7-2.8.7s-1.9-.2-2.7-.7c-.7-.4-1.4-.9-1.9-1.5-.8-1-1.3-2.4-1.3-3.8 0-1.7.7-3.2 1.8-4.3.6-.6 1.3-1 2.1-1.3.7-.2 1.4-.4 2.1-.4s1.5.1 2.1.4c.8.3 1.5.8 2.1 1.3 1.1 1.1 1.8 2.6 1.8 4.3-.1 1.4-.6 2.8-1.4 3.8z"/></svg>