<svg xmlns="http://www.w3.org/2000/svg" viewBox="0 0 48 48"><path class="st0" d="M39.9 2c.4 0 .8.1 1.2.4l4.1 2.9c.9.6 1.1 1.9.5 2.8l-25.3 37c-.3.4-.8.8-1.3.8h-.3c-.4 0-.8-.1-1.2-.4L2.8 34.8c-.9-.7-1.1-1.9-.4-2.8l3-4.1c.4-.5 1-.8 1.6-.8.4 0 .8.1 1.1.4l8.5 6c.1.1.2.1.3.1h.1c.1 0 .2-.1.3-.2L38.3 3c.3-.4.8-.7 1.3-.8.1-.2.2-.2.3-.2m0-2c-.2 0-.5 0-.7.1-1 .2-2 .8-2.6 1.7L16.5 30.9l-7.3-5.1c-.7-.5-1.5-.7-2.3-.7-1.3 0-2.5.6-3.2 1.7l-3 4.1c-1.3 1.8-.9 4.3.9 5.6l14.8 10.8c.7.5 1.5.8 2.4.8.2 0 .5 0 .7-.1 1.1-.2 2-.8 2.6-1.7L47.3 9.2c1.2-1.8.8-4.3-1-5.5L42.2.8c-.6-.5-1.4-.8-2.3-.8z"/></svg>