<?xml version="1.0" encoding="UTF-8"?>
<svg width="36px" height="22px" viewBox="0 0 36 22" version="1.1" xmlns="http://www.w3.org/2000/svg" xmlns:xlink="http://www.w3.org/1999/xlink">
    <!-- Generator: sketchtool 41 (35326) - http://www.bohemiancoding.com/sketch -->
    <title>5A2A182F-2F10-4724-B06A-F33A8376A163</title>
    <desc>Created with sketchtool.</desc>
    <defs></defs>
    <g id="Payment-Icons" stroke="none" stroke-width="1" fill="none" fill-rule="evenodd">
        <g transform="translate(-235.000000, -54.000000)" id="Payment-Icons-Colored">
            <g transform="translate(27.000000, 55.000000)">
                <g id="Rechnung-Colored" transform="translate(209.000000, 0.000000)">
                    <rect id="Rectangle-3" stroke="#979797" fill="#FFFFFF" x="0" y="0" width="34" height="20" rx="2"></rect>
                    <path d="M3.68459903,7.13312047 C3.60200354,7.06659744 3.49545125,7.01867004 3.38326931,7.00438942 C3.27100519,6.9901088 3.17172624,7.01137562 3.10228028,7.05796742 C3.03283432,7.10455923 2.99326245,7.17642465 3.0009467,7.26339259 C3.00867205,7.3502578 3.06554377,7.43676342 3.15130337,7.50559806 C3.23706297,7.57448406 3.35134061,7.62575046 3.47194646,7.64198311 C3.59259341,7.65821575 3.69372152,7.63576744 3.76029102,7.58686402 C3.82686052,7.53801198 3.85911796,7.46280757 3.84268105,7.37383623 C3.82636741,7.28486489 3.76719452,7.1996435 3.68459903,7.13312047 Z M4.82519756,7.6120349 C4.80124075,7.5204951 4.74021871,7.42895531 4.66017094,7.35405911 C4.58012317,7.27916291 4.48047439,7.2206021 4.37860661,7.19507164 C4.17482998,7.14395935 4.03289723,7.24099565 4.06963373,7.41852737 C4.08804307,7.50734461 4.1502157,7.6008878 4.23503017,7.67948257 C4.31992683,7.75802598 4.42693114,7.82136412 4.53360671,7.84930893 C4.74708112,7.90509581 4.87311116,7.79521723 4.82519756,7.6120349 Z M5.66927416,7.91341761 C5.64186561,7.82038811 5.58339129,7.72525247 5.50987719,7.64537347 C5.43648637,7.56549447 5.34768595,7.50071799 5.259543,7.46845817 C5.08309273,7.40398991 4.97333524,7.49234482 5.02330346,7.67460251 C5.04832866,7.76573135 5.1098849,7.86425735 5.1881657,7.94875957 C5.26640541,8.0332618 5.3607122,8.10317519 5.45066321,8.13671923 C5.63044195,8.20385869 5.72396799,8.09942524 5.66927416,7.91341761 Z M5.9896296,8.26298456 C6.05854136,8.34907923 6.13887678,8.42058506 6.21288398,8.45520786 C6.36089839,8.52450482 6.42948141,8.42176655 6.37384246,8.2359644 C6.34610517,8.143089 6.29252083,8.04702872 6.22743065,7.96566002 C6.16234047,7.88429131 6.0854979,7.81735733 6.01120305,7.78263179 C5.86257226,7.71318072 5.78042879,7.79881307 5.83582119,7.98389606 C5.86351739,8.07641187 5.92075894,8.17683853 5.9896296,8.26298456 Z M4.87886408,8.24593001 C4.79413179,8.15480117 4.68831916,8.08529873 4.57942461,8.05740529 C4.47053005,8.02956322 4.37799023,8.04862117 4.31725583,8.10312382 C4.25660362,8.15767784 4.22808558,8.24788204 4.24772769,8.36269205 C4.26745199,8.47750206 4.33398039,8.59601066 4.42471216,8.69340653 C4.51532064,8.79080241 4.62931064,8.86600682 4.74247879,8.89405437 C4.85564694,8.92210192 4.94563904,8.89795842 5.00094925,8.83780517 C5.05613619,8.77760054 5.07705216,8.68169437 5.05239679,8.56606245 C5.02778252,8.4504819 4.96359637,8.33711022 4.87886408,8.24593001 Z M5.92252591,8.86842117 C5.89585701,8.75443306 5.83697177,8.64059906 5.76222491,8.54720998 C5.68743695,8.45376952 5.59645863,8.38015756 5.50523376,8.34681899 C5.32278402,8.28009048 5.2083831,8.40173259 5.25941972,8.63047934 C5.28493803,8.74482704 5.34797359,8.86508218 5.42798027,8.96509788 C5.50790476,9.06506222 5.60414289,9.14386247 5.6956965,9.1757627 C5.87859825,9.23956316 5.97590478,9.09650013 5.92252591,8.86842117 Z M6.62520396,9.17565996 C6.5994391,9.0654218 6.54758064,8.95446447 6.48368213,8.86261646 C6.41978363,8.77076845 6.34359854,8.69772154 6.26918041,8.66345833 C6.12046744,8.59498327 6.03692682,8.71189942 6.09059335,8.93674212 C6.11738552,9.04913778 6.17343539,9.16702995 6.24099111,9.26483678 C6.308629,9.36264361 6.38744401,9.43969731 6.46034172,9.47092974 C6.60613714,9.53339461 6.67681587,9.39618765 6.62520396,9.17565996 Z M6.00323115,9.65138951 C5.93029235,9.54551772 5.83964277,9.4653305 5.74714404,9.43450902 C5.6546864,9.40368754 5.5779671,9.42983443 5.52980695,9.49887455 C5.48168788,9.56791466 5.46237451,9.68041307 5.4848109,9.82193503 C5.50724728,9.96345699 5.56740639,10.1058009 5.64527627,10.2191725 C5.72318724,10.3324929 5.81798713,10.4156595 5.90982839,10.4403167 C6.00162855,10.4649738 6.07382769,10.4293237 6.1174677,10.3534515 C6.16106661,10.2775279 6.17627076,10.1618446 6.15399874,10.0257164 C6.13168563,9.88969092 6.07612886,9.75731266 6.00323115,9.65138951 Z M6.66514566,10.6629505 C6.80724278,10.7088231 6.88478392,10.5314969 6.84393819,10.2768087 C6.82343314,10.1493619 6.77667012,10.0249458 6.71675757,9.92482741 C6.65680393,9.82476033 6.58361857,9.74852854 6.51039212,9.71858033 C6.36389813,9.65863255 6.27596064,9.81623306 6.32062795,10.082993 C6.34302325,10.2163472 6.39356676,10.3501125 6.45647904,10.4561897 C6.51930914,10.5623184 6.59413819,10.6399885 6.66514566,10.6629505 Z M6.99651384,11.5209178 C6.985008,11.3807314 6.9466689,11.247634 6.89345439,11.1443306 C6.84023988,11.0410273 6.77206778,10.9671585 6.70089595,10.9466622 C6.62968302,10.9261659 6.56956501,10.9664907 6.53048625,11.0496573 C6.49140748,11.1328753 6.47340906,11.2592434 6.48639423,11.4100632 C6.49937939,11.5608829 6.54043058,11.7036891 6.59553533,11.8108965 C6.65064008,11.9181039 6.71971621,11.9891988 6.78928545,11.9988048 C6.85881359,12.0084622 6.9163017,11.9589937 6.9535724,11.8721799 C6.9908431,11.7853661 7.0078964,11.6612582 6.99651384,11.5209178 Z" id="Shape" fill="#979797"></path>
                    <path d="M2.21432342,8.60281722 C2.28963576,8.66884865 2.39690304,8.71037674 2.51712124,8.71037674 C2.63740982,8.71037674 2.74464191,8.66884865 2.81995425,8.60281722 C2.89526658,8.5367418 2.93883512,8.44647099 2.93404892,8.34845765 C2.92929791,8.25044432 2.87992258,8.16320893 2.80461024,8.10069683 C2.72922752,8.03814074 2.62776702,8 2.51715643,8 C2.40654584,8 2.30512053,8.03814074 2.22973781,8.10069683 C2.15439029,8.16320893 2.10505015,8.25048831 2.10029914,8.34845765 C2.09547774,8.44647099 2.13897589,8.5367418 2.21432342,8.60281722 Z M2.18265001,9.73335797 C2.26605666,9.82107727 2.38458561,9.87628676 2.51712124,9.87628676 C2.64972726,9.87628676 2.76822101,9.82112126 2.85159247,9.73335797 C2.93503431,9.64563867 2.98349463,9.52628939 2.97877881,9.39726196 C2.9740278,9.26823453 2.91961992,9.15376832 2.83614288,9.07198789 C2.75273623,8.99025146 2.64019004,8.94045294 2.51712124,8.94045294 C2.39408763,8.94045294 2.28154144,8.99025146 2.1980644,9.07198789 C2.11458737,9.15372433 2.06021468,9.26823453 2.05542847,9.39726196 C2.05074784,9.52633339 2.09920816,9.64563867 2.18265001,9.73335797 Z M3.38835122,9.76252442 C3.47608657,9.85908603 3.59282069,9.92612926 3.71553757,9.9390628 C3.83832483,9.95199634 3.94179131,9.90897253 4.01017068,9.83079942 C4.07847968,9.75258231 4.11258138,9.64009573 4.09818758,9.51287195 C4.08379377,9.38560418 4.02537392,9.26709075 3.94224881,9.17712787 C3.8591237,9.087165 3.75069506,9.02500484 3.63501672,9.0104876 C3.51940876,8.99592638 3.41650537,9.03226346 3.34362133,9.10392581 C3.27070209,9.17563216 3.22825972,9.28367559 3.23547422,9.41243907 C3.24282949,9.54111457 3.30068626,9.66600679 3.38835122,9.76252442 Z M2.51712124,11.3500941 C2.65884216,11.3500941 2.78620447,11.2815552 2.87668485,11.172192 C2.96716523,11.0628288 3.02090445,10.9136092 3.01756115,10.7515001 C3.01421784,10.589435 2.95618511,10.4450985 2.86570473,10.3418061 C2.77518916,10.2385138 2.65222594,10.1753418 2.51715643,10.1753418 C2.3821925,10.1753418 2.2591237,10.2385138 2.16860813,10.3418061 C2.07812775,10.4450985 2.02005983,10.589435 2.01671652,10.7515001 C2.01340841,10.9135653 2.06714763,11.0628288 2.15762801,11.172192 C2.2480732,11.2815552 2.37540032,11.3500941 2.51712124,11.3500941 Z M3.79014605,11.3815482 C3.91919761,11.3879269 4.03016013,11.3275264 4.1057892,11.2267856 C4.18141827,11.1260008 4.22255851,10.9857555 4.21302129,10.8300252 C4.20348408,10.6743828 4.14608481,10.531278 4.06053141,10.4242904 C3.97487243,10.3173028 3.86035545,10.2455964 3.73584374,10.2336747 C3.61136724,10.221753 3.49913778,10.2731352 3.41851135,10.3676292 C3.33788492,10.4621672 3.28960056,10.6009608 3.29466831,10.7621461 C3.29966567,10.9234194 3.35857822,11.0751465 3.44919937,11.1883809 C3.53982052,11.3016154 3.66120007,11.3753013 3.79014605,11.3815482 Z M4.87010382,11.4554981 C4.97311279,11.4645603 5.05958121,11.4115064 5.11687489,11.3203998 C5.17427415,11.2292492 5.20330811,11.1006176 5.19165933,10.9560612 C5.17997537,10.8115487 5.13031849,10.6760105 5.05834946,10.5721023 C4.98638043,10.4681941 4.89153616,10.395212 4.78979412,10.3772194 C4.68801689,10.3592268 4.59795882,10.4018107 4.53542143,10.4872424 C4.47284885,10.5726742 4.43843041,10.7020535 4.44877705,10.8554963 C4.45908851,11.0089391 4.51275735,11.1548593 4.59000528,11.2644864 C4.66718283,11.3740696 4.76713004,11.4463918 4.87010382,11.4554981 Z M2.51712124,11.7071302 C2.37430934,11.7071302 2.24501144,11.7794964 2.15139891,11.8964701 C2.05789196,12.0134438 2,12.1750691 2,12.3534991 C2,12.5321051 2.05789196,12.6936863 2.15139891,12.8106601 C2.24501144,12.9276778 2.37430934,13 2.51712124,13 C2.65993313,13 2.78919585,12.9276778 2.88280838,12.8106601 C2.9764209,12.6937303 3.03424248,12.5321051 3.03424248,12.3534991 C3.03424248,12.1750691 2.9764209,12.0134438 2.88280838,11.8964701 C2.78919585,11.7794524 2.65993313,11.7071302 2.51712124,11.7071302 Z M3.79876826,11.7280262 C3.66911842,11.723847 3.54978005,11.7909782 3.46222066,11.9041247 C3.37469646,12.0171831 3.31986627,12.1763448 3.31986627,12.3534551 C3.31986627,12.5306534 3.37469646,12.6898591 3.46222066,12.8029615 C3.54978005,12.916108 3.66911842,12.9832392 3.79876826,12.97906 C3.92841809,12.9749248 4.04385008,12.9023386 4.12655288,12.7892361 C4.20918529,12.6760897 4.25975717,12.522295 4.25975717,12.3534991 C4.25975717,12.1847912 4.20918529,12.0309965 4.12655288,11.917894 C4.04385008,11.8047476 3.9283829,11.7321614 3.79876826,11.7280262 Z M4.88217491,11.776417 C4.77895478,11.7705661 4.68347704,11.8311426 4.61330283,11.9353587 C4.54312863,12.0396628 4.49896182,12.1877826 4.49896182,12.3534111 C4.49896182,12.5192155 4.54312863,12.6673353 4.61330283,12.7716395 C4.68347704,12.8758556 4.77895478,12.9364761 4.88217491,12.9305812 C4.98539504,12.9246423 5.07703678,12.8565433 5.14245997,12.7522832 C5.20784797,12.647979 5.24765089,12.5073378 5.24765089,12.3534111 C5.24765089,12.1997044 5.20784797,12.0590192 5.14245997,11.954715 C5.07703678,11.8504109 4.98539504,11.7823558 4.88217491,11.776417 Z M5.91947915,11.9942195 C5.86943516,11.9000334 5.79964807,11.8383572 5.72123878,11.8324183 C5.64286468,11.8264354 5.57061411,11.8808971 5.5177899,11.9750392 C5.4648953,12.0691812 5.4317086,12.2032677 5.4317086,12.3534991 C5.4317086,12.5038185 5.4648953,12.6379489 5.51775471,12.732091 C5.57061411,12.8262331 5.64286468,12.8806507 5.72123878,12.8746679 C5.79964807,12.868685 5.86939996,12.8070087 5.91947915,12.7128227 C5.96948795,12.6185486 6,12.4918528 6,12.3534551 C6,12.2152334 5.96948795,12.0884496 5.91947915,11.9942195 Z" id="Shape" fill="#979797"></path>
                    <path d="M11.6233899,10.4367886 L11.6233899,10.4016712 C11.847177,10.3384599 12.4377914,10.1839432 12.4377914,9.25 C12.4377914,8 11.2566422,8 10.8712024,8 L9,8 L9,13 L10.8276805,13 C11.2876894,13 12.5621397,13 12.5621397,11.6586497 C12.5621397,10.7247065 11.9901775,10.4929315 11.6233899,10.4367886 Z M10.1687144,8.98315264 L10.8028109,8.98315264 C11.1385114,8.98315264 11.2877293,9.08148141 11.2877293,9.46768297 C11.2877293,9.80476516 11.1074642,9.95225832 10.8028109,9.95225832 L10.1687144,9.95225832 L10.1687144,8.98315264 Z M10.8774198,12.0168023 L10.1687542,12.0168023 L10.1687542,10.9353659 L10.8277204,10.9353659 C11.1882905,10.9353659 11.3934253,11.0476967 11.3934253,11.4760841 C11.3933855,11.8061428 11.1882507,12.0168023 10.8774198,12.0168023 Z M16.0550908,8 L14.8366769,8 L14.8366769,13 L17.7025062,13 L17.7025062,11.9466125 L16.0550908,11.9466125 L16.0550908,8 Z M13.0278878,13 L14.2463415,13 L14.2463415,8 L13.0278878,8 L13.0278878,13 Z M19.1443085,11.9465675 L19.1443085,8 L17.9258947,8 L17.9258947,13 L19.821887,13 L20,11.9466125 L19.1443085,11.9466125 L19.1443085,11.9465675 Z" id="Shape" fill="#979797"></path>
                    <path d="M24.0515948,9.35535225 C24.0515948,8.421364 23.4974341,8 22.6045713,8 L20.8373993,8 L20,13 L21.1945366,13 L21.4778146,11.3075656 L22.3090557,11.3075656 C23.2572635,11.3075205 24.0515948,10.6263777 24.0515948,9.35535225 Z M22.2659482,10.2892955 L21.6440471,10.2892955 L21.8595452,9.01827006 L22.3768356,9.01827006 C22.7215775,9.01827006 22.8940471,9.15167123 22.8940471,9.58708219 C22.8940076,10.0083561 22.6292436,10.2892955 22.2659482,10.2892955 Z M25.3380704,8 L22.8812569,13 L24.1558503,13 L24.6361519,11.9746614 L26.224775,11.9746614 L26.3355835,13 L27.5424364,13 L26.8651508,8 L25.3380704,8 Z M25.0918206,10.9985323 L25.6766935,9.64322504 C25.7629875,9.44661252 25.8306885,9.23595303 25.9045476,9.01827006 L25.9353387,9.01827006 C25.9353387,9.18683367 25.9476551,9.40451664 25.9722485,9.65727201 L26.1200853,10.9985323 L25.0918206,10.9985323 L25.0918206,10.9985323 Z M30.6084004,8 L29.7032607,9.48875342 C29.5800963,9.69238943 29.5000395,9.88900194 29.4384573,10.0435186 L29.4076662,10.0435186 C29.3769146,9.86095303 29.3645587,9.64322504 29.2968183,9.40451664 L28.896613,8 L27.6035449,8 L28.6749566,11.1600274 L28.3670456,12.999955 L29.5616217,12.999955 L29.8694931,11.1600274 L32,8 L30.6084004,8 L30.6084004,8 Z" id="Shape" fill="#979797"></path>
                </g>
            </g>
        </g>
    </g>
</svg>