<svg xmlns="http://www.w3.org/2000/svg" viewBox="0 0 48 48"><path class="st0" d="M47 0H1C.5 0 0 .5 0 1s.5 1 1 1h46c.5 0 1-.5 1-1s-.5-1-1-1zm-2.1 6c-.5 0-.9.4-1 .8l-5.5 38.5c-.1.4-.4.7-.8.7h-5.3c-.1 0-.2-.1-.2-.2V43c0-.6-.4-1-1-1H17c-.6 0-1 .4-1 1v2.8c0 .1-.1.2-.2.2H10c-.1 0-.2-.1-.2-.2L4 6.8c-.1-.4-.5-.8-1-.8-.3 0-.6.1-.8.3-.1.3-.2.6-.2.8l5.8 39.6c.1.7.8 1.3 1.5 1.3H17c.6 0 1-.4 1-1v-2.8c0-.1.1-.2.2-.2h11.5c.1 0 .2.1.2.2V47c0 .6.4 1 1 1h7.8c.7 0 1.3-.5 1.4-1.2l5.7-39.6c0-.3 0-.6-.2-.8-.2-.3-.5-.4-.7-.4z"/><path class="st0" d="M25 35V7c0-.6-.4-1-1-1s-1 .4-1 1v28c0 .6.4 1 1 1s1-.4 1-1zm-8.1 1c.3 0 .6-.1.7-.3.2-.2.3-.5.2-.8l-3.7-28c-.1-.5-.5-.9-1-.9-.3 0-.6.1-.7.3-.2.2-.3.5-.2.8l3.7 28c.1.5.5.9 1 .9zm15.2-.9l3.7-28c0-.3 0-.6-.2-.8-.2-.2-.4-.3-.7-.3-.5 0-.9.4-1 .9l-3.7 28c0 .3 0 .6.2.8.2.2.5.3.7.3.5 0 .9-.4 1-.9z"/></svg>