<svg xmlns="http://www.w3.org/2000/svg" viewBox="0 0 48 48"><path class="st0" d="M40 0H10C7.8 0 6 1.8 6 4v36c0 4.4 3.6 8 8 8h25c.6 0 1-.4 1-1s-.4-1-1-1H14c-3.3 0-6-2.7-6-6V4c0-1.1.9-2 2-2h29.8c.1 0 .2.1.2.2v35.5c0 .1-.1.2-.2.2H14c-2.2 0-4 1.8-4 4 0 .6.4 1 1 1s1-.4 1-1c0-1.1.9-2 2-2h26c1.1 0 2-.9 2-2V2c0-1.1-.9-2-2-2z"/><path class="st0" d="M12 35V5c0-.6-.4-1-1-1s-1 .4-1 1v30c0 .6.4 1 1 1s1-.4 1-1zm5 7c-.6 0-1 .4-1 1s.4 1 1 1h20c.6 0 1-.4 1-1s-.4-1-1-1H17zm4-30h14c.6 0 1-.4 1-1s-.4-1-1-1H21c-.6 0-1 .4-1 1s.4 1 1 1zm0 4h14c.6 0 1-.4 1-1s-.4-1-1-1H21c-.6 0-1 .4-1 1s.4 1 1 1z"/></svg>