<svg xmlns="http://www.w3.org/2000/svg" viewBox="0 0 48 48"><path class="st0" d="M46 20h-8V6c0-1.1-.9-2-2-2h-8c-1.1 0-2 .9-2 2v6H14V2c0-1.1-.9-2-2-2H2C.9 0 0 .9 0 2v44c0 1.1.9 2 2 2h44c1.1 0 2-.9 2-2V22c0-1.1-.9-2-2-2zM12 45.8c0 .1-.1.2-.2.2H2.2c-.1 0-.2-.1-.2-.2V2.2c0-.1.1-.2.2-.2h9.5c.2 0 .3.1.3.2v43.6zm14 0c0 .1-.1.2-.2.2H14.2c-.1 0-.2-.1-.2-.2V14.2c0-.1.1-.2.2-.2h11.5c.1 0 .2.1.2.2v31.6zm10 0c0 .1-.1.2-.2.2h-7.5c-.1 0-.2-.1-.2-.2V6.2c-.1-.1 0-.2.1-.2h7.5c.2 0 .3.1.3.2v39.6zm10 0c0 .1-.1.2-.2.2h-7.5c-.1 0-.2-.1-.2-.2V22.2c0-.1.1-.2.2-.2h7.5c.1 0 .2.1.2.2v23.6z"/><path class="st0" d="M9 40H5c-.5 0-1 .5-1 1s.5 1 1 1h4c.5 0 1-.5 1-1s-.5-1-1-1zm24-2h-2c-.5 0-1 .5-1 1s.5 1 1 1h2c.5 0 1-.5 1-1s-.5-1-1-1zm0-4h-2c-.5 0-1 .5-1 1s.5 1 1 1h2c.5 0 1-.5 1-1s-.5-1-1-1zM9 34H5c-.5 0-1 .5-1 1s.5 1 1 1h4c.5 0 1-.5 1-1s-.5-1-1-1zm14 7h-6c-.5 0-1 .5-1 1s.5 1 1 1h6c.5 0 1-.5 1-1s-.5-1-1-1zm20 0h-2c-.5 0-1 .5-1 1s.5 1 1 1h2c.5 0 1-.5 1-1s-.5-1-1-1z"/></svg>