<svg xmlns="http://www.w3.org/2000/svg" viewBox="0 0 48 48"><path class="st0" d="M47.2 33.7l-7.2-4V11.5c0-1.1-.8-2.4-1.8-2.9L25.9 2.4c-.5-.3-1.2-.4-1.8-.4-.6 0-1.3.1-1.8.4L9.8 8.6c-1 .5-1.8 1.8-1.8 2.9v18.2l-7.2 4c-1 .5-1 1.5-.1 2.2l12.9 9.6c.5.3 1.1.5 1.7.5.6 0 1.1-.2 1.6-.5l7.2-5.1 7.2 5.1c.4.3 1 .5 1.6.5.6 0 1.2-.2 1.7-.5l12.9-9.6c.8-.7.7-1.6-.3-2.2zM10.7 10.4l12.5-6.2c.1-.1.4-.2.9-.2.4 0 .8.1.9.2l12.4 6.2c.3.2.7.8.7 1.1v17.6l-1.1.7-13 8.1-14-8.8V11.5c0-.4.4-1 .7-1.1zm4.9 33.4c-.2.2-.6.1-.8 0L2.9 35.1c-.1-.1-.1-.2 0-.2l6.6-3.7 12.6 7.9.2.1-6.7 4.6zm29.5-8.7l-11.9 8.7c-.2.2-.6.2-.8 0l-6.7-4.6.2-.1L38 31.5l.5-.3 6.6 3.7c.1 0 .1.1 0 .2z"/><path class="st0" d="M12.5 13.9L23 19.8v13.3c0 .6.4 1 1 1s1-.4 1-1V19.7l10.5-5.8c.5-.3.7-.9.4-1.4-.3-.5-.9-.7-1.4-.4L24 18l-10.5-5.9c-.5-.3-1.1-.1-1.4.4-.2.5-.1 1.1.4 1.4z"/><path class="st0" d="M21.4 13.6c.2 0 .4 0 .5-.1L28 9.8c.5-.3.6-.9.3-1.4-.3-.5-.9-.6-1.4-.3l-6.1 3.7c-.5.3-.6.9-.3 1.4.3.3.6.4.9.4z"/></svg>