<svg xmlns="http://www.w3.org/2000/svg" viewBox="0 0 48 48"><path class="st0" d="M44.2 9.5L25.9.3c-.5-.2-1.1-.4-1.8-.4-.6 0-1.3.1-1.8.4L3.8 9.5C2.8 10 2 11.3 2 12.4v21.8c0 1.1.8 2.4 1.7 3l18.5 10.4c.5.3 1.1.4 1.7.4.6 0 1.3-.1 1.7-.4l18.5-10.5c1-.5 1.7-1.9 1.7-3V12.4c.2-1.1-.6-2.4-1.6-2.9zM24 20.6l-8.7-4.4 18.6-9.7 9 4.5L24 20.6zm-.8-18.5c.1-.1.5-.2.9-.2s.8.1.9.2l6.7 3.4L13 15.2l-8-4 18.2-9.1zM4.7 35.4c-.3-.2-.7-.8-.7-1.2V12.9l19 9.5v23.3L4.7 35.4zm38.6 0L25 45.7V22.4l19-9.7v21.5c0 .3-.4 1-.7 1.2z"/><path class="st0" d="M37.5 21.6l-8.8 4.7c-.5.3-.7.9-.4 1.4.2.3.5.5.9.5.2 0 .3 0 .5-.1l8.8-4.7c.5-.3.7-.9.4-1.4-.4-.5-1-.7-1.4-.4zm-8.4 11.7c.2 0 .3 0 .5-.1l4.7-2.6c.5-.3.7-.9.4-1.4-.3-.5-.9-.7-1.4-.4l-4.7 2.6c-.5.3-.7.9-.4 1.4.2.3.5.5.9.5zm4.5.4l-5 2.7c-.5.3-.7.9-.4 1.4.2.3.5.5.9.5.2 0 .3 0 .5-.1l5-2.7c.5-.3.7-.9.4-1.4-.3-.4-.9-.6-1.4-.4z"/></svg>