<svg xmlns="http://www.w3.org/2000/svg" viewBox="0 0 48 48"><path class="st0" d="M40.2 2l1.4 13.7c.2 2.1-.5 5.4-1.5 7.2-2.8 5-10.1 9.6-15.8 10.1h-.1c-6-.6-13.5-5.4-16.4-10.5-.9-1.5-1.5-4.4-1.3-6.2L7.8 2h14.3v5.5c0 .8.4 1.7.9 2.3l2.6 2.6-2.9 6c-.6 1.3-.3 2.9.7 3.9l2.6 2.4c.7.6 1.3.7 1.8.7 1.1 0 2.3-.9 2.3-2.5v-2.6l3.6-6.8c.4-.7.5-1.7.2-2.5L32 5.5V2h8.2M42 0h-9.9c-1.1 0-2 .9-2 2v3.8l2 5.8c.1.3.1.7-.1.9l-3.6 6.9c-.1.2-.2.7-.2.9V23c0 .3-.1.5-.3.5-.1 0-.3-.1-.4-.2l-2.6-2.4c-.4-.4-.5-1.1-.3-1.6l3.1-6.4c.2-.5.1-1.2-.3-1.6l-2.9-2.9c-.2-.2-.3-.6-.3-.9V2c0-1.1-.9-2-2-2H6L4.4 16.1c-.2 2.2.5 5.5 1.6 7.4 3.3 5.8 11.5 11 18.2 11.6h.3c6.4-.5 14.2-5.5 17.3-11.1 1.2-2.2 2-5.9 1.8-8.4L42 0zM30.1 40.5c-.3 0-.5 0-.7.2-.2.2-.3.4-.3.7v.1c0 .5.4.9.8 1 1.9.4 3.2.9 3.2 1.5 0 1.1-4 2-9 2s-9-.9-9-2c0-.6 1.2-1.2 3.2-1.5.5-.1.8-.5.8-1v-.1c0-.3-.1-.5-.3-.7-.2-.2-.5-.2-.7-.2C15.2 41 13 42 13 44c0 3.3 6 4 11 4s11-.7 11-4c0-2-2.1-3-4.9-3.5z"/><path class="st0" d="M22 44c-.6 0-1-.4-1-1v-6c0-.6.4-1 1-1s1 .4 1 1v6c0 .5-.4 1-1 1zm4 0c-.6 0-1-.4-1-1v-6c0-.6.4-1 1-1s1 .4 1 1v6c0 .5-.4 1-1 1z"/></svg>