<svg xmlns="http://www.w3.org/2000/svg" viewBox="0 0 48 48"><path class="st0" d="M24 46.8c-.6 0-1.2-.2-1.8-.6L1.2 31c-.9-.6-1.3-1.7-1.2-2.7.1-1.1.8-2 1.7-2.4l6.5-3c.5-.2 1.1 0 1.3.5.2.5 0 1.1-.5 1.3l-6.5 3c-.2.1-.5.4-.5.8s.1.7.4.9l21 15.2c.3.2.8.3 1.1 0l8.9-5.3c.5-.3 1.1-.1 1.4.3.3.5.1 1.1-.3 1.4l-8.9 5.3c-.5.4-1 .5-1.6.5zm20.6-27.9L19 3.2c-.9-.7-1.9-1-3.1-1-.3 0-.6 0-.9.1h-.2C10.8 3 7.2 8.1 7 13.5c-.2 3.9 1.4 6.9 3.7 8.1L36 37.2c.9.6 1.9 1 3.1 1 .3 0 .6 0 .9-.1h.1c4.1-.7 7.7-5.8 7.9-11.2.1-3.7-1.2-6.6-3.4-8zm-33.9.2c-1.2-1.2-1.8-3.2-1.7-5.5.2-4.5 3.1-8.8 6.2-9.4h.7c.5 0 1 .1 1.5.4 0 0 .5.3 22.6 13.9-3.8 1.2-6.8 5.9-7.1 11-.1 1.4.1 2.6.4 3.8C9.7 18.6 11.4 19.8 10.7 19.1zM46 26.8c-.2 4.5-3 8.8-6.2 9.4h-.7c-.9 0-1.7-.4-2.4-1.1-1.2-1.2-1.8-3.2-1.7-5.5.2-4.5 3.1-8.8 6.2-9.4h.7c.9 0 1.7.4 2.4 1.1 1.2 1.2 1.8 3.2 1.7 5.5z"/><path class="st0" d="M41.3 25.5h-.2c-1.2.2-2.2 1.8-2.3 3.5 0 .9.2 1.6.6 2.1.2.3.5.4.9.4h.2c1.2-.2 2.2-1.8 2.3-3.5 0-.9-.2-1.6-.6-2.1-.3-.3-.6-.4-.9-.4z"/></svg>