<svg xmlns="http://www.w3.org/2000/svg" viewBox="0 0 48 48"><path class="st0" d="M38.1 23.5c-.3-.2-.8-.2-1.1.1-.3.2-.5.5-.5.9-1 7.7-2.3 17-2.5 19 0 .3-.2.6-.5.7-1.2.8-4.4 1.8-9.6 1.8-5.2 0-8.4-1.1-9.6-1.8-.2-.2-.4-.4-.5-.7-.3-2-1.5-11.4-2.6-19.1 0-.3-.2-.6-.4-.7-.3-.2-.7-.3-1.1-.1-.3.2-.5.6-.5 1 1.2 8.6 2.6 19.5 2.6 19.6.3 2.3 5.4 4 12 4s11.6-1.7 12-4c0 0 1.5-10.9 2.6-19.5.2-.6 0-1-.3-1.2zm.5-13.3c-.4-2.1-2.2-3.7-4.3-4-.9-1.3-2.4-2.1-4.1-2.1-.3 0-.5 0-.8.1-.8-2.4-3-4.2-5.7-4.2-1.8 0-3.4.8-4.5 2.1-.8.2-1.5.5-2 1.1-.4-.2-.8-.2-1.3-.2-2.8 0-5 2.2-5 5 0 .3 0 .6.1.9-.4.4-.6 1-.8 1.5-.7.3-1.3.9-1.7 1.6-.2.3-.3.6-.4.9-.1.4 0 .7.2 1 .2.3.6.4 1 .4h.1c.3 0 .6-.3.6-.6.1-.4.3-.8.6-1.1.3-.3.6-.4 1-.5.2 0 .4-.2.4-.4.1-.8.5-1.4 1-1.9.2-.1.2-.4.2-.6-.2-.4-.3-.8-.3-1.2 0-1.7 1.3-3 3-3 .5 0 1.1.1 1.5.4.1.1.3.1.4.1.1-.1.2-.1.3-.3.4-.7 1.1-1.2 1.9-1.2.2 0 .3-.1.4-.2.7-1.1 1.9-1.8 3.3-1.8 2.5 0 4.3 2.2 4 4.5 0 .1 0 .2.1.3.1.1.2.1.3.1.1 0 .2-.1.3-.1.5-.4 1.1-.6 1.8-.6 1.2 0 2.3.7 2.7 1.8.1.2.3.3.5.3 2-.2 3.3 1.6 3.3 2.8 0 .2.1.3.2.4.4.3.7.6.9 1.1.1.3.1.5.2.7 0 .5.4.9.8 1h.1c.2 0 .5 0 .7-.2.2-.2.3-.4.3-.6v-.2c0-1.3-.5-2.4-1.3-3.1z"/><path class="st0" d="M14 15.1c-.3-.1-.6 0-.8.2-.6.6-.3 1.6.5 1.7 2.5.5 5.6.9 9.1.9h2.9c1.2 0 8.7-.4 9.5-1.1.4-.3.6-1.1 0-1.5-.2-.2-.5-.3-.8-.2 0 0-.2 0-.5.1-.3-1.7-1.8-3.1-3.6-3.2-1.1-2.4-3.6-4-6.3-4-1.9 0-3.7.8-5 2.1-.3-.1-.6-.1-1-.1-2.2 0-4 1.8-4 4 0 .4.1.8.2 1.1H14zm1.9-1.1c0-1.1.9-2 2-2 .6 0 1.2.3 1.5.7.8-1.6 2.5-2.7 4.5-2.7 2.5 0 4.6 1.9 4.9 4.3.3-.2.7-.3 1.1-.3.9 0 1.7.7 1.9 1.5-1.6.2-4 .4-6.9.5h-1.6c-2.6 0-4.8-.2-6.7-.4-.4-.4-.7-1-.7-1.6z"/><path class="st0" d="M38.4 16c-.3 0-.6.1-.8.4-.1.1-.1.2-.2.3C35.7 21 30.1 24 24 24c-5.3 0-11.5-2.4-13.5-7.2-.1-.2-.1-.3-.2-.4-.2-.3-.5-.4-.8-.4-.5 0-.9.3-1 .9 0 .9.8 2.4 2.3 3.9 2.5 2.6 7 5.2 13.2 5.2 5.9 0 10.4-2.5 13-5 1.5-1.5 2.4-3 2.4-4-.1-.6-.5-1-1-1z"/></svg>