<svg xmlns="http://www.w3.org/2000/svg" viewBox="0 0 48 48"><path class="st0" d="M40 9c0-2.2-7.2-4-16-4-3.9 0-16 .8-16 4 0 0 4 29.9 4 30 .3 2.3 5.4 4 12 4s11.6-1.7 12-4l4-30zm-29.3-.1C13 7.9 18.9 7 24 7c6.9 0 11.4 1.1 13.3 1.9.4.2.6.6.6 1-.2 1.2-.4 3.1-.7 5.4-2.1 3.9-7.3 6.5-13.1 6.5-5.1 0-10.9-2.2-13.2-6.6-.3-2.3-.6-4.3-.7-5.4-.1-.3.1-.8.5-.9zm23.4 29.5c0 .3-.2.6-.5.7-1.2.8-4.4 1.9-9.6 1.9-5.2 0-8.4-1.1-9.6-1.8-.2-.2-.4-.4-.5-.7-.3-2-1.5-11.5-2.6-19.2 2.5 2.4 6.8 4.7 12.6 4.7 5.6 0 9.9-2.2 12.6-4.6-.9 7.5-2.2 17-2.4 19z"/><path class="st0" d="M13.7 12.1c2.5.5 5.6.9 9.1.9h2.9c1.2 0 8.7-.4 9.5-1.1.4-.3.6-1.1 0-1.5-.2-.2-.5-.3-.8-.2 0 0-3.6.8-9.4.9h-1.6c-3.9 0-7.1-.4-9.3-.9H14c-.3-.1-.6 0-.8.2-.6.5-.3 1.5.5 1.7z"/></svg>