<svg xmlns="http://www.w3.org/2000/svg" viewBox="0 0 48 48"><path class="st0" d="M24 0C14.1 0 6 3.6 6 8c0 0 1.5 25 1.9 32.1.1 1 .9 1.9 2 1.9h.6l1.1 4.5c.2.9 1 1.5 1.9 1.5h2.9c.9 0 1.7-.6 1.9-1.5l1.1-4.5h9l1.1 4.5c.2.9 1 1.5 1.9 1.5h2.9c.9 0 1.7-.6 1.9-1.5l1.1-4.5h.6c1 0 1.9-.8 2-1.9C40.5 33 42 8 42 8c0-4.4-8.1-8-18-8zM8 8c.1-2.4 6.3-6 16-6s15.9 3.5 16 6H8zm1.7 28L8.1 10H23v26H9.7zm6.8 9.8c0 .1-.1.2-.2.2h-2.5c-.1 0-.2-.1-.2-.2l-1-3.8h4.9l-1 3.8zm18 0c0 .1-.1.2-.2.2h-2.5c-.1 0-.2-.1-.2-.2l-1-3.8h4.9l-1 3.8zm3.6-5.8H9.9l-.1-2h28.4l-.1 2zm.2-3.9c-.1-.1-.2-.1-.3-.1H25V10h14.9l-1.6 26.1z"/><path class="st0" d="M19 18c-.5 0-1 .5-1 1v8c0 .5.5 1 1 1s1-.5 1-1v-8c0-.5-.5-1-1-1zm10 10c.5 0 1-.5 1-1v-8c0-.5-.5-1-1-1s-1 .5-1 1v8c0 .5.5 1 1 1z"/></svg>