<svg xmlns="http://www.w3.org/2000/svg" viewBox="0 0 48 48"><path class="st0" d="M38 31.8c-.4-.5-.9-.9-1.5-1.3s-1.1-.7-1.8-.9c.5-.2 1-.5 1.5-.8.5-.3.9-.7 1.2-1.1.4-.4.6-.9.8-1.4.2-.5.3-1 .3-1.6 0-.9-.2-1.7-.6-2.5-.4-.7-1-1.3-1.6-1.8-.7-.5-1.4-.8-2.3-1.1-.8-.3-1.7-.4-2.5-.4-.9 0-1.7.1-2.5.4-.8.3-1.6.6-2.3 1.1-.7.6-1.2 1.2-1.7 1.9-.4.7-.6 1.5-.6 2.5 0 .6.1 1.1.3 1.6.2.5.5.9.8 1.3.3.4.7.8 1.2 1.1.4.3.9.6 1.4.8-.6.2-1.1.5-1.6.8L25 31.6c-.4.5-.8 1-1 1.6-.3.6-.4 1.3-.4 2 0 .9.2 1.8.6 2.6s.9 1.5 1.6 2.1c.7.6 1.5 1.1 2.5 1.4 1 .4 2 .5 3.1.5s2.1-.2 3.1-.5 1.8-.8 2.5-1.3c.7-.6 1.3-1.3 1.7-2.1.4-.8.6-1.7.6-2.7 0-.7-.1-1.4-.4-2-.2-.4-.5-.9-.9-1.4zm-11-5.2c-.3-.5-.4-1-.4-1.6 0-.6.1-1.1.4-1.6.3-.5.6-.9 1.1-1.2.4-.3 1-.6 1.6-.8.6-.2 1.2-.3 1.8-.3.6 0 1.3.1 1.8.3.6.2 1.1.4 1.6.8.5.3.8.7 1.1 1.2.3.5.4 1 .4 1.6 0 .6-.1 1.2-.4 1.7-.3.5-.7.9-1.2 1.2-.5.3-1 .6-1.6.8-.6.2-1.2.3-1.7.3-.6 0-1.2-.1-1.7-.3-.6-.2-1.1-.4-1.6-.8-.5-.5-.9-.9-1.2-1.3zm9.7 10.6c-.3.6-.8 1.1-1.3 1.5-.5.4-1.1.7-1.8 1-.7.2-1.3.3-2 .3s-1.4-.1-2-.3c-.7-.2-1.3-.5-1.8-.9s-1-.9-1.3-1.5c-.3-.6-.5-1.3-.5-2s.2-1.4.5-2c.3-.6.7-1.1 1.3-1.5s1.1-.7 1.8-1c.7-.2 1.4-.3 2.1-.3.7 0 1.3.1 2 .3.7.2 1.3.5 1.8.9s1 .9 1.3 1.5c.3.6.5 1.3.5 2-.1.8-.3 1.5-.6 2zM21 38h-9.9c-.1 0-.3-.1-.4-.2-.1-.1-.1-.3-.1-.4l.3-1.2c.2-.5.5-1 .9-1.4.4-.4.9-.8 1.6-1.2.6-.4 1.4-.8 2.4-1.2.4-.2.9-.4 1.6-.7.6-.3 1.2-.7 1.8-1.2.6-.5 1.1-1 1.5-1.7.4-.7.6-1.4.6-2.3 0-.7-.1-1.3-.4-1.9-.3-.6-.7-1.1-1.2-1.6s-1.2-.8-1.9-1.1c-.8-.3-1.6-.4-2.6-.4-2.3 0-4.3.7-6.3 2.4-.2.2-.3.4-.3.6 0 .2.1.5.2.6l.2.1c.2.2.4.3.7.3.3 0 .5-.1.7-.3 1.3-1.3 2.9-1.9 4.4-1.9.7 0 1.3.1 1.8.3.5.2 1 .4 1.3.8.4.3.6.7.8 1.1.2.4.3.8.3 1.2 0 .6-.2 1.2-.6 1.7-.4.5-.8.9-1.4 1.3-.6.4-1.2.7-1.9 1-.7.3-1.3.6-1.9.9-1.1.6-2 1.2-2.7 1.8-.7.7-1.2 1.3-1.6 2-.4.7-.7 1.4-.8 2.2-.1.6.1 1.1.4 1.6.5.5 1 .8 1.6.8H21c.5 0 1-.4 1-1s-.4-1-1-1zm-7-24c2.2 0 4-1.8 4-4s-1.8-4-4-4-4 1.8-4 4 1.8 4 4 4zm0-6c1.1 0 2 .9 2 2s-.9 2-2 2-2-.9-2-2 .9-2 2-2z"/><path class="st0" d="M46 0H2C.9 0 0 .9 0 2v44c0 1.1.9 2 2 2h44c1.1 0 2-.9 2-2V2c0-1.1-.9-2-2-2zm0 7v38.5c0 .3-.2.5-.5.5h-43c-.3 0-.5-.2-.5-.5v-43c0-.3.2-.5.5-.5h43c.3 0 .5.2.5.5V7z"/><path class="st0" d="M34 14c2.2 0 4-1.8 4-4s-1.8-4-4-4-4 1.8-4 4 1.8 4 4 4zm0-6c1.1 0 2 .9 2 2s-.9 2-2 2-2-.9-2-2 .9-2 2-2z"/></svg>