<svg xmlns="http://www.w3.org/2000/svg" viewBox="0 0 48 48"><circle class="st0" cx="36" cy="24" r="2"/><circle class="st0" cx="12" cy="24" r="2"/><path class="st0" d="M5.3 25.3c-.3-.1-.6 0-.9.2-.3.2-.4.5-.4.8v.2c0 .4.3.8.7 1 2.2.7 4.3 2.7 4.9 5.8.1.5.5.8 1 .8h.2c.3 0 .6-.1.8-.4.2-.2.3-.5.2-.8-.7-3.5-3-6.5-6.5-7.6zm0-2.6c3.5-1 5.8-4.1 6.5-7.5.1-.3 0-.6-.2-.8-.2-.2-.5-.4-.8-.4h-.2c-.5 0-.9.3-1 .8-.6 3-2.7 5.1-4.9 5.8-.4.1-.7.5-.7 1v.2c0 .3.1.6.4.8.3.1.6.1.9.1zm37.4 2.6c-3.5 1.1-5.8 4.1-6.5 7.5-.1.3 0 .6.2.8.2.2.5.4.8.4h.2c.5 0 .9-.3 1-.8.6-3 2.7-5.1 4.9-5.8.4-.1.7-.5.7-1v-.2c0-.3-.1-.6-.4-.8-.3-.1-.6-.1-.9-.1zm.6-4.7c-2.2-.6-4.3-2.8-4.9-5.8-.1-.5-.5-.8-1-.8h-.2c-.3 0-.6.1-.8.4-.2.2-.3.5-.2.8.7 3.4 3 6.4 6.5 7.5.3.1.6 0 .9-.2.3-.2.4-.5.4-.8v-.2c0-.4-.3-.8-.7-.9z"/><path class="st0" d="M46 10H2c-1.1 0-2 .9-2 2v24c0 1.1.9 2 2 2h44c1.1 0 2-.9 2-2V12c0-1.1-.9-2-2-2zm0 8.3v17.4c0 .1-.1.2-.2.2H2.2c-.1.1-.2 0-.2-.1V12.2c0-.1.1-.2.2-.2H45c.6 0 1 .5 1 1v5.3z"/><path class="st0" d="M28.5 29.8c-.1-.3-.5-.5-.8-.4-.9.3-1.6.3-2.5 0-.6-.2-1.2-.3-1.9-.3 0 0-.1 0-.1-.1v-.1c1.1-1.5 1.3-2.8 1.1-3.9h2.2c.5 0 1-.5 1-1s-.5-1-1-1h-2.9l-.3-.6c-1.7-3.3.2-4 1.2-4 .7 0 1.6.4 2.2 1.1.2.2.4.3.6.3.2 0 .5-.1.6-.3.3-.4.4-1 0-1.3-1-1.1-2.2-1.6-3.5-1.6-1.6 0-3 .9-3.7 2.2-.4.8-.4 1.6-.2 2.4.2.6.5 1.2.8 1.8 0 .1 0 .1.1.1h-1c-.5 0-1 .5-1 1s.5 1 1 1h1.8c.2.8.1 1.7-.4 2.6-.4.7-.9 1.3-1.3 1.7-.3.3-.4.7-.2 1.1l.1.1c.2.5.7.7 1.1.6.3-.1.6-.1 1-.1 1.4 0 2.9.5 3.8.5.5 0 1-.1 1.5-.3.5-.2.8-.7.6-1.2l.1-.3z"/></svg>