<svg xmlns="http://www.w3.org/2000/svg" viewBox="0 0 48 48"><path class="st0" d="M47 44H1c-.5 0-1 .5-1 1s.5 1 1 1h46c.5 0 1-.5 1-1s-.5-1-1-1zM4 40h4c1.1 0 2-.9 2-2V26c0-1.1-.9-2-2-2H4c-1.1 0-2 .9-2 2v12c0 1.1.9 2 2 2zm0-13.8c0-.1.1-.2.2-.2h3.5c.2 0 .3.1.3.2v11.5c0 .2-.1.3-.2.3H4.2c-.1 0-.2-.1-.2-.2V26.2zM14 20v18c0 1.1.9 2 2 2h4c1.1 0 2-.9 2-2V20c0-1.1-.9-2-2-2h-4c-1.1 0-2 .9-2 2zm2 .2c0-.1.1-.2.2-.2h3.5c.1 0 .2.1.2.2v17.5c0 .1-.1.2-.2.2h-3.5c-.1 0-.2-.1-.2-.2V20.2zM26 30v8c0 1.1.9 2 2 2h4c1.1 0 2-.9 2-2v-8c0-1.1-.9-2-2-2h-4c-1.1 0-2 .9-2 2zm2 .2c0-.1.1-.2.2-.2h3.5c.1 0 .2.1.2.2v7.5c0 .1-.1.2-.2.2h-3.5c-.1 0-.2-.1-.2-.2v-7.5zM38 24v14c0 1.1.9 2 2 2h4c1.1 0 2-.9 2-2V24c0-1.1-.9-2-2-2h-4c-1.1 0-2 .9-2 2zm2 .2c0-.1.1-.2.2-.2h3.5c.1 0 .2.1.2.2v13.5c0 .1-.1.2-.2.2h-3.5c-.1 0-.2-.1-.2-.2V24.2zM8.8 9.3c.3.5.9.6 1.4.3L14.7 7c.5-.3.6-.9.4-1.3-.1-.2-.4-.4-.6-.5-.3-.1-.5 0-.8.1L9.2 7.9c-.2.1-.4.3-.5.6 0 .2 0 .5.1.8zm17.4 3.5c.4.4 1 .3 1.4 0 .2-.2.3-.4.3-.7 0-.3-.1-.5-.3-.7L22 6.2c-.2-.2-.5-.3-.7-.3-.3 0-.5.1-.7.3-.4.4-.3 1 .1 1.4l5.5 5.2zm6.9 1.1c.2.5.7.8 1.3.6l3.8-1.3c.5-.2.8-.7.6-1.2-.1-.3-.3-.5-.5-.6-.2-.1-.5-.1-.8-.1l-3.9 1.3c-.2.1-.4.3-.6.5 0 .2 0 .5.1.8zM6 13c1.1 0 2-.9 2-2v-.1c0-.7-.5-1.4-1.1-1.7-.3-.1-.6-.2-.9-.2-1.1 0-2 .9-2 2s.9 2 2 2zm10.9-7.3c.3.2.7.3 1.1.3.2 0 .5 0 .7-.1.7-.2 1.2-.8 1.3-1.5v-.3c0-1.1-.9-2-2-2s-1.9.8-2 1.9v.1c0 .6.4 1.2.9 1.6zM30 17c1 0 1.8-.7 2-1.7V15c0-.6-.3-1.2-.8-1.6-.3-.2-.7-.4-1.2-.4-.2 0-.4 0-.5.1-.7.2-1.2.8-1.4 1.4 0 .2-.1.3-.1.5 0 1.1.9 2 2 2zm12-4c1.1 0 2-.9 2-2s-.9-2-2-2c-.9 0-1.7.6-1.9 1.4-.1.2-.1.4-.1.6 0 .5.2 1 .6 1.4.3.4.8.6 1.4.6z"/></svg>