<svg xmlns="http://www.w3.org/2000/svg" viewBox="0 0 48 48"><path class="st0" d="M46 8.6v16.8c0 .1-.1.2-.2.2s-.2 0-.3-.1l-5.3-5.3c-.8-.8-2-.8-2.8 0l-7.7 7.7c-.1.1-.3.1-.4 0L24 22.6s-.1-.1-.1-.2 0-.1.1-.2l7.7-7.7c.4-.4.6-.9.6-1.4 0-.5-.2-1-.6-1.4l-5.3-5.3c-.1-.1-.1-.2-.1-.3 0-.1.1-.2.2-.2H44c1.1 0 2 .9 2 2v.7zM26 4c-.8 0-1.5.5-1.8 1.2-.4.8-.2 1.6.4 2.2l5.6 5.6s.1.1.1.2 0 .1-.1.2l-7.7 7.7c-.4.4-.6.9-.6 1.4 0 .5.2 1 .6 1.4l5.7 5.7c.8.8 2 .8 2.8 0l7.7-7.7c.1-.1.3-.1.4 0l5.6 5.6c.6.6 1.4.7 2.2.4.7-.3 1.2-1 1.2-1.8v-18c0-2.2-1.8-4-4-4H26z"/><path class="st0" d="M47 31.7c-.6 0-1 .4-1 1v2.8c0 .3-.2.5-.5.5H16.2c-.8 0-1.7.3-2.3.8l-5.5 4.8c-.1.1-.2.1-.3 0-.1 0-.1-.1-.1-.2V38c0-1.1-.9-2-2-2H2.5c-.3 0-.5-.2-.5-.5v-29c0-.3.2-.5.5-.5h16.8c.6 0 1-.4 1-1s-.4-1-1-1H2C.9 4 0 4.9 0 6v30c0 1.1.9 2 2 2h3.5c.3 0 .5.2.5.5V42c0 .8.5 1.5 1.2 1.8.3.1.5.2.8.2.5 0 .9-.2 1.3-.5l5.9-5.2c.3-.2.6-.4 1-.4H46c1.1 0 2-.9 2-2v-3.3c0-.5-.4-.9-1-.9z"/></svg>