<svg xmlns="http://www.w3.org/2000/svg" viewBox="0 0 48 48"><path class="st0" d="M24 5c5.5 0 10 4.5 10 10 0 5.2-6 11-10 14 0 0-9.1-6.7-9.9-12.7C13.3 10.7 17.7 5 24 5m0 13.9c2.4 0 4.4-2 4.4-4.4 0-2.5-2-4.4-4.4-4.4-2.4 0-4.4 2-4.4 4.4 0 2.4 2 4.4 4.4 4.4M24 3c-3.5 0-6.8 1.5-9.1 4.2-2.3 2.6-3.3 6.1-2.8 9.4.9 6.7 9.7 13.3 10.7 14l1.2.9 1.2-.9C27.8 28.7 36 22 36 15c0-6.6-5.4-12-12-12zm0 13.9c-1.3 0-2.4-1.1-2.4-2.4 0-1.3 1.1-2.4 2.4-2.4 1.3 0 2.4 1.1 2.4 2.4 0 1.3-1.1 2.4-2.4 2.4z"/><path class="st0" d="M48 9c0-1.1-.9-2-2-2h-7c-.6 0-1 .4-1 1s.4 1 1 1h6.5c.3 0 .5.2.5.5v25c0 .3-.2.5-.5.5H16.1c-.8 0-1.6.3-2.3.9l-5.5 4.8c-.1.1-.2.1-.3 0-.1 0-.1-.1-.1-.2L8 37c0-1.1-.9-2-2-2H2.5c-.3 0-.5-.2-.5-.5v-25c0-.3.2-.5.5-.5H9c.5 0 1-.5 1-1s-.5-1-1-1H2C.9 7 0 7.9 0 9v26c0 1.1.9 2 2 2h3.5c.3 0 .5.2.5.5V41c0 .8.5 1.5 1.2 1.8.3.2.5.2.8.2.5 0 .9-.2 1.3-.5l5.9-5.1c.3-.2.6-.4 1-.4H46c1.1 0 2-.9 2-2V9z"/></svg>