<svg xmlns="http://www.w3.org/2000/svg" viewBox="0 0 48 48"><path class="st0" d="M35.2 19.6c.7-.5.9-1.4.7-2.2-.3-.8-1-1.4-1.9-1.4h-5.9c-.2 0-.4-.1-.4-.3l-1.8-5.8c-.3-.8-1-1.4-1.9-1.4s-1.6.6-1.9 1.4l-1.7 5.7c-.1.2-.3.4-.5.4H14c-.9 0-1.6.5-1.9 1.4-.3.8 0 1.7.7 2.2l4.9 3.8c.1.1.2.3.1.4l-1.8 6c-.3.8 0 1.8.8 2.2.3.2.7.4 1.1.4.4 0 .8-.1 1.2-.4l4.6-3.6c.1-.1.4-.1.5 0l4.6 3.6c.4.3.8.4 1.2.4.4 0 .8-.1 1.1-.4.7-.5 1-1.4.8-2.2l-1.8-6c-.1-.2 0-.4.2-.5l4.9-3.7zM28 22.7c-.2.1-.2.3-.2.5.4 1.2.1.5 2 6.5 0 .1 0 .2-.1.3-.1.1-.2.1-.3 0-4.7-3.6-4-3.1-5.2-4-.2-.1-.4-.1-.6 0-1.1.9-.5.4-5.1 4-.1.1-.2.1-.3 0-.1-.1-.1-.2-.1-.3 1.8-6 1.6-5.3 2-6.5.1-.2 0-.4-.2-.5-1-.8-.4-.3-5.4-4.2-.1-.1-.1-.2-.1-.3 0-.1.1-.2.2-.2h6.7c.2 0 .4-.1.5-.4.4-1.3.2-.6 1.9-6.3 0-.1.1-.2.2-.2s.2.1.2.2c.6 1.9 1.4 4.7 1.9 6.3.1.2.3.4.5.4h6.6c.1 0 .2.1.2.2s0 .2-.1.3c-4.8 3.9-4.2 3.4-5.2 4.2z"/><path class="st0" d="M46 4H2C.9 4 0 4.9 0 6v30c0 1.1.9 2 2 2h3.5c.3 0 .5.2.5.5V42c0 .8.5 1.5 1.2 1.8.3.1.5.2.8.2.5 0 .9-.2 1.3-.5l5.9-5.2c.3-.2.6-.4 1-.4H46c1.1 0 2-.9 2-2V6c0-1.1-.9-2-2-2zm0 31.5c0 .3-.2.5-.5.5H16.1c-.8 0-1.6.3-2.3.8l-5.5 4.8c-.1.1-.2.1-.3 0-.1 0-.1-.1-.1-.2L8 38c0-1.1-.9-2-2-2H2.5c-.3 0-.5-.2-.5-.5v-29c0-.3.2-.5.5-.5h43c.3 0 .5.2.5.5v29z"/></svg>