<svg xmlns="http://www.w3.org/2000/svg" viewBox="0 0 48 48"><path class="st0" d="M33.6 27.3c-.4-.4-1-.4-1.4 0-.4.4-.4 1 0 1.4l4 3.8c.2.2.4.3.7.3.3 0 .5-.1.7-.3.4-.4.4-1 0-1.4l-4-3.8zm.3-12.3h-6.8c-.6 0-1 .4-1 1s.4 1 1 1h6.8c.6 0 1-.4 1-1s-.5-1-1-1zm0-4.9h-6.8c-.6 0-1 .4-1 1s.4 1 1 1h6.8c.6 0 1-.4 1-1s-.5-1-1-1zM22.6 20.4c-.4-.4-1-.3-1.4.1l-6.2 7-2.4-2.4c-.4-.4-1-.4-1.4 0-.4.4-.4 1 0 1.4l3.1 3.1c.2.2.4.3.7.3.3 0 .5-.1.7-.3l6.9-7.9c.5-.3.5-1 0-1.3zM21.2 8.5l-6.2 7-2.4-2.4c-.4-.4-1-.4-1.4 0-.4.4-.4 1 0 1.4l3.1 3.1c.2.2.4.3.7.3.3 0 .5-.1.7-.3l6.9-7.9c.4-.4.3-1-.1-1.4-.3-.3-.9-.2-1.3.2z"/><path class="st0" d="M12 44H7.5c-.3 0-.5-.2-.5-.5v-41c0-.3.2-.5.5-.5h31c.3 0 .5.2.5.5v17.3c0 .2.1.4.2.6.3.3.7.4 1.1.2.4-.2.6-.5.6-1V2c0-1.1-.9-2-2-2H7C5.9 0 5 .9 5 2v42c0 1.1.9 2 2 2h5c.6 0 1-.4 1-1s-.5-1-1-1zm28.4-4.3c-.4-.1-.8-.1-1 .2-.2.2-.4.6-.4.9v2.7c0 .3-.2.5-.5.5h-3.7c-.3 0-.5.1-.7.3l-.1.1c-.3.3-.3.7-.2 1 .2.4.5.6.9.6H39c1.1 0 2-.9 2-2v-3.5c0-.4-.2-.7-.6-.8z"/><path class="st0" d="M43.6 28.6L35.8 21c-.4-.4-.9-.6-1.4-.6-.5 0-1 .2-1.4.6L17.5 37.5c-.3.4-.5.9-.5 1.4V47c0 .6.4 1 1 1h9c.5 0 1.1-.2 1.4-.6l15.2-16c.8-.8.8-2 0-2.8zm-1.8 1.8L27.3 45.7c-.2.2-.5.3-.7.3h-7c-.3 0-.5-.2-.5-.5v-6.2c0-.3.1-.5.3-.7L34 22.8c.1-.1.2-.2.4-.2.1 0 .3 0 .4.1l7.1 6.9c.1.3.1.6-.1.8z"/></svg>