<svg xmlns="http://www.w3.org/2000/svg" viewBox="0 0 48 48"><path class="st0" d="M18 10v4h-4v-4h4m1-2h-6c-.5 0-1 .5-1 1v6c0 .5.5 1 1 1h6c.5 0 1-.5 1-1V9c0-.5-.5-1-1-1zm17 1c0 .5-.5 1-1 1H25c-.5 0-1-.5-1-1s.5-1 1-1h10c.5 0 1 .5 1 1zm-2 4c0 .5-.5 1-1 1h-8c-.5 0-1-.5-1-1s.5-1 1-1h8c.5 0 1 .5 1 1zm-16 9v4h-4v-4h4m1-2h-6c-.5 0-1 .5-1 1v6c0 .5.5 1 1 1h6c.5 0 1-.5 1-1v-6c0-.5-.5-1-1-1zm15 1c0 .5-.5 1-1 1h-8c-.5 0-1-.5-1-1s.5-1 1-1h8c.5 0 1 .5 1 1zm-3 4c0 .5-.5 1-1 1h-5c-.5 0-1-.5-1-1s.5-1 1-1h5c.5 0 1 .5 1 1zm-13 9v4h-4v-4h4m1-2h-6c-.5 0-1 .5-1 1v6c0 .5.5 1 1 1h6c.5 0 1-.5 1-1v-6c0-.5-.5-1-1-1zm10 1c0 .5-.5 1-1 1h-3c-.5 0-1-.5-1-1s.5-1 1-1h3c.5 0 1 .5 1 1zm2 4c0 .5-.5 1-1 1h-5c-.5 0-1-.5-1-1s.5-1 1-1h5c.5 0 1 .5 1 1z"/><path class="st0" d="M8 0C6.9 0 6 .9 6 2v43.9c0 1.2.9 2.1 2.1 2.1H40c1.1 0 2-.9 2-2V2c0-1.1-.9-2-2-2H8zm32 45.7c0 .1-.1.3-.3.3H8.3c-.2 0-.3-.1-.3-.3V2.3c0-.2.1-.3.3-.3h31.5c.1 0 .2.1.2.3v43.4z"/></svg>