<svg xmlns="http://www.w3.org/2000/svg" viewBox="0 0 48 48"><path class="st0" d="M42 6c0-1.1-.9-2-2-2h-5.2c-.4 0-.8.4-.8.8 0 .7.5 1.2 1.2 1.2h4.5c.2 0 .3.1.3.2v39.5c0 .1-.1.2-.2.2H8.2c-.1.1-.2 0-.2-.1V6.2c0-.1.1-.2.2-.2H13c.6 0 1-.4 1-.9v-.2c0-.5-.4-.9-.9-.9H8c-1.1 0-2 .9-2 2v40c0 1.1.9 2 2 2h32c1.1 0 2-.9 2-2V6z"/><path class="st0" d="M32 2c0-1.1-.9-2-2-2H18c-1.1 0-2 .9-2 2v4c0 1.1.9 2 2 2h12c1.1 0 2-.9 2-2V2zm-2 3.7c0 .2-.1.3-.3.3H18.2c-.1 0-.2-.1-.2-.2V2.2c0-.1.1-.2.2-.2h11.5c.2 0 .3.1.3.2v3.5zM32.3 16c.9 0 1.7.8 1.7 1.7v16.7c0 .9-.8 1.7-1.7 1.7H15.7c-.9 0-1.7-.8-1.7-1.7V17.7c0-.9.8-1.7 1.7-1.7h16.6m0-2H15.7c-2 0-3.7 1.6-3.7 3.7v16.7c0 2 1.6 3.7 3.7 3.7h16.7c2 0 3.7-1.6 3.7-3.7V17.7c-.1-2.1-1.7-3.7-3.8-3.7z"/><path class="st0" d="M21.4 32.9c-.2 0-.5-.1-.7-.3L17.9 30c-.4-.4-.4-1-.1-1.4.4-.4 1-.4 1.4-.1l2 1.8 7.2-10c.3-.4.9-.5 1.4-.2.4.3.5.9.2 1.4l-7.9 10.9c-.2.2-.4.4-.7.4.1.1.1.1 0 .1z"/></svg>