<svg xmlns="http://www.w3.org/2000/svg" viewBox="0 0 48 48"><path class="st0" d="M21.1 27.8c-.3 0-.5-.1-.7-.3l-4.1-4.1c-.4-.4-.4-1 0-1.4.4-.4 1-.4 1.4 0l3.4 3.4 9.2-10.1c.4-.4 1-.4 1.4-.1.4.4.4 1 .1 1.4l-9.9 10.9c-.2.2-.5.3-.8.3z"/><path class="st0" d="M24 9c6.6 0 12 5.4 12 12s-5.4 12-12 12-12-5.4-12-12S17.4 9 24 9m0-2c-7.7 0-14 6.3-14 14s6.3 14 14 14 14-6.3 14-14S31.7 7 24 7z"/><path class="st0" d="M24 2c8 0 15.4 2.5 22 7.3C43.3 23.7 35.9 36 24 46 11.9 35.8 4.7 23.8 2 9.2 7.9 4.7 16.2 2 24 2m0-2C15.2 0 6.6 3.2.8 7.6c-.6.5-.9 1.3-.8 2 2.8 14.7 10.2 27.3 22.7 37.9.4.3.8.5 1.3.5s.9-.2 1.3-.5C38 36.9 45.3 24.1 48 9.7c.1-.7-.2-1.5-.8-1.9C44.5 5.7 36.5 0 24 0z"/></svg>