<svg xmlns="http://www.w3.org/2000/svg" viewBox="0 0 48 48"><path class="st0" d="M45.6 46l-5.2-26c-.2-1.1-1.3-2-2.4-2h-8.3c-.2 0-.3-.1-.4-.2-.1-.1-.1-.3-.1-.4L33.4 2c.4-1.1-.3-2-1.4-2H16c-1.1 0-1.8.9-1.5 1.9l4.2 15.4c0 .2 0 .3-.1.4-.1.1-.2.2-.4.2H10c-1.1 0-2.2.9-2.4 2L2.4 46c-.2 1.1.5 2 1.6 2h40c1.1 0 1.8-.9 1.6-2zm-36-25.6c0-.1.3-.4.4-.4h8.9c.6 0 1.2-.3 1.6-.8.4-.5.5-1.1.3-1.7L16.6 2h14.8l-4.2 15.5c-.2.6 0 1.2.3 1.7.4.5 1 .8 1.6.8H38c.2 0 .4.2.4.4l4 19.6H5.6l4-19.6zm33.8 25.5c0 .1-.1.1-.2.1H4.7c-.1 0-.1 0-.2-.1 0-.1-.1-.1-.1-.2l.8-3.7h37.5l.7 3.7c.1.1.1.2 0 .2z"/><path class="st0" d="M24 36c.6 0 1-.4 1-1V25c0-.6-.4-1-1-1s-1 .4-1 1v10c0 .6.4 1 1 1zm-9.2 0h.2c.5 0 .9-.3 1-.8l2-10c.1-.5-.2-1.1-.8-1.2-.5-.1-1.1.2-1.2.8l-2 10c-.1.6.3 1.1.8 1.2zM33 36h.2c.5-.1.9-.6.8-1.2l-2-10c-.1-.5-.6-.9-1.2-.8-.5.1-.9.6-.8 1.2l2 10c.1.5.5.8 1 .8z"/></svg>