<svg xmlns="http://www.w3.org/2000/svg" viewBox="0 0 48 48"><path class="st0" d="M15.1 30h14c.5 0 1-.5 1-1s-.5-1-1-1H26V4c0-2.2-1.8-4-4-4s-4 1.8-4 4v24h-2.9c-.5 0-1 .5-1 1s.5 1 1 1zM20 4c0-1.1.9-2 2-2s2 .9 2 2v24h-4V4zm14.8 36.6c-1.3 0-2.4-.4-3.2-1.4-.7-.9-.9-2.5-1-3-.8-2.5-3.2-4.2-5.8-4.2H20c-3.9 0-7 3.1-7 7v1.1c0 4.4 3.6 7.9 8 7.9h9.3c3.9 0 7.8-.9 7.8-8-1.1.4-2.2.6-3.3.6zM30.3 46H21c-3.3 0-6-2.7-6-6v-1.1c0-2.7 2.2-5 5-5h4.8c1.8 0 3.3 1.2 3.9 2.8.2.6.6 2.3.9 2.8 1 1.9 2.8 3 5.3 3 .3 0 .7 0 1-.1-.6 3-2.5 3.6-5.6 3.6z"/></svg>