<svg xmlns="http://www.w3.org/2000/svg" viewBox="0 0 48 48"><path class="st0" d="M46.8 1.2c-1.6-1.6-4.1-1.6-5.7 0L19.7 22.7c-.4.4-.4 1 0 1.4.4.4 1 .4 1.4 0L42.6 2.6c.8-.8 2-.8 2.8 0 .8.8.8 2.1 0 2.8L23.9 26.9c-.4.4-.4 1 0 1.4.4.4 1 .4 1.4 0L46.8 6.8c1.6-1.5 1.6-4.1 0-5.6zM1.3 30.7c-.3 0-.5-.1-.7-.3-.4-.4-.4-1 0-1.4l4.2-4.2c.4-.4 1-.4 1.4 0 .4.4.4 1 0 1.4L2 30.4c-.2.2-.4.3-.7.3zm2.8 2.9c-.3 0-.5-.1-.7-.3-.4-.4-.4-1 0-1.4l4.2-4.2c.4-.4 1-.4 1.4 0 .4.4.4 1 0 1.4l-4.2 4.2c-.2.2-.4.3-.7.3zM7 36.4c-.3 0-.5-.1-.7-.3-.4-.4-.4-1 0-1.4l4.2-4.2c.4-.4 1-.4 1.4 0 .4.4.4 1 0 1.4l-4.2 4.2c-.2.2-.5.3-.7.3zm2.8 2.8c-.3 0-.5-.1-.7-.3-.4-.4-.4-1 0-1.4l4.2-4.2c.4-.4 1-.4 1.4 0 .4.4.4 1 0 1.4l-4.2 4.2c-.2.2-.5.3-.7.3zm2.8 2.8c-.3 0-.5-.1-.7-.3-.4-.4-.4-1 0-1.4l4.2-4.2c.4-.4 1-.4 1.4 0 .4.4.4 1 0 1.4l-4.2 4.2c-.2.2-.4.3-.7.3zm2.8 2.9c-.3 0-.5-.1-.7-.3-.4-.4-.4-1 0-1.4l4.2-4.2c.4-.4 1-.4 1.4 0 .4.4.4 1 0 1.4l-4.2 4.2c-.1.2-.4.3-.7.3zm2.9 2.8c-.3 0-.5-.1-.7-.3-.4-.4-.4-1 0-1.4l4.2-4.2c.4-.4 1-.4 1.4 0 .4.4.4 1 0 1.4L19 47.4c-.2.2-.5.3-.7.3zM9.1 19.6c.3 0 .5.1.7.3l18.4 18.4c.4.4.4 1 0 1.4-.2.2-.5.3-.7.3-.3 0-.5-.1-.7-.3L8.4 21.3c-.4-.4-.4-1 0-1.4.2-.3.4-.3.7-.3m0-2c-.8 0-1.6.3-2.1.9-1.2 1.2-1.2 3.1 0 4.2l18.4 18.4c.6.6 1.3.9 2.1.9s1.6-.3 2.1-.9c1.2-1.2 1.2-3.1 0-4.2L11.2 18.4c-.6-.5-1.3-.8-2.1-.8z"/></svg>