<svg xmlns="http://www.w3.org/2000/svg" viewBox="0 0 48 48"><path class="st0" d="M24 2c2.2 0 4 1.8 4 4v16c0 1.5.6 3.5 1.5 4.8l11.2 16.7c.1.1.1.2 0 .3 0 .1-.1.2-.2.2-4.6 1.3-10.7 2-16.5 2-5.8 0-11.9-.7-16.4-2.1-.1 0-.2-.1-.2-.2v-.3l11.2-16.7c.8-1.2 1.5-3.3 1.5-4.8V6C20 3.8 21.8 2 24 2m0-2c-3.3 0-6 2.7-6 6v16c0 1.1-.5 2.7-1.1 3.7L7.9 39c-1.4 2.1-2.1 3.1-2.5 3.7-.4.5-.4 1.2-.2 1.8.2.6.7 1.1 1.3 1.2 1 .3 2.1.6 3.6.9 4.2.9 9 1.4 13.9 1.4 4.2 0 8.5-.3 12.3-1 2.2-.4 3.8-.8 5.2-1.2.6-.2 1.1-.6 1.3-1.2.2-.6.1-1.3-.2-1.8-.3-.5-.9-1.3-1.9-2.8l-9.5-14.2c-.7-1.1-1.2-2.7-1.2-3.8V6c0-3.3-2.7-6-6-6z"/><path class="st0" d="M27 24.4c-.2-.5-.7-.7-1.2-.6-.5.1-1.1.2-1.8.2-.6 0-1.2-.1-1.8-.2-.5-.1-1 .1-1.2.6-.1.3-.1.6 0 .8.1.3.4.4.6.5.7.2 1.5.3 2.3.3.8 0 1.6-.1 2.3-.3.3-.1.5-.3.7-.5.2-.3.2-.6.1-.8zm0-4c-.2-.5-.7-.7-1.2-.6-.5.1-1.1.2-1.8.2-.6 0-1.2-.1-1.8-.2-.5-.1-1 .1-1.2.6-.1.3-.1.6 0 .8.1.3.4.4.6.5.7.2 1.5.3 2.3.3.8 0 1.6-.1 2.3-.3.3-.1.5-.3.7-.5.2-.3.2-.6.1-.8zM24 42c-.6 0-1-.4-1-1v-7c0-.6.4-1 1-1s1 .4 1 1v7c0 .6-.4 1-1 1zm-8-2c-.1 0-.3 0-.4-.1-.5-.2-.7-.8-.4-1.3l3-6c.2-.5.8-.7 1.3-.4.5.2.7.8.4 1.3l-3 6c-.2.3-.5.5-.9.5zm16 0c-.4 0-.7-.2-.9-.6l-3-6c-.2-.5 0-1.1.4-1.3.5-.2 1.1 0 1.3.4l3 6c.2.5 0 1.1-.4 1.3-.1.2-.2.2-.4.2z"/></svg>