<svg xmlns="http://www.w3.org/2000/svg" viewBox="0 0 48 48"><path class="st0" d="M28 30h-8c-2.2 0-4 1.8-4 4v12c0 1.1.9 2 2 2h12c1.1 0 2-.9 2-2V34c0-2.2-1.8-4-4-4zm2 15.5c0 .3-.2.5-.5.5H27v-9c0-.5-.4-1-1-1-.5 0-1 .4-1 1v9h-2v-9c0-.5-.4-1-1-1-.5 0-1 .4-1 1v9h-2.5c-.3 0-.5-.2-.5-.5V34c0-1.1.9-2 2-2h8c1.1 0 2 .9 2 2v11.5zM21 28c.6 0 1-.4 1-1v-2h4v2c0 .6.4 1 1 1s1-.4 1-1V4c0-2.2-1.8-4-4-4s-4 1.8-4 4v23c0 .6.4 1 1 1zm1-24c0-1.1.9-2 2-2s2 .9 2 2v19h-4V4zm-9 42H2.5c-.3 0-.5-.2-.5-.5v-5C2 38 4 36 6.5 36 7.9 36 9 34.9 9 33.5v-5C9 27.1 7.9 26 6.5 26h-4c-.3 0-.5-.2-.5-.5v-3c0-.3.2-.5.5-.5H10c1.1 0 2 .9 2 2v10.9c0 .6.5 1.1 1.1 1.1.5 0 .9-.4.9-.9V24c0-2.2-1.8-4-4-4H2c-1.1 0-2 .9-2 2v4c0 1.1.9 2 2 2h2.9c-.2.7-.7 1.4-1.4 1.7-.2.2-.5.3-.7.3-.5.2-.8.6-.8 1.1 0 .3.1.5.3.7.3.2.5.3.8.2 1.9-.4 3.3-2 3.7-3.9.1.1.2.3.2.4v5c0 .3-.2.5-.5.5C2.9 34 0 36.9 0 40.5V46c0 1.1.9 2 2 2h11c.6 0 1-.5 1-1s-.4-1-1-1zm26.1-18c-2.5 0-4.8.5-6.4 1.2-.3.1-.5.4-.5.8 0 .3.1.7.4.9.3.3.8.3 1.1.1 1.2-.5 3-1 5.5-1 1 0 2 .1 2.8.2h.2c.2 0 .4.1.6.1.1 0 .3.1.4.1.1 0 .2.1.3.1.3.1.5.2.7.2h.1c.4.1.7.3.9.5.4.2.6.6.6 1 0 .1 0 .3-.1.4l-3.9 12.6c-.1.4-.5.7-1 .7h-3.6c-.4 0-.8-.3-1-.7 0-.2-.2-.7-.3-1.2-.1-.5-.6-.7-1.1-.7-.5.1-.8.5-.8.9v.2c0 .2 0 .4.1.5l.5 1.6c.3.8 1 1.4 1.9 1.4h5.1c.9 0 1.6-.6 1.9-1.4L47.7 33l.3-1c0-2.2-4-4-8.9-4zm-.1-8c3.9 0 7 3.1 7 7 0 .5.4 1 1 1 .5 0 1-.4 1-1 0-5-4-9-9-9s-9 4-9 9c0 .5.4 1 1 1 .5 0 1-.4 1-1 0-3.9 3.1-7 7-7z"/><path class="st0" d="M36 35.8c.9.2 2 .2 3 .2 1.1 0 2.1-.1 3.1-.2.4-.1.7-.3.8-.7.1-.3 0-.7-.2-.9-.2-.3-.6-.4-.9-.3-.8 0-1.8.1-2.8.1-1 0-1.9-.1-2.7-.2-.3-.1-.7.1-.9.3-.2.3-.3.6-.2.9.1.4.4.7.8.8z"/></svg>