<svg xmlns="http://www.w3.org/2000/svg" viewBox="0 0 48 48"><path class="st0" d="M20 2h-.2c-.1 0-.2.1-.2.1 0 .1-.1.2 0 .3 0 0 0 .1.1.1-.1-.1-.1-.2 0-.4 0 0 .2-.1.3-.1zm2.8 7.6c-.3-.2-.6-.5-.9-.7.3.2.6.5.9.7.2.2.4.3.6.3-.2 0-.4-.1-.6-.3zm2.4 0c-.2.2-.4.3-.7.3.3 0 .5-.1.7-.3.3-.2.6-.4.9-.7-.3.2-.6.5-.9.7zm3.2-7.5c0-.1-.1-.1-.2-.1H28c.1 0 .3.1.4.1 0 .2 0 .3-.1.4l.1-.1c.1-.1.1-.2 0-.3z"/><path class="st0" d="M32.7 8.2l-.6-3-.4-2.3c0-.1-.1-.5-.2-1C31.3.8 30.4 0 29.3 0H18.7c-1.1 0-2.1.8-2.3 1.9-.1.5-.2.9-.2 1l-.4 2.3-.6 3c-.1.7.1 1.4.6 1.8.5.5 1.2.6 1.9.5l.5-.1.2-.1c.4-.1.6-.4.7-.8.1-.4 0-.8-.3-1-.2-.2-.5-.3-.8-.2l-.6.2c-.1 0-.2 0-.2-.1-.1 0-.1-.1-.1-.2l.7-4c.3.5.6 1.1.9 1.6.1.2.3.4.4.6 0 .1.1.1.1.2.1.1.2.2.3.4.2.2.3.4.5.5l.1.1.1.1.5.5h.1c.2.2.5.5.8.7.3.2.6.5.9.7.2.2.4.3.6.3h1.1c.2-.1.4-.2.7-.3.3-.2.6-.5.9-.7.3-.2.5-.5.8-.7l.1-.1.5-.5.2-.2c.2-.2.3-.4.5-.5l.3-.3c.2-.2.4-.5.5-.7.1-.2.2-.3.3-.5.2-.4.5-.8.7-1.2l.7 4c0 .1 0 .2-.1.2-.1.1-.2.1-.2.1l-.6-.2c-.3-.1-.6 0-.8.2-.3.3-.4.7-.3 1 .1.4.4.7.7.8l.2.1.5.2c.7.2 1.4 0 1.9-.5.9-.5 1.1-1.2 1-1.9zm-4.3-5.8s0 .1-.1.1c0 .3-.1.5-.3.7-.7 1.5-1.7 2.8-3 3.9l-.1.1c-.1.1-.2.2-.4.3-.1.1-.3.2-.4.3-.1.1-.2.1-.3 0-.1-.1-.3-.2-.4-.3-.1-.1-.3-.2-.4-.3 0-.1-.1-.1-.2-.2-1.2-1.2-2.1-2.4-2.9-3.8l-.3-.6-.1-.1v-.3c.1-.2.2-.2.3-.2h8.3c.1 0 .2.1.2.1.2.1.2.2.1.3zm9 18.2v-.1.1z"/><path class="st0" d="M47.6 19.9c0 .5-.2.9-.5 1.3-.2.3-.5.5-.7.8-.6.6-1.2 1.1-1.8 1.6-.1.1-.2.2-.4.2-.3.2-.5.3-.8.4-.2.1-.5.2-.7.3-.2.1-.5.2-.7.2-.2 0-.3.1-.5.1-.3.1-.7.2-1.1.2-.3.1-.6 0-.8-.2-.2-.2-.4-.5-.3-.8 0-.4.3-.8.7-.9h.1l1.2-.3c.1 0 .2-.1.4-.1.1 0 .2-.1.3-.1.2-.1.4-.2.6-.2l.6-.3c.2-.1.4-.2.6-.4.2-.1.3-.2.5-.4.5-.4 1-.9 1.5-1.5.1-.1.1-.2 0-.3l-5.5-9.9-.1-.1h-.1c-.1 0-.2.1-.2.2-.5 1.5-.9 3.2-1.3 4.8-.1.6-.3 1.3-.4 1.9 0 .2-.1.5-.1.7-.3 1.8-.5 3.2-.5 3.6v.3c-.1.6-.1 1.1-.2 1.7 0 .6-.1 1.2-.1 1.9 0 .5-.1 1-.1 1.4v20c0 .3-.1.5-.2.8 0 .1 0 .1-.1.2 0 .1-.1.1-.1.2-.1.1-.2.2-.2.3-.6.3-1.1.5-1.6.5H13c-.8 0-1.4-.4-1.8-1.1 0 0 0-.1-.1-.2 0-.2-.1-.4-.1-.7V25.7c0-.4 0-.8-.1-1.2 0-.6-.1-1.2-.1-1.9 0-.5-.1-1-.2-1.5 0-.2 0-.4-.1-.5-.1-1.2-.3-2.4-.5-3.6-.1-.4-.2-.9-.3-1.4-.4-2-.9-4-1.5-6 0-.1-.1-.2-.2-.2h-.1l-.1.1-5.3 10.2c-.1.1 0 .2 0 .3.5.5.9 1 1.4 1.4l.2.2c.1.1.3.2.4.3.2.1.4.2.5.3.2.1.3.2.5.2.2.1.4.2.6.2.2.1.4.2.6.2.3.2.4.2.5.3.3.1.6.1.9.2h.1c.4.1.7.5.7.9 0 .3-.1.6-.3.8-.2.2-.5.3-.8.2-.8-.1-1.5-.3-2.2-.6-.3-.1-.6-.2-.9-.4-.3-.1-.5-.3-.7-.4-.2-.1-.3-.2-.5-.3-.1-.1-.2-.2-.3-.2-.2-.1-.4-.2-.5-.3-.1-.1-.2-.2-.4-.3-.2-.2-.5-.4-.7-.7-.2-.3-.5-.6-.8-.9-.3-.4-.5-.8-.5-1.3v-.5c0-.1 0-.1.1-.2 0-.1 0-.1.1-.2L6.9 6.8c.3-.5.7-.9 1.2-1.2 0 0 .1 0 .1-.1 0 0 .1 0 .1-.1L12.4 4c.4-.1.7 0 1 .2.2.2.4.5.4.7v.2c-.1.3-.3.6-.6.7h-.1L9.8 7.1s-.1 0-.1.1l-.1.1v.2l.2.7c.1.4.2.8.4 1.1v.1c.2.8.5 1.5.7 2.3.4 1.6.8 3.2 1.1 4.8.1.8.3 1.6.4 2.4.1.4.1.8.2 1.2.2 1.5.3 3 .4 4.5v21.1c0 .1.1.2.2.2h21.5c.1 0 .2-.1.2-.2v-19c0-.6 0-1.3.1-1.9V24c0-.4 0-.8.1-1.3 0-.4.1-.8.1-1.2v-.2c0-.3 0-.5.1-.8v-.2c0-.4.1-.8.2-1.2.4-2.8 1-5.7 1.8-8.4.1-.4.2-.8.4-1.2.1-.4.2-.8.4-1.2l.2-.7v-.2l-.1-.1h-.1L34.9 6h-.1c-.3-.2-.5-.5-.6-.8v-.1c0-.4.1-.7.4-.9.3-.2.7-.3 1.1-.2l3.6 1.3c.2.1.4.2.5.3.5.3 1 .7 1.3 1.2.1.1.2.2.2.4l6.1 11.7c.1.2.2.4.2.6v.4z"/></svg>