<svg xmlns="http://www.w3.org/2000/svg" viewBox="0 0 48 48"><path class="st0" d="M24 2c.5 0 1 .3 1.2.9l4.6 14c.2.7.9 1.2 1.7 1.2h13.4c.5 0 1 .4 1.2.9.2.5 0 1.1-.4 1.4l-10.9 8.4c-.7.5-.9 1.4-.7 2.2l4.6 13.4c.2.5 0 1.1-.4 1.4-.3.1-.6.2-.8.2-.2 0-.5-.1-.7-.2l-11.6-8.3c-.3-.2-.8-.4-1.2-.4-.4 0-.8.1-1.2.4l-11.5 8.3c-.3.1-.5.2-.8.2-.3 0-.5-.1-.7-.3-.4-.3-.6-.9-.4-1.4l4.5-13.4c.3-.8 0-1.7-.7-2.2L2.5 20.3c-.4-.3-.6-.9-.4-1.4.1-.5.6-.9 1.1-.9h13.2c.9 0 1.6-.5 1.9-1.4l4.4-13.8c.3-.5.7-.8 1.3-.8m0-2c-1.4 0-2.6.9-3.1 2.2l-4.2 13.1c-.1.4-.5.7-1 .7H3.2c-1.4 0-2.6.9-3.1 2.2-.4 1.3 0 2.8 1.1 3.6l10.2 8c.3.3.5.7.3 1.1L7.5 43.7c-.5 1.3 0 2.8 1.1 3.6.6.4 1.2.7 1.9.7s1.3-.2 1.9-.6l10.9-7.9c.3-.3.8-.3 1.2 0l11.1 7.9c.5.4 1.2.6 1.9.6s1.4-.2 2-.7c1.1-.9 1.5-2.3 1.1-3.6L36.1 31c-.1-.4 0-.9.3-1.1l10.3-8c1.1-.8 1.5-2.3 1.1-3.6-.4-1.3-1.7-2.2-3.1-2.2H32.3c-.4 0-.8-.3-1-.7L27 2.2C26.6.9 25.3 0 24 0z"/></svg>