<svg xmlns="http://www.w3.org/2000/svg" viewBox="0 0 48 48"><path class="st0" d="M48 6V2c0-1.1-.9-2-2-2H2C.9 0 0 .9 0 2v4c0 1.1.9 2 2 2v32c-1.1 0-2 .9-2 2v4c0 1.1.9 2 2 2h44c1.1 0 2-.9 2-2v-4c0-1.1-.9-2-2-2V8c1.1 0 2-.9 2-2zm-2 38.1v1.4c0 .3-.2.5-.5.5h-43c-.3 0-.5-.2-.5-.5v-3c0-.3.2-.5.5-.5h43c.3 0 .5.2.5.5v1.6zM4 40V8h4v32H4zm33.3 0H32L10.7 8h6.2l20.4 32zm-18-32H38v29.3L19.3 8zm10.4 32H10V10.5L29.7 40zM40 40V8h4v32h-4zm5.5-34h-43c-.3 0-.5-.2-.5-.5v-3c0-.3.2-.5.5-.5h43c.3 0 .5.2.5.5v3c0 .3-.2.5-.5.5z"/><path class="st0" d="M27 10c-.6 0-1 .4-1 1v2.8c0 .6.5 1 1 1s1-.4 1-1V11c0-.6-.4-1-1-1zm6 0c-.6 0-1 .4-1 1v12.2c0 .5.5 1 1 1s1-.5 1-1V11c0-.6-.4-1-1-1zM21 38c.6 0 1-.4 1-1v-3.9c0-.5-.5-1-1-1s-1 .5-1 1V37c0 .6.4 1 1 1zm-6 0c.6 0 1-.4 1-1V24.1c0-.6-.5-1-1-1s-1 .4-1 1V37c0 .6.4 1 1 1z"/></svg>