<svg xmlns="http://www.w3.org/2000/svg" viewBox="0 0 48 48"><path class="st0" d="M30 34h10c1.1 0 2-.9 2-2v-6c0-1.1-.9-2-2-2H30c-1.1 0-2 .9-2 2v6c0 1.1.9 2 2 2zm0-7.8c0-.1.1-.2.2-.2h9.5c.1 0 .2.1.2.2v5.5c0 .1-.1.2-.2.2h-9.5c-.1 0-.2-.1-.2-.2v-5.5zM7 34h8c.6 0 1-.4 1-1s-.4-1-1-1H7c-.6 0-1 .4-1 1s.4 1 1 1zm14 0h2c.6 0 1-.4 1-1s-.4-1-1-1h-2c-.6 0-1 .4-1 1s.4 1 1 1z"/><path class="st0" d="M44 8H4c-2.2 0-4 1.8-4 4v24c0 2.2 1.8 4 4 4h40c2.2 0 4-1.8 4-4V12c0-2.2-1.8-4-4-4zM4 10h40c1.1 0 2 .9 2 2H2c0-1.1.9-2 2-2zm42 26c0 1.1-.9 2-2 2H4c-1.1 0-2-.9-2-2V20h44v16zm0-18H2v-4h44v4z"/></svg>