<svg xmlns="http://www.w3.org/2000/svg" viewBox="0 0 48 48"><path class="st0" d="M33 22c2.2 0 4-1.8 4-4s-1.8-4-4-4-4 1.8-4 4 1.8 4 4 4zm0-6c1.1 0 2 .9 2 2s-.9 2-2 2-2-.9-2-2 .9-2 2-2zm-18 6c2.2 0 4-1.8 4-4s-1.8-4-4-4-4 1.8-4 4 1.8 4 4 4zm0-6c1.1 0 2 .9 2 2s-.9 2-2 2-2-.9-2-2 .9-2 2-2z"/><path class="st0" d="M24 0C10.7 0 0 10.7 0 24s10.7 24 24 24 24-10.7 24-24S37.3 0 24 0zm0 46C11.9 46 2 36.1 2 24S11.9 2 24 2s22 9.9 22 22-9.9 22-22 22z"/><path class="st0" d="M35.5 30h-23c-.7 0-1.4.4-1.8 1.1-.3.7-.3 1.5.1 2.1 3 4.1 7.8 6.8 13.2 6.8s10.2-2.7 13.1-6.9c.4-.6.5-1.4.1-2.1-.3-.6-1-1-1.7-1zm-.3 2.4C32.6 35.9 28.3 38 24 38c-4.3 0-8.6-2.1-11.2-5.6-.1-.1-.1-.2 0-.3 0-.1.1-.1.2-.1h22c.1 0 .2.1.2.1.1.1.1.2 0 .3z"/></svg>