<svg xmlns="http://www.w3.org/2000/svg" viewBox="0 0 48 48"><path class="st0" d="M44.9 22.1C44 11.4 35 3 24 3S4 11.4 3.1 22.1c-1.8.4-3.1 2-3.1 3.9v7c0 2.2 1.8 4 4 4 0 3.3 2.7 6 6 6h4.1c.5 2.3 2.5 4 4.9 4 2.8 0 5-2.2 5-5s-2.2-5-5-5c-2.4 0-4.4 1.7-4.9 4H10c-2.2 0-4-1.8-4-4 1.1 0 2-.9 2-2V24c0-1.1-.9-2-2-2h-.9c1-9.5 9.1-17 18.9-17s17.9 7.5 18.9 17H42c-1.1 0-2 .9-2 2v11c0 1.1.9 2 2 2h2c2.2 0 4-1.8 4-4v-7c0-1.9-1.3-3.5-3.1-3.9zM19 39c1.7 0 3 1.3 3 3s-1.3 3-3 3c-1.5 0-2.8-1.1-3-2.6v-.8c.2-1.5 1.4-2.6 3-2.6zM6 24v11H4c-1.1 0-2-.9-2-2v-7c0-1.1.9-2 2-2h2zm-2.7-1.9c.2-.1.5-.1.7-.1-.2 0-.5 0-.7.1zm41.4 0c-.2-.1-.5-.1-.7-.1.2 0 .5 0 .7.1zM46 33c0 1.1-.9 2-2 2h-2V24h2c1.1 0 2 .9 2 2v7z"/></svg>