<svg xmlns="http://www.w3.org/2000/svg" viewBox="0 0 48 48"><path class="st0" d="M24.2 45.3c-.1.1-.2.2-.4.2s-.3-.1-.4-.2L8.7 26.8c-.1-.2-.1-.4-.1-.5.1-.2.3-.3.4-.3h6c1.7 0 3-1.3 3-3V2.2c0-.1.1-.2.2-.2h11.5c.2 0 .3.1.3.2V23c0 1.7 1.3 3 3 3h5.7c.2 0 .4.1.4.3.1.2.1.4-.1.5L24.2 45.3zm-.2 2.6c.6 0 1.2-.3 1.6-.8l15.8-19.8c.5-.6.6-1.4.2-2.1-.3-.7-1-1.1-1.8-1.1h-6.7c-.6 0-1.1-.4-1.1-1V2c0-1.1-.8-2-1.9-2h-12c-1.1 0-2 .9-2 2v21.1c0 .6-.4 1-1 1h-7c-.8 0-1.5.4-1.8 1.1-.3.8-.2 1.6.3 2.2l15.8 19.8c.4.4 1 .7 1.6.7z"/></svg>