<svg xmlns="http://www.w3.org/2000/svg" viewBox="0 0 48 48"><path class="st0" d="M2.7 24.2c-.1-.1-.2-.2-.2-.4s.1-.3.2-.4L21.2 8.7c.2-.1.4-.1.5-.1.2.1.3.3.3.4v6c0 1.7 1.3 3 3 3h20.8c.1 0 .2.1.2.2v11.5c0 .1-.1.2-.2.2H25c-1.7 0-3 1.3-3 3v5.7c0 .2-.1.4-.3.4-.2.1-.4.1-.5-.1L2.7 24.2zM.1 24c0 .6.3 1.2.8 1.6l19.8 15.8c.6.5 1.4.6 2.1.2.7-.3 1.1-1 1.1-1.8v-6.7c0-.6.4-1.1 1-1.1H46c1.1 0 2-.8 2-1.9v-12c0-1.1-.9-2-2-2H24.9c-.6 0-1-.4-1-1v-7c0-.8-.4-1.5-1.1-1.8-.8-.3-1.6-.2-2.2.3L.8 22.4c-.4.4-.7 1-.7 1.6z"/></svg>