<svg xmlns="http://www.w3.org/2000/svg" viewBox="0 0 48 48"><path class="st0" d="M39 21.2c.1.1.1.4.1.5-.1.2-.3.3-.4.3H33c-1.7 0-3 1.3-3 3v20.8c0 .1-.1.2-.2.2H18.2c-.1 0-.2-.1-.2-.2V25c0-1.7-1.3-3-3-3H9c-.2 0-.4-.1-.4-.3-.1-.2-.1-.4.1-.5L23.5 2.7c.1-.1.2-.2.4-.2s.3.1.4.2L39 21.2zM24 .1c-.6 0-1.2.3-1.6.8L6.6 20.6c-.5.6-.6 1.4-.2 2.1.3.7 1 1.1 1.8 1.1h7c.6 0 1 .4 1 1V46c0 1.1.9 2 2 2h12c1.1 0 1.9-.9 1.9-2V24.9c0-.6.6-1 1.1-1h6.7c.8 0 1.5-.4 1.8-1.1.3-.7.2-1.5-.2-2.1L25.6.8c-.4-.4-1-.7-1.6-.7z"/></svg>