<svg xmlns="http://www.w3.org/2000/svg" viewBox="0 0 48 48"><path class="st0" d="M26.8 39c-.1.1-.4.1-.5.1-.2-.1-.3-.3-.3-.4V33c0-1.7-1.3-3-3-3H2.2c-.1 0-.2-.1-.2-.2V18.2c0-.1.1-.2.2-.2H23c1.7 0 3-1.3 3-3V9c0-.2.1-.4.3-.4.2-.1.4-.1.5.1l18.5 14.8c.1.1.2.2.2.4s-.1.3-.2.4L26.8 39zm21.1-15c0-.6-.3-1.2-.8-1.6L27.4 6.6c-.6-.5-1.4-.6-2.1-.2-.7.3-1.1 1-1.1 1.8v7c0 .6-.4 1-1 1H2c-1.1 0-2 .9-2 2v12c0 1 .9 1.8 2 1.8h21.1c.6 0 1 .6 1 1.1v6.7c0 .8.4 1.5 1.1 1.8.7.3 1.5.2 2.1-.2l19.8-15.8c.5-.4.8-1 .8-1.6z"/></svg>