<svg xmlns="http://www.w3.org/2000/svg" viewBox="0 0 48 48"><path class="st0" d="M38 21c-.4 0-.8 0-1.2.1-.5.1-.9.5-.9 1.1 0 .3.2.5.4.7.2.2.5.2.7.2.3 0 .6-.1 1-.1 4.4 0 8 3.6 8 8s-3.6 8-8 8c-2.1 0-4.1-.9-5.5-2.2-.2-.2-.5-.3-.7-.3-.3 0-.5.1-.7.3-.4.4-.3 1 0 1.4 1.8 1.7 4.2 2.8 6.9 2.8 5.5 0 10-4.5 10-10s-4.5-10-10-10z"/><path class="st0" d="M17 7C7.6 7 0 14.6 0 24s7.6 17 17 17 17-7.6 17-17S26.4 7 17 7zm0 32C8.7 39 2 32.3 2 24S8.7 9 17 9s15 6.7 15 15-6.7 15-15 15zm16.3-5.3c-.2.4-.2.8.1 1.1 1.1 1.3 2.7 2.1 4.6 2.1 3.3 0 6-2.7 6-6s-2.7-6-6-6c-.5 0-.9.1-1.3.2s-.7.4-.8.9c0 .3.1.6.3.9.2.2.6.3.9.2.3-.1.6-.1.9-.1 2.2 0 4 1.8 4 4s-1.8 4-4 4c-1.2 0-2.3-.5-3.1-1.4-.2-.2-.5-.4-.8-.4-.3.1-.6.2-.8.5z"/><path class="st0" d="M17 12c-6.6 0-12 5.4-12 12s5.4 12 12 12 12-5.4 12-12-5.4-12-12-12zm0 22c-5.5 0-10-4.5-10-10s4.5-10 10-10 10 4.5 10 10-4.5 10-10 10z"/></svg>