<svg xmlns="http://www.w3.org/2000/svg" viewBox="0 0 48 48"><path class="st0" d="M30 9c0 .5-.5 1-1 1H11c-.5 0-1-.5-1-1s.5-1 1-1h18c.5 0 1 .5 1 1zm0 8c0 .5-.5 1-1 1H11c-.5 0-1-.5-1-1s.5-1 1-1h18c.5 0 1 .5 1 1zm0 8c0 .5-.5 1-1 1H11c-.5 0-1-.5-1-1s.5-1 1-1h18c.5 0 1 .5 1 1zm0 6c0 .5-.5 1-1 1H11c-.5 0-1-.5-1-1s.5-1 1-1h18c.5 0 1 .5 1 1z"/><path class="st0" d="M43 12c-.6 0-1 .4-1 1v32.5c0 .3-.2.5-.5.5H17c-.6 0-1 .4-1 1s.4 1 1 1h25c1.1 0 2-.9 2-2V13c0-.6-.4-1-1-1z"/><path class="st0" d="M39 8c-.6 0-1 .4-1 1v32.5c0 .3-.2.5-.5.5H13c-.6 0-1 .4-1 1s.4 1 1 1h25c1.1 0 2-.9 2-2V9c0-.6-.4-1-1-1z"/><path class="st0" d="M34 4.1V37c0 .6-.4 1-1 1H7c-.6 0-1-.4-1-1V3c0-.6.4-1 1-1h26c.6 0 1 .4 1 1v1.1zM36 2c0-1.1-.9-2-2-2H6C4.9 0 4 .9 4 2v36c0 .8.5 1.6 1.2 1.8.3.1.5.2.8.2h28c1.1 0 2-.9 2-2V2z"/></svg>