<svg xmlns="http://www.w3.org/2000/svg" viewBox="0 0 48 48"><path class="st0" d="M44.7 24.6c-.2-.4-.5-.6-.9-.6h-7.5c-.1 0-.2-.1-.2-.2V9c0-.6-.4-1-1-1s-1 .4-1 1v14.8c0 1.2 1 2.2 2.2 2.2h5s.1 0 .1.1v.1L24.1 45.9h-.2L6.6 26.2v-.1l.1-.1h5c1.2 0 2.2-1 2.2-2.2V9c0-.6-.4-1-1-1s-1 .4-1 1v14.8c0 .1-.1.2-.2.2H4.2c-.4 0-.8.2-.9.6-.2.4-.1.8.2 1.1l19 21.7c.4.4.9.7 1.5.7s1.1-.2 1.5-.7l19-21.7c.3-.3.3-.7.2-1.1zM13 6h22c.5 0 1-.5 1-1s-.5-1-1-1H13c-.5 0-1 .5-1 1s.5 1 1 1zm0-4h22c.5 0 1-.5 1-1s-.5-1-1-1H13c-.5 0-1 .5-1 1s.5 1 1 1z"/><path class="st0" d="M23 19c.5-.2 1.1-.3 1.7-.3.8 0 2.3.2 3.4 1.6.7 1 2.5-.1 1.7-1.2-1.1-1.5-2.9-2.4-5-2.4-4 0-6.6 3.2-6.9 6.4H17c-.5 0-1 .5-1 1s.5 1 1 1h.9c.2 1.1.5 2.1 1.1 3 1.3 2.1 3.4 3.4 5.7 3.4 2.2 0 4.2-.9 5.3-2.5.8-1.2-.8-2.4-1.7-1.2-.8 1.1-2.1 1.7-3.4 1.7-2 0-3.7-1.4-4.5-3.5-.1-.3-.1-.6-.1-.9H25c.5 0 1-.5 1-1s-.5-1-1-1h-4.8c.2-2 1.2-3.4 2.8-4.1z"/></svg>