<svg xmlns="http://www.w3.org/2000/svg" viewBox="0 0 48 48"><path class="st0" d="M24.1 44c-.6 0-1-.4-1-1v-2c0-.6.4-1 1-1s1 .4 1 1v2c0 .5-.5 1-1 1zM7 24.9H5c-.6 0-1-.4-1-1s.4-1 1-1h2c.6 0 1 .4 1 1s-.5 1-1 1zm36 0h-2c-.6 0-1-.4-1-1s.4-1 1-1h2c.6 0 1 .4 1 1s-.5 1-1 1zm-9.9 0h-10c-.6 0-1-.4-1-1V6.8c0-.6.4-1 1-1s1 .4 1 1v16.1h9c.6 0 1 .4 1 1s-.5 1-1 1z"/><path class="st0" d="M0 24c0 13.2 10.8 24 24 24 12.9 0 23.4-10.2 24-23 0-.3-.1-.5-.3-.7-.2-.2-.4-.3-.7-.3-.5 0-1 .4-1 .9C45.5 36.6 35.8 46 24 46 11.9 46 2 36.1 2 24 2 12.2 11.4 2.5 23 2c.5 0 1-.5 1-1 0-.3-.1-.5-.3-.7-.2-.2-.4-.3-.7-.3C10.2.5 0 11.1 0 24zm45.3-9.7c-.1 0-.2 0-.4.1-.5.2-.8.8-.5 1.3.2.6.4 1.1.6 1.7.1.4.5.7 1 .7h.3c.5-.2.8-.7.7-1.2 0-.1-.1-.2-.1-.4-.1-.1-.1-.3-.2-.4-.6-1.5-1-1.8-1.4-1.8zM40 6.4c-.3 0-.5.1-.7.3-.4.4-.4 1 0 1.4l1.3 1.3c.2.2.5.3.8.3.2 0 .5-.1.6-.2.4-.4.5-1 .1-1.4-.2-.2-.4-.5-.6-.7-.5-.4-.7-.5-.8-.7-.2-.2-.5-.3-.7-.3zm-8.1-5c-.4 0-.8.3-.9.7-.2.5.1 1.1.6 1.3.6.2 1.1.4 1.7.7.1.1.3.1.4.1.4 0 .7-.2.9-.6.2-.5 0-1.1-.5-1.3-.1-.1-.3-.1-.4-.2-1.6-.7-1.7-.7-1.8-.7z"/><path class="st0" d="M24.1 44c-.6 0-1-.4-1-1v-2c0-.6.4-1 1-1s1 .4 1 1v2c0 .5-.5 1-1 1zM7 24.9H5c-.6 0-1-.4-1-1s.4-1 1-1h2c.6 0 1 .4 1 1s-.5 1-1 1zm36 0h-2c-.6 0-1-.4-1-1s.4-1 1-1h2c.6 0 1 .4 1 1s-.5 1-1 1zm-9.9 0h-10c-.6 0-1-.4-1-1V6.8c0-.6.4-1 1-1s1 .4 1 1v16.1h9c.6 0 1 .4 1 1s-.5 1-1 1z"/></svg>