<svg xmlns="http://www.w3.org/2000/svg" viewBox="0 0 48 48"><path class="st0" d="M34 18v-6c0-1.1-.9-2-2-2h-2c-1.1 0-2 .9-2 2v6h-8v-6c0-1.1-.9-2-2-2h-2c-1.1 0-2 .9-2 2v6c-1.1 0-2 .9-2 2v4c0 5.2 3.3 9.7 8 11.3V42c0 .5.5 1 1 1s1-.5 1-1v-6.2c.7.1 1.3.2 2 .2s1.3-.1 2-.2V42c0 .5.5 1 1 1s1-.5 1-1v-6.7c4.7-1.6 8-6.1 8-11.3v-4c0-1.1-.9-2-2-2zm-4-6h2v6h-2v-6zm-14 0h2v6h-2v-6zm18 10v2c0 5.5-4.5 10-10 10s-10-4.5-10-10v-3.2c0-.5.4-.8.8-.8h18.7c.3 0 .5.2.5.5V22z"/><path class="st0" d="M24 0C10.7 0 0 10.7 0 24s10.7 24 24 24 24-10.7 24-24S37.3 0 24 0zm0 46C11.9 46 2 36.1 2 24S11.9 2 24 2s22 9.9 22 22-9.9 22-22 22z"/></svg>