<svg xmlns="http://www.w3.org/2000/svg" viewBox="0 0 48 48"><path class="st0" d="M46.1 14.6c-1.2-3-3-5.6-5.1-7.7-2.2-2.2-4.7-3.9-7.6-5.1C30.5.6 27.4 0 24.2 0 21 0 18 .6 15.1 1.7c-2.9 1.1-5.5 2.8-7.7 4.9-2.2 2.1-4 4.6-5.4 7.5-1.3 2.9-2 6.2-2 9.8 0 3.5.6 6.7 1.9 9.6 1.2 2.9 3 5.5 5.1 7.6 2.2 2.1 4.7 3.8 7.6 5 2.9 1.2 6 1.8 9.2 1.8 1.8 0 3.7-.2 5.5-.6 1.5-.4 3-.9 4.4-1.5.5-.2.7-.8.5-1.3-.1-.2-.3-.4-.5-.5-.2-.1-.5-.1-.7 0-1.3.6-2.7 1.1-4 1.4-1.6.4-3.4.6-5.2.6-3.1 0-6-.6-8.6-1.7-2.6-1.1-5-2.7-6.9-4.7-2-2-3.5-4.4-4.6-7C2.6 29.9 2 27 2 23.9c0-3.2.6-6.1 1.8-8.8 1.2-2.7 2.8-5 4.8-7 2-1.9 4.4-3.5 7-4.6 2.7-1 5.6-1.5 8.5-1.5 3 0 5.9.6 8.6 1.8 2.6 1.2 5 2.8 6.9 4.8 2 2 3.5 4.4 4.6 7.1 1.1 2.7 1.7 5.7 1.7 8.8 0 1.2-.1 2.6-.3 4.2-.2 1.5-.6 3-1.2 4.3-.5 1.3-1.3 2.5-2.2 3.4-.9.9-2.1 1.4-3.5 1.4-3.3 0-5.8-2-5.8-7.8v-7c0-1.3-.1-2.5-.2-3.8-.2-1.3-.5-2.5-1.1-3.5-.6-1-1.5-1.9-2.6-2.5-1.1-.7-2.7-1-4.7-1-1.6 0-3.1.2-4.6.7-1.1.4-2.1.8-3.1 1.4-.5.3-.8 1-.5 1.6.1.3.4.5.7.6.3.1.6 0 .9-.1.8-.5 1.5-.8 2.4-1.1 1.2-.4 2.6-.7 4-.7 1.3 0 2.4.2 3.2.6.8.4 1.5 1 2 1.7s.8 1.6 1 2.6c.2 1 .3 2.1.3 3.4-.6-.2-1.5-.5-2.6-.8-1.2-.3-2.5-.5-4.1-.5-1.1 0-2.3.1-3.5.3s-2.2.6-3.2 1.2c-.9.5-1.7 1.3-2.3 2.2-.6.9-.9 2.1-.9 3.4 0 2.1.7 3.8 2.1 5.1 1.4 1.3 3.4 2 5.9 2 1.9 0 3.6-.4 5.1-1.1 1.5-.7 2.8-1.6 3.7-2.6.2 4 3.5 7.4 7.6 7.4 1.5 0 2.7-.3 3.8-.9 1-.6 1.9-1.3 2.6-2.3.7-.9 1.3-2 1.7-3.1.4-1.2.8-2.3 1-3.4.2-1.1.4-2.2.4-3.2.1-1 .1-1.8.1-2.4 0-3.3-.6-6.6-1.9-9.6zm-24 19c-1.6 0-3-.5-4-1.3-1-.9-1.6-2.1-1.6-3.5 0-.9.2-1.7.6-2.3.4-.6.9-1.1 1.6-1.5.7-.4 1.4-.7 2.3-.8.9-.2 1.8-.2 2.7-.2 1.7 0 3.1.2 4.3.5l2.4.6v2.1c0 1-.2 1.9-.6 2.9-.4.9-1.3 1.8-2.8 2.5-.7.3-1.4.6-2.3.8-.8.1-1.7.2-2.6.2z"/></svg>