<svg xmlns="http://www.w3.org/2000/svg" viewBox="0 0 48 48"><path class="st0" d="M24 44c-.6 0-1-.4-1-1v-2c0-.6.4-1 1-1s1 .4 1 1v2c0 .5-.4 1-1 1zM7 25H5c-.6 0-1-.4-1-1s.4-1 1-1h2c.6 0 1 .4 1 1s-.5 1-1 1zm36 0h-2c-.6 0-1-.4-1-1s.4-1 1-1h2c.6 0 1 .4 1 1s-.5 1-1 1zm-9 0H24c-.6 0-1-.4-1-1V6.9c0-.6.4-1 1-1s1 .4 1 1V23h9c.6 0 1 .4 1 1s-.4 1-1 1z"/><path class="st0" d="M24.9 0c-.3 0-.5.1-.7.3-.1.1-.2.4-.2.6V1c0 .6.4 1 .9 1C36.6 2.5 46 12.2 46 24c0 12.1-9.9 22-22 22-11.8 0-21.5-9.4-22-21.1 0-.5-.4-.9-1-.9-.3 0-.5.1-.7.3-.2.2-.3.4-.3.7.5 12.8 11.1 23 24 23 13.2 0 24-10.7 24-24C48 11.1 37.8.5 24.9 0z"/></svg>