<svg xmlns="http://www.w3.org/2000/svg" viewBox="0 0 48 48"><path class="st0" d="M44 27c0-.6-.4-1-1-1s-1 .4-1 1v18.8c0 .1-.1.2-.2.2H2.2c-.1 0-.2-.1-.2-.2V6.2c0-.1.1-.2.2-.2H21c.6 0 1-.4 1-1s-.4-1-1-1H2C.9 4 0 4.9 0 6v40c0 1.1.9 2 2 2h40c1.1 0 2-.9 2-2V27z"/><path class="st0" d="M46 4.6v16.8c0 .1-.1.2-.2.2s-.2 0-.3-.1l-5.3-5.3c-.4-.4-.9-.6-1.4-.6-.5 0-1.1.2-1.4.6L23.7 30.9s-.1.1-.2.1-.1 0-.2-.1L18 25.6c-.1-.1-.1-.2 0-.3l13.8-14.7c.7-.8.7-2 0-2.8l-5.4-5.4c-.1-.1-.1-.2-.1-.3 0-.1.1-.2.2-.2H44c1.1 0 2 .9 2 2v.7zM26 0c-.8 0-1.5.5-1.8 1.2-.4.8-.2 1.6.4 2.2L30.2 9c.1.1.1.2 0 .3-1.3 1.5-10.1 10.9-13.8 14.7-.7.8-.7 2 0 2.8l5.6 5.6c.4.4.9.6 1.4.6.5 0 1.1-.2 1.4-.6 3.4-3.6 10.8-11.8 13.7-14.6.1-.1.3-.1.4 0l5.6 5.6c.6.6 1.4.7 2.2.4.7-.3 1.2-1 1.2-1.8V4c0-2.2-1.8-4-4-4H26z"/></svg>