<svg xmlns="http://www.w3.org/2000/svg" viewBox="0 0 48 48"><path class="st0" d="M8 4H4C1.8 4 0 5.8 0 8v28c0 2.2 1.8 4 4 4h4c2.2 0 4-1.8 4-4V8c0-2.2-1.8-4-4-4zm2 32c0 1.1-.9 2-2 2H4c-1.1 0-2-.9-2-2V8c0-1.1.9-2 2-2h4c1.1 0 2 .9 2 2v28zm26-4c0 .5-.5 1-1 1H19c-.5 0-1-.5-1-1s.5-1 1-1h16c.5 0 1 .5 1 1zm0 6c0 .5-.5 1-1 1H19c-.5 0-1-.5-1-1s.5-1 1-1h16c.5 0 1 .5 1 1zm8-28H15c-.6 0-1 .4-1 1s.4 1 1 1h29c1.1 0 2 .9 2 2v16c0 1.1-.8 2-1.8 2H43c-.5 0-1 .5-1 1s.4 1 1 1h1.2c2.2 0 3.8-1.8 3.8-4V14c0-2.2-1.8-4-4-4z"/><path class="st0" d="M18 17c1.1 0 2 .9 2 2s-.9 2-2 2-2-.9-2-2 .9-2 2-2m0-2c-2.2 0-4 1.8-4 4s1.8 4 4 4 4-1.8 4-4-1.8-4-4-4zm10 2c1.1 0 2 .9 2 2s-.9 2-2 2-2-.9-2-2 .9-2 2-2m0-2c-2.2 0-4 1.8-4 4s1.8 4 4 4 4-1.8 4-4-1.8-4-4-4zm12 13c0-1.1-.9-2-2-2H16c-1.1 0-2 .9-2 2v14c0 1.1.9 2 2 2h22c1.1 0 2-.9 2-2V28zm-2 13.5c0 .3-.2.5-.5.5h-21c-.3 0-.5-.2-.5-.5v-13c0-.3.2-.5.5-.5h21c.3 0 .5.2.5.5v13z"/></svg>