<svg xmlns="http://www.w3.org/2000/svg" viewBox="0 0 48 48"><path class="st0" d="M41 12H7c-.5 0-1 .5-1 1v22c0 .5.5 1 1 1h34c.5 0 1-.5 1-1V13c0-.5-.4-1-1-1zm-1 21.8c0 .1-.1.2-.2.2H8.3c-.2 0-.3-.1-.3-.2V14.2c0-.1.1-.2.3-.2h31.5c.1 0 .2.1.2.2v19.6z"/><path class="st0" d="M31 18c-3.3 0-6 2.7-6 6s2.7 6 6 6 6-2.7 6-6-2.7-6-6-6zm0 10c-2.2 0-4-1.8-4-4s1.8-4 4-4 4 1.8 4 4-1.8 4-4 4zm-13.1-9.5c-.4-.6-1.4-.6-1.7 0l-6 10c-.3.5-.1 1.1.3 1.4.5.3 1.1.1 1.4-.3L17 21l5.1 8.6c.2.3.5.5.9.5.2 0 .4 0 .5-.1.5-.3.6-.9.3-1.4l-5.9-10.1z"/><path class="st0" d="M47.7 31.3c.5-1.3.5-3.4 0-4.5-1.3-3.4 0-5.1.2-6.4.2-1.2.2-2.7-.2-3.7-1.3-3.3-.6-5.5.1-9.3.1-.7-.1-1.4-.7-1.9-1.4-1.2-2.7.2-4.4.3-2.6 0-3.8-1.6-6.3-1.6-2.6 0-3.5 1.6-6.1 1.6-2.6 0-3.5-1.6-6.1-1.6-3.2 0-3.7 1.6-6.4 1.6-2.6 0-3.5-1.6-6.1-1.6-2.5 0-3.7 1.6-6.3 1.6-1.6-.1-3-1.5-4.4-.3C.5 6 .2 6.7.3 7.4c.2 1.4.5 2.9.7 4 .2 1.5.1 3.3-.6 5.3-1.4 3.4.8 5.1.6 7.6 0 1.2-.6 2.3-.8 3.3-.2 1.2-.2 2.7.2 3.7 1.3 3.2.6 5.5-.1 9.3-.1.7.2 1.4.7 1.9 1.4 1.2 2.8-.2 4.4-.3 2.6 0 3.8 1.6 6.3 1.6 2.6 0 3.5-1.6 6.1-1.6 2.7 0 3.2 1.6 6.4 1.6 2.6 0 3.5-1.6 6.1-1.6 2.6 0 3.5 1.6 6.1 1.6 2.5 0 3.7-1.6 6.3-1.6 1.6.1 3 1.5 4.4.3 1.2-1 .6-1.9 0-5.9-.3-1.4-.2-3.3.6-5.3zm-1.9-.7c-.8 2.1-1.1 4.2-.8 6.3.1.9.4 2.1.6 3.7 0 .1 0 .2-.1.2-.1.1-.2.1-.2 0-1.5-.5-2.2-.6-2.6-.6-3.1 0-4.5 1.6-6.4 1.6-2.3 0-4.6-3.1-10.1-.6-.8.4-1.3.6-2.3.6-2.2-.1-2.9-1.6-6.3-1.6-3.1 0-4.2 1.6-6.1 1.6-1.9 0-3.2-1.6-6.4-1.6-.4 0-1.1.1-2.6.6h-.2c-.1-.1-.1-.1-.1-.2.4-1.6.7-2.8.8-3.7.3-2.1.1-4.2-.8-6.3-.9-2.2.5-3 .7-6.2.1-3.4-1.7-4.5-.7-7 .8-2.1 1.1-4.2.8-6.3-.1-.9-.4-2.1-.6-3.7 0-.1 0-.2.1-.2.1-.1.2-.1.2 0 1.5.5 2.2.6 2.6.6 3.1 0 4.5-1.6 6.4-1.6 1.9 0 3 1.6 6.1 1.6 3.3 0 4.1-1.5 6.3-1.6 1 0 1.5.3 2.3.6.7.3 1.6.7 2.8.9.4 0 .7.1 1.2.1 3.1 0 4.2-1.6 6.1-1.6 1.8 0 3.3 1.6 6.4 1.6.4 0 1.1-.1 2.6-.6h.2c.1.1.1.1.1.2-.3 1.5-.5 2.8-.6 3.7-.3 2.1-.1 4.2.8 6.3.9 2.2-.5 3.2-.7 6.2-.3 3.4 1.5 4.5.5 7z"/></svg>