<svg xmlns="http://www.w3.org/2000/svg" viewBox="0 0 48 48"><path class="st0" d="M6.1 27.8v-6.4h4.3v1.3H7.6v1.4H10v1.2H7.6v2.5H6.1zm5.1 0v-6.4h2.9c.3 0 .6.1.8.2.3.1.5.3.7.5.2.2.3.4.4.7.1.3.2.5.2.8 0 .2 0 .4-.1.6 0 .2-.1.4-.2.5-.1.2-.2.3-.3.4-.1.1-.3.2-.4.3l1.5 2.4H15l-1.3-2.1h-1v2.1h-1.5zm1.5-3.3H14c.2 0 .3-.1.5-.2.1-.2.2-.4.2-.6 0-.3-.1-.5-.2-.6-.1-.2-.3-.2-.5-.2h-1.3v1.6zm4 3.3l2.5-6.4h1.2l2.4 6.4h-1.6l-.5-1.4h-2l-.5 1.4h-1.5zm3-4.8l-.7 2.4h1.5l-.8-2.4zm7.8 4.2c-.2.2-.5.4-.7.5-.3.1-.5.2-.8.2-.4 0-.8-.1-1.1-.3-.4-.2-.7-.4-.9-.7-.3-.3-.5-.6-.6-1-.3-.5-.4-.9-.4-1.3s.1-.9.2-1.2c.2-.4.4-.7.6-1 .3-.3.6-.5 1-.7.4-.2.8-.3 1.2-.3.6 0 1.1.1 1.5.4.4.2.7.6 1 1l-1.1.8c-.1-.3-.3-.5-.6-.7-.2-.2-.5-.2-.8-.2-.2 0-.4 0-.6.1-.2.1-.3.2-.5.4l-.3.6c-.1.2-.1.5-.1.8 0 .3 0 .5.1.8l.3.6c.1.2.3.3.5.4.2.1.4.1.6.1.3 0 .5-.1.8-.2.2-.1.5-.3.7-.6v-.2h-1.2v-1.1h2.5v3.3h-1.2v-.5zm2.2.6v-6.4h1.5v6.4h-1.5zm2.7 0v-6.4h1.5v5.1H37v1.3h-4.6zm9.8-1.3v1.3h-4.5v-6.4h4.4v1.3h-2.9V24h2.5v1.2h-2.5v1.4h3z"/><path class="st0" d="M46 12v25.5c0 .3-.2.5-.5.5h-43c-.3 0-.5-.2-.5-.5v-27c0-.3.2-.5.5-.5h43c.3 0 .5.2.5.5V12zm0-4H2c-1.1 0-2 .9-2 2v28c0 1.1.9 2 2 2h44c1.1 0 2-.9 2-2V10c0-1.1-.9-2-2-2z"/></svg>