<svg xmlns="http://www.w3.org/2000/svg" viewBox="0 0 48 48"><path class="st0" d="M33 30c-.6 0-1 .4-1 1s-.4 1-1 1H17c-.6 0-1-.4-1-1s-.4-1-1-1-1 .4-1 1c0 1.7 1.3 3 3 3h14c1.7 0 3-1.3 3-3 0-.6-.5-1-1-1zM8.9 13.6c.3.1.6 0 .8-.1.2-.2.4-.4.4-.7C10.7 8.9 14 6 18 6h12c4 0 7.3 2.9 7.9 6.8 0 .3.2.5.4.7.2.2.5.2.8.1.5-.1.8-.6.7-1.1C39.1 7.7 35 4 30 4H18c-5 0-9.1 3.7-9.9 8.4-.1.6.2 1 .8 1.2z"/><path class="st0" d="M47.5 20.1c-1.6-3.5-5.6-4.7-9.2-3.2-2.9 1.2-5 4-5.9 7.7 0 .2-.2.4-.5.4H16.1c-.2 0-.4-.2-.5-.4-.8-3.5-2.9-6.3-5.6-7.5-.1-.1-.2-.1-.3-.1-.3-.1-.5-.2-.8-.3-.1 0-.2 0-.2-.1-.2-.1-.4-.1-.7-.2h-.1c-3.2-.6-6.2.8-7.5 3.7-.7 1.5-.6 3.4.2 4.9.8 1.4 2 2.3 3.5 2.5h.1c2.2.3 3.8 2.2 3.8 4.3V35c0 1.6 1 3 2.3 3.6-.2.4-.3.9-.3 1.4v1c0 1.7 1.3 3 3 3h4c1.7 0 3-1.3 3-3v-1c0-.4-.1-.7-.2-1h8.4c-.2.3-.2.6-.2 1v1c0 1.7 1.3 3 3 3h4c1.7 0 3-1.3 3-3v-1c0-.5-.1-.9-.3-1.4C39 38 40 36.6 40 35v-3.2c0-2.1 1.6-4 3.7-4.3h.1c1.5-.2 2.7-1.1 3.5-2.5.8-1.5.9-3.4.2-4.9zM18 40v1c0 .5-.5 1-1 1h-4c-.5 0-1-.5-1-1v-1c0-.5.5-1 1-1h4c.5 0 1 .5 1 1zm18 1c0 .5-.5 1-1 1h-4c-.5 0-1-.5-1-1v-1c0-.5.5-1 1-1h4c.5 0 1 .5 1 1v1zm7.5-15.5c-3.1.5-5.5 3.2-5.5 6.3V35c0 1.1-.9 2-2 2H12c-1.1 0-2-.9-2-2v-3.2c0-3.2-2.3-5.9-5.5-6.3C3 25.3 2 23.8 2 22.3c0-1.8 1.7-4 4.5-4 .6 0 1.2.1 1.9.3.2.1.4.1.6.2.3.1.6.3.9.4.1 0 .1.1.2.1 1.8 1.1 3.2 3.2 3.8 6.1.2.9 1 1.6 2 1.6h16.6c1 0 1.8-.7 2-1.6.6-2.9 2.2-5.5 4.8-6.6 2.7-1.1 5.5-.4 6.7 2.1.5 1.9-.6 4.3-2.5 4.6z"/></svg>