<svg xmlns="http://www.w3.org/2000/svg" viewBox="0 0 48 48"><path class="st0" d="M45 46H3c-.5 0-1 .5-1 1s.5 1 1 1h42c.5 0 1-.5 1-1s-.5-1-1-1zM14.3 25.8c-2.2 0-4 1.8-4 4s1.8 4 4 4 4-1.8 4-4-1.8-4-4-4zm0 6c-1.1 0-2-.9-2-2s.9-2 2-2 2 .9 2 2-.9 2-2 2zm23.7-2c0-2.2-1.8-4-4-4s-4 1.8-4 4 1.8 4 4 4 4-1.7 4-4zm-4 2c-1.1 0-2-.9-2-2s.9-2 2-2 2 .9 2 2-.9 2-2 2zM14.6 23h18.8c.7 0 1.3-.4 1.7-.9.4-.6.4-1.3.1-1.9l-1.7-3.4c-.5-1-1.5-1.7-2.7-1.7H17.2c-1.1 0-2.2.6-2.7 1.7l-1.7 3.4c-.3.6-.3 1.4.1 1.9s1 .9 1.7.9zm.2-2.4l1.5-3.1c.2-.3.5-.6.9-.6h13.5c.4 0 .7.2.9.6l1.5 3.1v.2c0 .1-.1.1-.2.1h-18c-.1 0-.2 0-.2-.1.1 0 .1-.1.1-.2z"/><path class="st0" d="M36 42h4c1.1 0 2-.9 2-2V29c1.1 0 2-.9 2-2v-4c0-1.1-.9-2-2-2h-2.3L35 13c-.7-1.2-2-2-3.5-2H16.3c-1.4 0-2.8.8-3.5 2l-4.6 8H6c-1.1 0-2 .9-2 2v4c0 1 .8 1.9 1.8 2 .1 0 .2.1.2.3V40c0 1.1.9 2 2 2h4c1.1 0 2-.9 2-2v-1.8c0-.1.1-.3.2-.3h19.5c.1 0 .2.1.2.3V40c.1 1.1 1 2 2.1 2zm-23-6c-.6 0-1 .4-1 1v2.8c0 .1-.1.2-.2.2H8.2c-.1 0-.2-.1-.2-.2V27.5c0-.3-.2-.5-.5-.5H6.2c-.1 0-.2-.1-.2-.2v-3.5c0-.2.1-.3.2-.3h2.6c.4 0 .7-.2.9-.5.4-.6.5-.8 4.8-8.5.4-.6 1-1 1.7-1h15.2c.7 0 1.4.4 1.7 1 4.3 7.5 4.5 7.7 5 8.5.2.3.5.5.9.5h2.6c.1 0 .2.1.2.2v3.5c0 .1-.1.2-.2.2H41c-.6 0-1 .4-1 1v11.8c0 .1-.1.2-.2.2h-3.5c-.1 0-.2-.1-.2-.2V37c0-.6-.4-1-1-1H13z"/><path class="st0" d="M47.4 11.1L25.4.3c-.9-.4-1.9-.4-2.8 0L.6 11.1c-.5.2-.7.8-.5 1.3.2.5.8.7 1.3.5l22-10.8c.3-.2.7-.2 1.1 0l22 10.8c.2.1.4.1.5.1.4 0 .7-.2.9-.6.2-.5 0-1.1-.5-1.3z"/></svg>