<svg xmlns="http://www.w3.org/2000/svg" viewBox="0 0 48 48"><path class="st0" d="M12 48c-.6 0-1-.4-1-1s.4-1 1-1c3.3 0 6-2.7 6-6V26.8c0-1-.8-1.8-1.8-1.8H16c-.6 0-1-.4-1-1s.4-1 1-1h.2c2.1 0 3.8 1.7 3.8 3.8V40c0 4.4-3.6 8-8 8zm21 0c-2.8 0-5-2.2-5-5V28.8c0-2.1 1.7-3.8 3.8-3.8h.2c.6 0 1 .4 1 1s-.4 1-1 1h-.2c-1 0-1.8.8-1.8 1.8V43c0 1.7 1.3 3 3 3 .6 0 1 .4 1 1s-.4 1-1 1z"/><path class="st0" d="M40.3 10.1c-.3-.1-.6-.3-.8-.6C38.5 6.8 36 5 33 5c-.9 0-1.8.2-2.6.5-.1 0-.3.1-.4.1-.4 0-.7-.2-.9-.6-1.5-3-4.5-5-8.1-5-4.7 0-8.6 3.6-9 8.2 0 .4-.3.8-.8.9-1.7.4-5.8 1.8-7 6.6-.1.3-.3.6-.6.7C1.5 17.4 0 19.5 0 22c0 3.4 2.8 6 6 6 .3 0 .6 0 .8-.1H7c.3 0 .6.1.8.4 1.5 2 3.7 3.3 6.1 3.6.2 0 .5.1.9.2.3.1.6 0 .8-.2.2-.2.4-.5.4-.8V31c0-.5-.4-.9-.9-1-.5-.1-1-.1-1.2-.1-1.8-.3-3.5-1.3-4.6-2.8-.6-.8-1.5-1.2-2.4-1.2h-1c-2.2 0-4-1.8-4-4 0-1.6 1-3.1 2.5-3.7.9-.4 1.5-1.1 1.8-2 .9-3.6 3.8-4.8 5.5-5.2 1.3-.3 2.2-1.4 2.3-2.7.3-3.5 3.4-6.3 7-6.3 2.7 0 5.1 1.5 6.3 3.9.5 1 1.5 1.7 2.7 1.7.4 0 .8-.1 1.1-.2.6-.3 1.3-.4 1.9-.4 2.1 0 3.9 1.2 4.7 3.2.4 1 1.3 1.7 2.4 1.9 3.4.5 6 3.5 6 6.9 0 2.9-1.8 5.6-4.6 6.6-.6.2-1.2.7-1.5 1.2-1.3 2-3.5 3.2-5.9 3.2h-.8c-.3 0-.6.1-.8.2-.2.2-.3.4-.4.7 0 .5.4 1 .9 1 .4 0 .7.1 1.1.1 3.2 0 6-1.7 7.6-4.1.1-.2.3-.3.5-.4 3.5-1.2 5.9-4.6 5.9-8.5-.1-4.5-3.4-8.3-7.8-8.9z"/></svg>