<svg xmlns="http://www.w3.org/2000/svg" viewBox="0 0 48 48"><path class="st0" d="M34 0H20.8c-.5 0-1 .2-1.4.6l-2.3 2.3s-.1.1-.2.1-.1 0-.2-.1l-1.4-1.4C15 1 14.5.8 14 .8s-1 .2-1.4.6L7 6.9c-.8.8-.9 2.2 0 3l1.4 1.4c.1.1.1.3 0 .4C6.8 13.2 6 15.2 6 17.3V42c0 3.3 2.7 6 6 6h24c3.3 0 6-2.7 6-6V8c0-4.4-3.6-8-8-8zm6 42c0 2.2-1.8 4-4 4H12c-2.2 0-4-1.8-4-4V17.3c0-1.6.6-3.1 1.7-4.2.9-.9.9-2.3 0-3.2L8.4 8.5c-.1-.1-.1-.1 0-.2L14 2.8l1.4 1.4c.4.4 1 .7 1.6.7.6 0 1.2-.2 1.6-.7L20.8 2H34c3.3 0 6 2.7 6 6v34z"/><path class="st0" d="M32.7 37.3c-.4-.4-1-.4-1.4 0-.4.4-.4 1 0 1.4l3 3c.2.2.5.3.7.3s.5-.1.7-.3c.4-.4.4-1 0-1.4l-3-3zm-18-18.7c.2.2.5.4.8.4.2 0 .5-.1.6-.2.4-.4.5-1 .1-1.4l-2.5-3c-.4-.4-1-.5-1.4-.1-.4.4-.5 1-.1 1.4l2.5 2.9zm.6 18.7l-3 3c-.4.4-.4 1 0 1.4.2.2.5.3.7.3s.5-.1.7-.3l3-3c.4-.4.4-1 0-1.4-.4-.4-1-.4-1.4 0zm20-23l-3 3c-.4.4-.4 1 0 1.4.2.2.5.3.7.3s.5-.1.7-.3l3-3c.4-.4.4-1 0-1.4-.4-.4-1-.4-1.4 0zM25 8h10c.6 0 1-.4 1-1s-.4-1-1-1H25c-.6 0-1 .4-1 1s.4 1 1 1zm3.2 23.7c-.8 1.1-2.1 1.7-3.4 1.7-2 0-3.7-1.4-4.5-3.5-.1-.3-.1-.6-.1-.9H25c.5 0 1-.5 1-1s-.5-1-1-1h-4.8c.2-1.9 1.2-3.3 2.8-4 .5-.2 1.1-.3 1.7-.3.8 0 2.3.2 3.4 1.6.7 1 2.5-.1 1.7-1.2-1.1-1.5-2.9-2.4-5-2.4-4 0-6.6 3.2-6.9 6.4H17c-.5 0-1 .5-1 1s.5 1 1 1h.9c.2 1.1.5 2.1 1.1 3 1.3 2.1 3.4 3.4 5.7 3.4 2.2 0 4.2-.9 5.3-2.5.8-1.3-.9-2.5-1.8-1.3z"/></svg>