<svg xmlns="http://www.w3.org/2000/svg" viewBox="0 0 48 48"><path class="st0" d="M41 28.6c.1.1.1.1.1.2.4.5.5 1.1.4 1.7-.8 3.7-2.7 7-5.4 9.7-7.8 7.8-20.5 7.8-28.3 0C0 32.4 0 19.7 7.8 11.9c2.7-2.7 6-4.5 9.7-5.4.6-.1 1.2 0 1.7.4.1 0 .1.1.2.1.4.4.6.9.6 1.5V25c0 .8.3 1.6.9 2.1.6.6 1.3.9 2.1.9h16.5c.6 0 1.1.2 1.5.6m1.4-1.4c-.7-.7-1.8-1.2-2.8-1.2H23c-.3 0-.5-.1-.7-.3-.2-.2-.3-.4-.3-.7V8.5c0-1.1-.4-2.1-1.2-2.8l-.3-.3c-.9-.8-2.2-1-3.4-.8-3.9.9-7.6 2.9-10.7 5.9-8.5 8.5-8.5 22.5 0 31.1s22.5 8.6 31.1 0c3-3 5-6.8 5.9-10.7.3-1.2 0-2.4-.8-3.4 0-.1-.1-.2-.2-.3z"/><path class="st0" d="M40.1 7.9c3.1 3.1 5.1 7.2 5.7 11.6 0 .1 0 .3-.1.4-.1.1-.2.2-.4.2H28.5c-.1 0-.3-.1-.4-.1-.1-.1-.1-.2-.1-.4V2.7c0-.1.1-.3.2-.4.1-.1.3-.1.4-.1 4.3.5 8.3 2.4 11.5 5.7m1.5-1.5C37.8 2.7 33.1.5 28.2 0c-.6-.1-1.1.1-1.5.5-.5.4-.7.9-.7 1.5v18c0 .5.2 1 .6 1.4s.9.6 1.4.6h18c.6 0 1.1-.2 1.5-.7.4-.4.6-1 .5-1.5-.5-4.9-2.7-9.6-6.4-13.4z"/></svg>