<svg xmlns="http://www.w3.org/2000/svg" viewBox="0 0 48 48"><path class="st0" d="M11.1 15.3c.6.4 1.2.6 1.9.7h.6c1.1 0 2.3-.4 3.1-1.3 1.3-1.3 1.6-3.2.9-4.8v-.1c-.2-.5-.5-.9-.9-1.3-.1-.1-.2-.1-.2-.2 0 0-.1 0-.1-.1-.8-.7-1.8-1-2.8-1-1.1 0-2.3.4-3.1 1.3-1.7 1.7-1.7 4.5 0 6.3.2.2.4.3.6.5zm.8-5.4c.5-.5 1.1-.7 1.7-.7.5 0 .9.2 1.3.4.1.1.3.2.4.3.4.4.6.9.7 1.5.1.7-.2 1.4-.7 2-.4.4-.8.6-1.3.7h-.4c-.6 0-1.2-.2-1.6-.6h-.2c-.9-1.1-.9-2.7.1-3.6z"/><path class="st0" d="M9.1 23.1v.2c.5 3.5 2.1 6.6 4.4 8.9.5.5 1 .9 1.5 1.4 2.7 2.2 6.2 3.5 9.9 3.5 8.8 0 16-7.2 16-16 0-3.7-1.3-7.2-3.4-9.9-.4-.5-.9-1-1.4-1.5C33.3 6.7 29.4 5 25 5c-.4 0-.9 0-1.3.1-.4-.6-.8-1.1-1.2-1.5C20.2 1.2 17.2 0 14 0S7.8 1.2 5.5 3.5C3 6 1.8 9.4 2 12.9c.3 3.5 2 6.6 4.7 8.6.7.5 1.5 1 2.4 1.3v.3zM25 7c3.8 0 7.2 1.5 9.8 4 .5.5 1 1 1.4 1.5 1.8 2.4 2.9 5.3 2.9 8.5 0 7.7-6.3 14-14 14-3.2 0-6.1-1.1-8.5-2.9-.5-.4-1-.9-1.5-1.4-1.9-1.9-3.2-4.3-3.7-7v-.2c.3.1.7.1 1 .2 1.7.3 3.7.5 5.9.5 3.3 0 5.9-.4 6.1-.4l1.5-.2.2-1.5c.4-2.5 1.1-9.7-1.1-15 0 0 0-.1-.1-.1v-.1h.1zM6.9 4.9C8.9 3 11.4 2 14 2c2.6 0 5.1 1 7.1 2.9.2.2.3.3.4.5.1.1.2.2.2.3.3.4.6.9.9 1.5 0 .1.1.2.1.3 1.9 4.2 1.7 10.4 1.1 14.4 0 0-2.6.4-5.8.4-2 0-4.1-.1-6.1-.6-.7-.2-1.4-.4-2-.6-.8-.3-1.5-.7-2.1-1.2-4.5-3.4-5.3-10.5-.9-15z"/><path class="st0" d="M46 21c0-5.1-1.8-9.8-4.9-13.5l3.3-3.3c.4-.4.4-1 0-1.4-.4-.4-1-.4-1.4 0L39.7 6l-1.4 1.4-.7.7c-.4.4-.4 1 0 1.4l.1.1c.2.2.4.3.7.3.3 0 .5-.1.7-.3l.6-.6c2.7 3.3 4.3 7.5 4.3 12 0 10.5-8.5 19-19 19-4.6 0-8.8-1.6-12.1-4.3l.6-.6c.2-.2.3-.5.3-.7 0-.3-.1-.5-.3-.7-.4-.4-1-.4-1.4 0l-.7.7-1.4 1.3-2.5 2.5c-.4.4-.4 1 0 1.4.4.4 1 .4 1.4 0l2.6-2.6c3.4 3 7.8 4.7 12.5 5v4h-4c-.5 0-1 .4-1 1 0 .5.4 1 1 1h10c.5 0 1-.4 1-1 0-.5-.4-1-1-1h-4v-4.1c11.1-.5 20-9.6 20-20.9z"/></svg>