<svg xmlns="http://www.w3.org/2000/svg" viewBox="0 0 48 48"><path class="st0" d="M24 0C10.7 0 0 10.7 0 24s10.7 24 24 24 24-10.7 24-24S37.3 0 24 0zm0 46C11.9 46 2 36.1 2 24S11.9 2 24 2s22 9.9 22 22-9.9 22-22 22z"/><circle class="st0" cx="22.8" cy="35.6" r="1.5"/><path class="st0" d="M29.9 12.8c-1.8-1.5-4.6-2-7.1-1.3-1.8.5-3.5 1.6-4.5 3.2-.4.6-.2 1.3.3 1.7.6.4 1.4.3 1.8-.3 1.5-1.9 3.9-2.7 6.1-2 .5.2 1 .4 1.4.8.4.3.7.8 1 1.3.7 1.5.5 3.7-1.4 5.2-1.8 1.5-4 2.2-5.3 4.4-.8 1.3-.8 2.5-.8 5.1 0 .7.6 1.3 1.3 1.3.7 0 1.2-.6 1.2-1.3 0-2.8 0-3.6 1.3-5.1 1.7-1.9 5-2.1 6.4-5.5.2-.6.4-1.4.4-2.3.1-2.4-.7-4.1-2.1-5.2z"/></svg>