<svg xmlns="http://www.w3.org/2000/svg" viewBox="0 0 48 48"><path class="st0" d="M46 47c0 .5-.5 1-1 1H3c-.5 0-1-.5-1-1s.5-1 1-1h42c.5 0 1 .5 1 1zm1.4-35.9L25.4.3c-.9-.4-1.9-.4-2.8 0L.6 11.1c-.5.2-.7.8-.5 1.3.2.5.8.7 1.3.5l22-10.8c.3-.2.7-.2 1.1 0l22 10.8c.2.1.4.1.5.1.4 0 .7-.2.9-.6.2-.5 0-1.1-.5-1.3zM12 34H8c-2.2 0-4 1.8-4 4v5c0 .5.5 1 1 1s1-.5 1-1v-5c0-1.1.9-2 2-2h4c1.1 0 2 .9 2 2v5c0 .5.5 1 1 1s1-.5 1-1v-5c0-2.2-1.8-4-4-4zm28-16h-4c-2.2 0-4 1.8-4 4v21c0 .5.5 1 1 1s1-.5 1-1V22c0-1.1.9-2 2-2h4c1.1 0 2 .9 2 2v21c0 .5.5 1 1 1s1-.5 1-1V22c0-2.2-1.8-4-4-4zm-14 8h-4c-2.2 0-4 1.8-4 4v13c0 .5.5 1 1 1s1-.5 1-1V30c0-1.1.9-2 2-2h4c1.1 0 2 .9 2 2v13c0 .5.5 1 1 1s1-.5 1-1V30c0-2.2-1.8-4-4-4z"/><path class="st0" d="M29 10h-6c-.6 0-1 .4-1 1s.4 1 1 1h3.6l-15.2 9.1c-.5.3-.6.9-.3 1.4.2.3.5.5.9.5.2 0 .4 0 .5-.1L28 13.5V17c0 .6.4 1 1 1s1-.4 1-1v-6c0-.6-.4-1-1-1z"/></svg>