<svg xmlns="http://www.w3.org/2000/svg" viewBox="0 0 48 48"><path class="st0" d="M47 46h-5V15c0-.5-.5-1-1-1-.6 0-1 .5-1 1v31h-8V26c0-1.1-.9-2-2-2H18c-1.1 0-2 .9-2 2v20H8V15c0-.5-.5-1-1-1-.6 0-1 .5-1 1v31H1c-.5 0-1 .5-1 1s.5 1 1 1h46c.5 0 1-.5 1-1s-.5-1-1-1zm-29 0V26.5c0-.3.2-.5.5-.5h11c.3 0 .5.2.5.5V34h-3c-.6 0-1 .4-1 1s.4 1 1 1h3v10H18zM1.4 12.9l22-10.8c.3-.2.7-.2 1.1 0l22 10.8c.2.1.4.1.5.1.4 0 .7-.2.9-.6.2-.5 0-1.1-.5-1.3L25.4.3c-.9-.4-1.9-.4-2.8 0L.6 11.1c-.5.2-.7.8-.5 1.3.2.5.8.7 1.3.5z"/></svg>