<svg xmlns="http://www.w3.org/2000/svg" viewBox="0 0 48 48"><path class="st0" d="M31.3 8.1c-.2-.2-.5-.3-.8-.3-.3 0-.6.2-.7.4-.3.4-.3.9.1 1.3 1.4 1.4 2.2 3.4 2.2 5.5 0 1.7-.5 3.3-1.5 4.6-.3.4-.2.8 0 1.2.2.2.5.4.8.4.3 0 .6-.2.8-.4 1.2-1.6 1.9-3.7 1.9-5.8-.1-2.7-1.1-5.1-2.8-6.9zM18.1 9.6c.3-.4.4-.9.1-1.3-.2-.3-.5-.4-.7-.4-.3 0-.6.1-.8.3C15 10 14 12.4 14 15c0 2.1.7 4.1 1.8 5.7.2.3.5.4.8.4.3 0 .6-.1.8-.4.3-.3.3-.8 0-1.2-.9-1.2-1.4-2.8-1.4-4.5 0-2.1.8-4 2.1-5.4z"/><path class="st0" d="M33.6 4.8c-.2-.2-.4-.3-.7-.2-.3 0-.5.1-.6.3l-.1.1c-.3.4-.2 1 .1 1.3C34.6 8.5 36 11.6 36 15c0 3-1.1 5.7-2.9 7.8-.3.4-.3.9 0 1.3v.1c.2.2.4.4.7.4.3 0 .5-.1.7-.3 2.1-2.5 3.4-5.7 3.4-9.2.1-4.1-1.6-7.7-4.3-10.3zm-18 1.6c.4-.3.4-.9.1-1.3l-.1-.2c-.1-.2-.3-.3-.6-.3-.2 0-.4.1-.6.2C11.7 7.3 10 11 10 15c0 3.5 1.3 6.7 3.4 9.1.2.2.5.3.7.3.3 0 .5-.1.7-.4l.1-.1c.3-.4.3-.9 0-1.3C13.1 20.7 12 18 12 15c0-3.4 1.4-6.4 3.6-8.6z"/><path class="st0" d="M36.1 1.7c-.2-.2-.5-.3-.7-.2-.3 0-.5.2-.7.4V2c-.3.4-.3 1 .1 1.3C38 6.1 40 10.3 40 15c0 4.2-1.7 8.1-4.4 11-.3.4-.4.9-.1 1.3.2.2.5.4.7.4.3 0 .6-.1.8-.3 3-3.2 4.9-7.6 4.9-12.3C42 9.7 39.7 5 36.1 1.7zM13.2 3.2c.4-.3.4-.9.1-1.3l-.1-.1c-.2-.2-.4-.3-.7-.4-.3 0-.5.1-.7.2C8.2 5 6 9.8 6 15c0 4.8 1.9 9.1 4.9 12.3.2.2.5.3.7.3.3 0 .5-.1.7-.4v-.1c.3-.4.3-.9-.1-1.3C9.6 23.1 8 19.2 8 15c0-4.7 2-8.9 5.2-11.8zM25 10h-2c-1.1 0-2 .9-2 2v15c0 .6.4 1 1 1s1-.4 1-1V12.2c0-.1.1-.2.2-.2h1.5c.1 0 .2.1.2.2V27c0 .6.4 1 1 1s1-.4 1-1V12c.1-1.1-.8-2-1.9-2zm5 29c0 .5-.4 1-1 1h-2c-.5 0-1-.4-1-1 0-.5.4-1 1-1h2c.6 0 1 .4 1 1zm-13-5c.5 0 1 .4 1 1v6c0 .5-.4 1-1 1-.5 0-1-.4-1-1v-6c0-.6.4-1 1-1zm19 5c0 .5-.4 1-1 1h-2c-.5 0-1-.4-1-1 0-.5.4-1 1-1h2c.6 0 1 .4 1 1zm6 0c0 .5-.4 1-1 1h-2c-.5 0-1-.4-1-1 0-.5.4-1 1-1h2c.6 0 1 .4 1 1z"/><path class="st0" d="M46 35.3v8.2c0 .3-.2.5-.5.5h-43c-.3 0-.5-.2-.5-.5v-11c0-.3.2-.5.5-.5h43c.3 0 .5.2.5.5v2.8zm0-5.3H2c-1.1 0-2 .9-2 2v12c0 1.1.9 2 2 2h44c1.1 0 2-.9 2-2V32c0-1.1-.9-2-2-2z"/></svg>