<svg xmlns="http://www.w3.org/2000/svg" viewBox="0 0 48 48"><path class="st0" d="M24 12c2.2 0 4 1.8 4 4s-1.8 4-4 4-4-1.8-4-4 1.8-4 4-4m0-2c-3.3 0-6 2.7-6 6s2.7 6 6 6 6-2.7 6-6-2.7-6-6-6z"/><path class="st0" d="M24 2c7.7 0 14 6.3 14 14 0 6.1-3.9 11.3-9.4 13.2-.9.3-1.5 1-1.7 1.9-.2.9.1 1.8.7 2.5l.1.1c.2.2.3.4.3.7v1.2c0 .3-.1.5-.3.7l-1.3 1.3c-.8.8-.8 2 0 2.8l1.3 1.3c.2.2.3.4.3.7v.6c0 .3-.2.6-.4.8l-2.5 1.8c-.3.3-.8.4-1.2.4-.4 0-.9-.1-1.2-.4l-1.9-1.5c-.5-.4-.8-1-.8-1.6V30.8c0-.8-.5-1.6-1.2-1.9-5.1-2.1-8.8-7.1-8.8-13C10 8.3 16.3 2 24 2m0-2C15.2 0 8 7.2 8 16c0 6.6 3.9 12.4 10 14.8v11.7c0 1.2.6 2.4 1.6 3.2l1.9 1.5c.7.5 1.6.8 2.5.8.9 0 1.7-.3 2.4-.8l2.5-1.8c.8-.6 1.2-1.5 1.2-2.4v-.5c0-.8-.3-1.6-.9-2.1L28 39.2c-.1-.1-.1-.2 0-.3l1.1-1.1c.6-.6.9-1.3.9-2.1v-1.2c0-.8-.3-1.6-.9-2.1l-.1-.2c-.2-.2-.2-.4-.2-.6 0-.2.2-.4.4-.5C35.7 28.9 40 22.8 40 16c0-8.8-7.2-16-16-16z"/></svg>