<svg xmlns="http://www.w3.org/2000/svg" viewBox="0 0 48 48"><path class="st0" d="M24 18c-2.2 0-4 1.8-4 4s1.8 4 4 4 4-1.8 4-4-1.8-4-4-4zm0 6c-1.1 0-2-.9-2-2s.9-2 2-2 2 .9 2 2-.9 2-2 2z"/><path class="st0" d="M43 28h-9.8c2.3-2.3 3.7-5.5 3.7-9.1 0-1.2-.2-2.3-.4-3.3 3.2-1 5.5-4.1 5.5-7.6 0-4.4-3.6-8-8-8-3.8 0-6.9 2.6-7.8 6.2-.2 0-.4-.1-.7-.1-.1 0-.3 0-.4-.1-.4 0-.8-.1-1.3-.1-.4 0-.8 0-1.2.1h-.4c-.2 0-.3 0-.5.1C20.9 2.6 17.8 0 14 0 9.6 0 6 3.6 6 8c0 3.5 2.2 6.4 5.3 7.5-.3 1.1-.5 2.2-.5 3.4 0 .9.1 1.8.3 2.6 0 .1.1.3.1.4.1.3.1.6.2.8.1.2.2.5.3.7.1.1.1.3.2.4.1.3.3.6.4.9 0 .1.1.1.1.2.2.4.4.7.6 1 .5.7 1 1.3 1.5 1.9H5c-2.8 0-5 2.2-5 5s2.2 5 5 5h1c.6 0 1-.4 1-1s-.4-1-1-1H5c-1.7 0-3-1.3-3-3s1.3-3 3-3h12.1s-.1 0-.1-.1c2 1.3 4.4 2 6.9 2s4.9-.7 6.9-2h-.1H43c1.7 0 3 1.3 3 3s-1.3 3-3 3h-1c-.6 0-1 .4-1 1s.4 1 1 1h1c2.8 0 5-2.2 5-5S45.8 28 43 28zM34 2c3.3 0 6 2.7 6 6 0 2.7-1.8 5-4.2 5.7 0 0 0-.1-.1-.1-.2-.3-.3-.7-.5-1-.1-.1-.1-.2-.2-.4s-.3-.5-.5-.7c-.1-.1-.2-.3-.3-.4-.2-.2-.3-.4-.5-.6l-.4-.4-.3-.3-.2-.2-.4-.4c-.2-.2-.3-.3-.5-.4-.2-.1-.3-.2-.5-.4s-.4-.3-.6-.4c-.2-.1-.3-.2-.5-.3-.2-.1-.4-.2-.7-.4-.2-.1-.3-.2-.5-.2-.1-.1-.4-.2-.7-.3-.1 0-.2-.1-.3-.1C28.8 4 31.1 2 34 2zM8 8c0-3.3 2.7-6 6-6 2.8 0 5.2 2 5.8 4.6h-.1c-.4.1-.8.3-1.1.4-.1 0-.2.1-.3.1-.3.1-.6.3-.9.4-.1.1-.2.1-.4.2-.2.2-.5.3-.7.5-.1.1-.3.2-.4.3-.2.2-.4.3-.6.5-.1.1-.2.2-.4.3l-.6.6c-.1.1-.2.2-.3.4-.2.2-.3.4-.5.6-.1.1-.2.3-.3.4-.2.2-.3.4-.4.7-.1.2-.2.3-.3.5-.1.2-.2.5-.3.7-.1.1-.1.3-.2.4-2.3-.8-4-3-4-5.6zm7.7 21c.1 0 .1.1.2.1-.1 0-.1 0-.2-.1zm1.8-1.1c-.3-.2-.5-.4-.8-.6-.1-.1-.2-.2-.3-.2l-.6-.6c-.1-.1-.2-.2-.2-.3-.2-.2-.4-.5-.6-.7l-.2-.2c-.2-.3-.4-.7-.6-1 0 0 0-.1-.1-.1-.2-.3-.3-.6-.5-1-.1-.1-.1-.3-.1-.4-.1-.3-.2-.5-.3-.8 0-.1-.1-.3-.1-.4-.1-.3-.1-.5-.2-.8 0-.1-.1-.3-.1-.4 0-.4-.1-.7-.1-1.1v-.1c0-1 .2-2 .4-3 .1-.2.2-.5.2-.7.1-.1.1-.3.2-.4l.3-.6c.1-.1.1-.2.2-.3l.3-.6c.1-.1.1-.2.2-.3.1-.2.2-.3.4-.5.1-.1.2-.2.2-.3.1-.2.3-.3.4-.5l.3-.3c.1-.2.3-.3.4-.4l.3-.3c.2-.1.3-.3.5-.4.1-.1.2-.1.3-.2.2-.1.4-.3.6-.4.1-.1.2-.1.3-.2l.6-.3c.1 0 .2-.1.3-.1.2-.1.4-.2.7-.3.1 0 .2-.1.3-.1.2-.1.4-.1.6-.2.2 0 .3-.1.5-.1s.4-.1.6-.1c.1 0 .2 0 .4-.1.3-.5.5-.5.7-.5.3 0 .7-.1 1-.1.4 0 .8 0 1.1.1.7.1 1.4.2 2.1.4l.9.3c.3.1.5.2.8.3.1 0 .1.1.2.1l.6.3c.1.1.2.1.3.2.2.1.3.2.5.4.1.1.2.2.3.2.2.1.3.2.4.4l.3.3.4.4.3.3c.1.1.2.3.4.4.1.1.2.2.3.4.1.1.2.3.3.4.1.1.2.3.3.4.1.2.2.3.3.5.1.1.1.3.2.4l.3.6c0 .1.1.2.1.4.1.2.2.5.2.7.3 1 .4 2 .4 3 0 .4 0 .9-.1 1.3v.3c0 .3-.1.6-.2.9 0 .1-.1.2-.1.3l-.3.9c0 .1-.1.2-.1.3-.2.4-.3.7-.5 1.1-.2.4-.4.7-.7 1.1l-.2.2c-.2.2-.4.5-.6.7l-.3.3-.6.6-.3.3c-.2.2-.4.3-.6.5-1.8 1.4-4.1 2.2-6.5 2.2-2.3.1-4.5-.6-6.3-1.9zM32 29.1z"/><path class="st0" d="M15 34c-3.9 0-7 3.1-7 7s3.1 7 7 7 7-3.1 7-7-3.1-7-7-7zm0 12c-2.8 0-5-2.2-5-5s2.2-5 5-5 5 2.2 5 5-2.2 5-5 5zm18-12c-3.9 0-7 3.1-7 7s3.1 7 7 7 7-3.1 7-7-3.1-7-7-7zm0 12c-2.8 0-5-2.2-5-5s2.2-5 5-5 5 2.2 5 5-2.2 5-5 5z"/></svg>