<svg xmlns="http://www.w3.org/2000/svg" viewBox="0 0 48 48"><path class="st0" d="M33 6c-.5 0-1 .5-1 1v4c0 .5.5 1 1 1s1-.5 1-1V7c0-.5-.5-1-1-1zm0 24c.5 0 1-.5 1-1v-6c0-.5-.5-1-1-1s-1 .5-1 1v6c0 .5.5 1 1 1z"/><path class="st0" d="M36-.1H12c-2.2 0-4 1.8-4 4v36c0 2.2 1.8 4 4 4v2c0 1.1.9 2 2 2h4c1.1 0 2-.9 2-2v-2h8v2c0 1.1.9 2 2 2h4c1.1 0 2-.9 2-2v-2c2.2 0 4-1.8 4-4v-36c0-2.2-1.8-4-4-4zM18 45.4c0 .3-.2.5-.5.5h-3c-.3 0-.5-.2-.5-.5v-1.5h4v1.5zm16 0c0 .3-.2.5-.5.5h-3c-.3 0-.5-.2-.5-.5v-1.5h4v1.5zm4-5.5c0 1.1-.9 2-2 2H12c-1.1 0-2-.9-2-2v-22h28v22zm-28-24v-12c0-1.1.9-2 2-2h24c1.1 0 2 .9 2 2v12H10z"/></svg>