<svg xmlns="http://www.w3.org/2000/svg" viewBox="0 0 48 48"><path class="st0" d="M41.5 25.6l-5.1-24c-.2-.9-1-1.6-2-1.6H13.6c-1 0-1.8.7-2 1.6l-5.1 24c-.1.6 0 1.2.4 1.7s1 .7 1.6.7h31.1c.6 0 1.2-.3 1.6-.7.3-.5.4-1.1.3-1.7zm-2.2.2c-.1.1-.2.2-.4.2H9.1c-.2 0-.3-.1-.4-.2-.1-.1-.1-.3-.1-.4l4.9-23c.1-.2.3-.4.5-.4h20c.2 0 .4.2.5.4l.9 4.3 4 18.7c0 .1 0 .3-.1.4zM34 30.9c0-.5-.5-.9-1-.9 0 0-.5.1-.7.3-.2.2-.3.5-.3.7v.9c0 4.2-4.1 8.5-4.1 8.5-.7.8-.6 1.5.3 1.5.9 0 1.7.9 1.7 2s-.9 2-2 2h-8c-1.1 0-2-.9-2-2s.8-2 1.7-2c.9 0 1.1-.7.3-1.5 0 0-4-4.4-4-8.5 0 0 0-.6.1-1.2 0-.2 0-.4-.2-.5 0-.2-.2-.2-.4-.2H15c-.5 0-.9.4-1 .9 0 .6-.1 1.1-.1 1.1 0 3.6 2.2 7 3.6 8.7-1 .7-1.6 1.9-1.6 3.3 0 2.3 1.8 4 4 4h8c2.2 0 4-1.8 4-4 0-1.4-.6-2.6-1.6-3.3 1.3-1.8 3.6-5.2 3.6-8.7.1-.4.1-.8.1-1.1z"/><path class="st0" d="M24 8c-.6 0-1 .4-1 1v11c0 .6.4 1 1 1s1-.4 1-1V9c0-.6-.4-1-1-1zm6.8 0c-.5.1-.9.6-.8 1.2l2 11c.1.5.5.8 1 .8h.2c.5-.1.9-.6.8-1.2l-2-11c-.1-.5-.6-.9-1.2-.8zM17.2 8c-.5-.1-1.1.3-1.2.8l-2 11c-.1.5.3 1.1.8 1.2h.2c.5 0 .9-.3 1-.8l2-11c.1-.6-.3-1.1-.8-1.2z"/></svg>