<svg xmlns="http://www.w3.org/2000/svg" viewBox="0 0 48 48"><path class="st0" d="M19 42H5c-.5 0-1-.5-1-1V3c0-.5.5-1 1-1h30c.5 0 1 .5 1 1v16c0 .6.4 1 1 1s1-.4 1-1V2c0-1.1-.9-2-2-2H4C2.9 0 2 .9 2 2v40c0 .8.5 1.6 1.2 1.8.3.2.5.2.8.2h15c.6 0 1-.4 1-1s-.4-1-1-1z"/><path class="st0" d="M32 9c0-.5-.5-1-1-1H9c-.5 0-1 .5-1 1s.5 1 1 1h22c.5 0 1-.5 1-1zm-2 6c0-.5-.5-1-1-1H9c-.5 0-1 .5-1 1s.5 1 1 1h20c.5 0 1-.5 1-1zm-4 6c0-.5-.5-1-1-1H9c-.5 0-1 .5-1 1s.5 1 1 1h16c.5 0 1-.5 1-1zm-8 6c0-.5-.5-1-1-1H9c-.5 0-1 .5-1 1s.5 1 1 1h8c.5 0 1-.5 1-1zm-9 5c-.5 0-1 .5-1 1s.5 1 1 1h6c.5 0 1-.5 1-1s-.5-1-1-1H9zm29-7.3c-.6-.2-1.3-.4-2-.5-.7-.1-1.3-.2-2-.2-6.6 0-12 5.4-12 12 0 2.2.6 4.2 1.6 6 .4.7.9 1.4 1.5 2 2.2 2.5 5.4 4 9 4 6.6 0 12-5.4 12-12-.1-5.2-3.4-9.7-8.1-11.3zM34 46c-2.2 0-4.3-.7-6-2-.8-.6-1.4-1.2-2-2-1.3-1.7-2-3.8-2-6 0-5.5 4.5-10 10-10 .7 0 1.4.1 2 .2.7.1 1.4.4 2 .6 3.5 1.5 6 5.1 6 9.2 0 5.5-4.5 10-10 10z"/><path class="st0" d="M38.2 31.4l-5.4 8.1-3.2-2.4c-.4-.3-1.1-.2-1.4.2-.3.4-.2 1.1.2 1.4l4 3c.2.1.4.2.6.2h.2c.3 0 .5-.2.7-.4l6-9c.3-.5.2-1.1-.3-1.4-.5-.2-1.1-.1-1.4.3z"/></svg>