<svg xmlns="http://www.w3.org/2000/svg" viewBox="0 0 48 48"><path class="st0" d="M30 39c0 .5-.5 1-1 1H19c-.5 0-1-.5-1-1s.5-1 1-1h10c.5 0 1 .5 1 1zm0 4c0 .5-.5 1-1 1H19c-.5 0-1-.5-1-1s.5-1 1-1h10c.5 0 1 .5 1 1zm-10 4c0-.5.5-1 1-1h6c.5 0 1 .5 1 1s-.5 1-1 1h-6c-.5 0-1-.5-1-1zm4-47C15.2 0 8 7.2 8 16c0 4.8 2.1 9.1 5.5 12 2.2 1.9 3.6 4.4 4.2 7.2.1.5.5.8 1 .8.3 0 .6-.1.8-.4.2-.2.3-.5.2-.8-.7-3.2-2.4-6.1-4.9-8.2C11.8 23.9 10 20 10 16c0-7.7 6.3-14 14-14s14 6.3 14 14c0 4-1.8 7.9-4.8 10.5-2.5 2.2-4.2 5.1-4.9 8.2-.1.3 0 .6.2.8.2.2.5.4.8.4.5 0 .9-.3 1-.8.6-2.8 2.1-5.3 4.2-7.2 3.4-2.9 5.5-7.2 5.5-12C40 7.2 32.8 0 24 0z"/></svg>