<svg xmlns="http://www.w3.org/2000/svg" viewBox="0 0 48 48"><path class="st0" d="M44.5 3.5c-4.7-4.7-12.3-4.7-17 0l-9.9 9.9c-4.4 4.4-4.7 11.4-.7 16.1.2.2.4.3.7.4.3 0 .6-.1.8-.3 0 0 .4-.9.1-1.3-3.3-3.9-3.1-9.8.6-13.5L29 4.9C32.8 1 39.2 1 43.1 4.9 47 8.8 47 15.1 43.1 19l-5.7 5.7c-.2.2-.3.4-.3.7 0 .3.1.5.3.7.4.4 1 .4 1.4 0l5.7-5.7c4.7-4.6 4.7-12.2 0-16.9z"/><path class="st0" d="M31.1 18.4c-.2-.2-.4-.3-.7-.3s-.5.1-.7.3c-.4.4-.4.9-.1 1.3 3.3 3.9 3.1 9.8-.6 13.5l-9.9 9.9C15.2 47 8.8 47 4.9 43.1 1 39.2 1 32.8 4.9 28.9l5.7-5.7c.2-.2.3-.4.3-.7 0-.3-.1-.5-.3-.7-.4-.4-1-.4-1.4 0l-5.7 5.7c-4.7 4.7-4.7 12.3 0 17 4.7 4.7 12.3 4.7 17 0l9.9-9.9c4.4-4.4 4.6-11.5.7-16.2z"/></svg>