<svg xmlns="http://www.w3.org/2000/svg" viewBox="0 0 48 48"><path class="st0" d="M29 31c0-2.8-2.2-5-5-5s-5 2.2-5 5c0 1.5.7 2.9 1.8 3.8l-1.4 4.6c-.2.6-.1 1.3.3 1.8s1 .8 1.6.8h5.3c.6 0 1.2-.3 1.6-.8.4-.5.5-1.2.3-1.8l-1.4-4.6c1.2-.9 1.9-2.3 1.9-3.8zm-3.9 3.9l1.5 5.1h-5c-.1 0-.2 0-.2-.1s-.1-.1 0-.2l1.4-4.8c.2-.5-.1-1.1-.5-1.4C21.5 33 21 32 21 31c0-1.7 1.3-3 3-3s3 1.3 3 3c0 1-.5 2-1.4 2.5-.4.3-.6.9-.5 1.4z"/><path class="st0" d="M36 20v-8c0-6.6-5.4-12-12-12S12 5.4 12 12v3c0 .6.4 1 1 1s1-.4 1-1v-3c0-5.5 4.5-10 10-10s10 4.5 10 10v8H12c-2.2 0-4 1.8-4 4v20c0 2.2 1.8 4 4 4h24c2.2 0 4-1.8 4-4V24c0-2.2-1.8-4-4-4zm0 26H12c-1.1 0-2-.9-2-2v-5h3c.5 0 1-.5 1-1s-.5-1-1-1h-3v-4h3c.5 0 1-.5 1-1s-.5-1-1-1h-3v-7c0-1.1.9-2 2-2h24c1.1 0 2 .9 2 2v7h-3c-.5 0-1 .5-1 1s.5 1 1 1h3v4h-3c-.5 0-1 .5-1 1s.5 1 1 1h3v5c0 1.1-.9 2-2 2z"/></svg>