<svg xmlns="http://www.w3.org/2000/svg" viewBox="0 0 48 48"><path class="st0" d="M12.1 26.5l-7.4 7.4c-.2.2-.3.5-.3.7 0 .3.1.5.3.7.4.3 1 .3 1.4 0l7.4-7.4c.2-.2.3-.5.3-.7 0-.3-.1-.5-.3-.7-.4-.4-1-.4-1.4 0z"/><path class="st0" d="M46 8H2c-1.1 0-2 .9-2 2v28c0 1.1.9 2 2 2h44c1.1 0 2-.9 2-2V10c0-1.1-.9-2-2-2zm-1.7 2L25.2 27.6c-.7.6-1.7.6-2.4 0L3.7 10h40.6zm1.5 28H2.2c-.1 0-.2-.1-.2-.2V11.2L21.5 29c.7.7 1.6 1 2.5 1s1.8-.3 2.5-1L46 11.2v26.6c0 .1-.1.2-.2.2z"/><path class="st0" d="M35.9 26.5c-.4-.4-1-.4-1.4 0-.2.2-.3.4-.3.7 0 .3.1.5.3.7l7.4 7.4c.4.4 1 .4 1.4 0 .2-.2.3-.4.3-.7 0-.3-.1-.5-.3-.7l-7.4-7.4z"/></svg>