<svg xmlns="http://www.w3.org/2000/svg" viewBox="0 0 48 48"><path class="st0" d="M47.9 38.8l-4.8-13.5c-.2-.6-.8-1.1-1.4-1.3-.1 0-.3-.1-.4-.1-.5 0-1 .2-1.4.6l-5.9 6-2-1.7c-.4-.3-.9-.3-1.3 0-.2.2-.3.5-.3.7 0 .3.1.5.3.7l1.9 1.7.5.5 1.8 12.8-9.9-6v-3.9c0-.5-.4-1-1-1s-1 .4-1 1v3.9l-9.8 6L15 32.5l.5-.4 2-1.7c.2-.2.3-.4.3-.7 0-.3-.1-.5-.3-.7-.4-.4-.9-.4-1.3 0l-1.9 1.7-5.9-6c-.6-.5-1.1-.7-1.6-.7h-.4c-.7.1-1.2.6-1.4 1.3L.1 38.8c-.3.9 0 1.8.8 2.3L11 47.7c.3.2.7.3 1.1.3.4 0 .7-.1 1-.3L24 41.1l10.9 6.6c.3.2.7.3 1 .3.4 0 .8-.1 1.1-.3l10.1-6.5c.8-.6 1.1-1.5.8-2.4zm-36.8 6.6L2 39.5 6.8 26l5.9 6 .3.3-1.9 13.1zm25.8-.1l-1.8-13.1.2-.2 5.9-6L46 39.5l-9.1 5.8z"/><path class="st0" d="M24 32c5.3-4 13.3-11.7 13.3-18.7C37.3 6 31.4 0 24 0 15.6 0 9.7 7.6 10.8 15 11.9 23.1 24 32 24 32zm0-30c6.2 0 11.3 5.1 11.3 11.3 0 .3 0 .7-.1 1-.5 3.7-3.6 7.9-7.2 11.5-1.3 1.3-2.7 2.5-4.1 3.6-3.7-3-10.5-9.4-11.2-14.7-.5-3.1.5-6.3 2.6-8.8 1.9-2.2 4.5-3.6 7.4-3.9H24z"/><path class="st0" d="M24 18.4c3.3 0 5.9-2.7 5.9-5.9 0-3.3-2.7-5.9-5.9-5.9-3.3 0-5.9 2.6-5.9 5.9 0 3.3 2.6 5.9 5.9 5.9zm0-9.8c2.2 0 3.9 1.8 3.9 3.9 0 2.2-1.8 3.9-3.9 3.9-2.2 0-3.9-1.8-3.9-3.9 0-2.2 1.7-3.9 3.9-3.9z"/></svg>