<?xml version="1.0" encoding="UTF-8"?>
<svg width="36px" height="22px" viewBox="0 0 36 22" version="1.1" xmlns="http://www.w3.org/2000/svg" xmlns:xlink="http://www.w3.org/1999/xlink">
    <!-- Generator: Sketch 39.1 (31720) - http://www.bohemiancoding.com/sketch -->
    <title>MC-Small-Black</title>
    <desc>Created with Sketch.</desc>
    <defs></defs>
    <g id="Page-1" stroke="none" stroke-width="1" fill="none" fill-rule="evenodd">
        <g id="Payment-Icons" transform="translate(-41.000000, 1.000000)">
            <g id="MC-Small-Black" transform="translate(42.000000, 0.000000)">
                <rect id="Rectangle-3" stroke="#979797" fill="#FFFFFF" x="0" y="0" width="34" height="20" rx="2"></rect>
                <g id="Group-6" transform="translate(5.000000, 3.000000)">
                    <path d="M14.3094462,6.27199176 C14.2821231,6.0209356 14.2413231,5.77348137 14.1882462,5.53332113 L9.80926154,5.53251069 C9.8639077,5.28181472 9.9348923,5.03517093 10.0179692,4.79365994 L13.9812923,4.79402014 C13.8945231,4.54215354 13.7920615,4.29523962 13.6773231,4.05597985 L10.3218462,4.05498931 C10.4441538,3.80087148 10.5821538,3.55422772 10.7337231,3.31667887 L13.2654462,3.31577839 C13.1011385,3.05868894 12.9184615,2.81177503 12.7210154,2.57746795 L11.2779692,2.57827838 C11.5002462,2.31587607 11.7390462,2.0685119 11.9992615,1.84032814 C10.7290154,0.717239012 9.0468923,0.0343086081 7.1976,0.0341285103 C3.24923076,0.0339484126 0.0486461539,3.1568422 0.0481846154,7.01039225 C0.0480923076,10.8622314 3.24932309,13.9844948 7.19778461,13.9845849 C9.04707691,13.984765 10.7297538,13.3021047 11.9983385,12.1808166 C12.2567077,11.9525427 12.5234769,11.7052686 12.7441846,11.4409753 L11.2789846,11.440435 C11.0794154,11.2076587 10.9004308,10.9612851 10.7344615,10.7021245 L13.266,10.702935 C13.4175692,10.4654762 13.5555692,10.2189225 13.6778769,9.96462455 L10.3224,9.96381409 C10.2058154,9.72419413 10.1030769,9.47917124 10.0164923,9.22550365 L13.9816615,9.22604396 C14.0629846,8.98435286 14.1336923,8.73942001 14.1886154,8.48683302 C14.2420615,8.2450519 14.2828615,7.99957874 14.3096308,7.74879273 C14.3351077,7.50665141 14.3501538,7.25955739 14.3486769,7.01021216 C14.3490462,6.76122711 14.3362154,6.51395299 14.3094462,6.27199176" id="Fill-120" fill="#7C7C7C"></path>
                    <path d="M11.9983385,12.1808166 C13.2670154,13.3019246 14.9509846,13.9852152 16.7984308,13.9852152 C20.7486462,13.9855754 23.9492308,10.8626816 23.9496,7.00913157 C23.9497846,3.15720237 20.7487385,0.0332280219 16.7982462,0.0345787545 C14.9508,0.0346688034 13.2681231,0.717419108 11.9992615,1.84032814 C11.7390462,2.0685119 11.5002462,2.31587607 11.2779692,2.57827838 L12.7210154,2.57746795 C12.9184615,2.81177503 13.1011385,3.05868894 13.2654462,3.31577839 L10.7337231,3.31667887 C10.5821538,3.55422772 10.4441538,3.80087148 10.3218462,4.05498931 L13.6773231,4.05597985 C13.7920615,4.29523962 13.8945231,4.54215354 13.9812923,4.79402014 L10.0179692,4.79365994 C9.9348923,5.03517093 9.8639077,5.28181472 9.80926154,5.53251069 L14.1882462,5.53332113 C14.2413231,5.77348137 14.2821231,6.0209356 14.3094462,6.27199176 C14.3362154,6.51395299 14.3490462,6.76122711 14.3486769,7.01021216 C14.3501538,7.25955739 14.3351077,7.50665141 14.3096308,7.74879273 C14.2828615,7.99957874 14.2420615,8.2450519 14.1886154,8.48683302 C14.1336923,8.73942001 14.0629846,8.98435286 13.9816615,9.22604396 L10.0164923,9.22550365 C10.1030769,9.47917124 10.2058154,9.72419413 10.3224,9.96381409 L13.6778769,9.96462455 C13.5555692,10.2189225 13.4175692,10.4654762 13.266,10.702935 L10.7344615,10.7021245 C10.9004308,10.9612851 11.0794154,11.2076587 11.2789846,11.440435 L12.7441846,11.4409753 L11.9983385,12.1808166" id="Fill-121" fill="#A0A0A0"></path>
                    <path d="M9.75876924,8.77543956 C9.5460923,8.84099512 9.3816923,8.86945054 9.20261539,8.87044109 C8.8056923,8.86882022 8.59135385,8.64856074 8.59052309,8.23919871 C8.5908,8.15932539 8.59763076,8.07296856 8.61443076,7.98246948 L8.6604,7.701337 L8.69658461,7.47540446 L9.03221539,5.51711232 L9.80215385,5.51702228 L9.7128923,5.9431334 L10.1082462,5.94268316 L10.0004308,6.6408318 L9.60535385,6.63948108 L9.40144615,7.83740078 C9.39221539,7.88872863 9.38833846,7.92826008 9.38815385,7.95554487 C9.38723076,8.10457571 9.46753846,8.16833029 9.65215385,8.16806013 C9.73966154,8.16905068 9.80806154,8.1602259 9.86095385,8.14203602 L9.75876924,8.77543956" id="Fill-147" fill="#FFFFFF"></path>
                    <path d="M6.78433846,6.85001527 C6.78452309,7.21192155 6.96507691,7.46027625 7.3740923,7.64910867 C7.68701539,7.79372711 7.7352,7.83478939 7.73501539,7.9657204 C7.73547691,8.14401709 7.59701539,8.22515111 7.2912923,8.22515111 C7.06024615,8.22443071 6.8471077,8.18976191 6.59935385,8.11042888 L6.49301539,8.7723779 L6.52753846,8.77904151 L6.66858461,8.80920787 C6.714,8.81722221 6.78166154,8.82640719 6.87018461,8.83316086 C7.05433846,8.84918956 7.19667691,8.85774421 7.2972,8.85882478 C8.112,8.8575641 8.48926154,8.55454976 8.48806154,7.90151556 C8.4888923,7.50692154 8.33187691,7.27639652 7.94501539,7.10152168 C7.62092309,6.95717339 7.5827077,6.92475581 7.58335385,6.79022283 C7.58326154,6.63560898 7.71203076,6.55690628 7.9619077,6.55645604 C8.11273846,6.55717643 8.31932309,6.57266484 8.51676924,6.5996795 L8.62735385,5.93457874 C8.4264923,5.90531289 8.12252309,5.88009921 7.94547691,5.87946886 C7.0823077,5.87955891 6.78212309,6.32052808 6.78433846,6.85001527" id="Fill-148" fill="#FFFFFF"></path>
                    <path d="M16.7007692,5.39347527 L16.5738462,6.15988095 C16.2987692,6.0240873 16.0979077,5.96933762 15.8835692,5.96906746 C15.3057231,5.96816698 14.9011385,6.51296245 14.8992923,7.29116453 C14.9006769,7.82587454 15.1728,8.15059065 15.6221538,8.15014041 C15.8122154,8.1506807 16.0219385,8.09205892 16.2801231,7.9692323 L16.1441538,8.77255799 C15.8573538,8.84801892 15.6744,8.87566393 15.4600615,8.87539378 C14.6267077,8.8760241 14.1066462,8.29196734 14.1072923,7.35365843 C14.1079385,6.09162393 14.8238769,5.20941545 15.8509846,5.20995573 C15.9833538,5.20977564 16.0991077,5.22202228 16.1962154,5.24624541 L16.5149538,5.32431776 C16.6127077,5.35772589 16.6320923,5.36592033 16.7007692,5.39347527" id="Fill-149" fill="#FFFFFF"></path>
                    <path d="M22.6092,8.8116392 L21.8784923,8.81154916 L21.9150462,8.53113707 C21.7044,8.75139652 21.4835077,8.84846916 21.2000308,8.84972986 C20.6370462,8.84909951 20.2651385,8.3763431 20.2658769,7.65793345 C20.2651385,6.70314561 20.8414154,5.89819902 21.5254154,5.89900946 C21.8256923,5.89819902 22.0544308,6.01868437 22.2669231,6.29144231 L22.4360308,5.28343559 L23.2002462,5.28424603 L22.6092,8.8116392 L22.6092,8.8116392 L22.6092,8.8116392 Z M21.4683692,8.13717338 C21.8283692,8.13546246 22.0813846,7.73735653 22.0830462,7.16833791 C22.0812923,6.8043605 21.9382154,6.60661325 21.6716308,6.60643314 C21.3212308,6.60571275 21.0716308,7.00634004 21.0708,7.56995575 C21.0707077,7.94635989 21.2056615,8.13582266 21.4683692,8.13717338 L21.4683692,8.13717338 L21.4683692,8.13717338 Z" id="Fill-150" fill="#FFFFFF"></path>
                    <path d="M12.1225846,8.74977565 C11.8577538,8.82811813 11.6004,8.86746947 11.3304,8.86503816 C10.4654769,8.8649481 10.0141846,8.42496947 10.0143692,7.5811218 C10.0143692,6.59535714 10.5863077,5.87163463 11.3656615,5.87100428 C12.0032308,5.87100428 12.4090154,6.27739469 12.4088308,6.91403998 C12.4102154,7.12502441 12.3825231,7.33042583 12.3143077,7.62299452 L10.7765538,7.62173382 C10.7701846,7.66639804 10.7691692,7.68620879 10.7691692,7.71169261 C10.7679692,8.04433303 10.9990154,8.21416514 11.4482769,8.21380495 C11.724,8.21515567 11.9726769,8.1582448 12.2517231,8.03271672 L12.1225846,8.74977565 L12.1225846,8.74977565 L12.1225846,8.74977565 Z M11.6875385,7.04253968 C11.6923385,6.9831975 11.6938154,6.93439103 11.6937231,6.89612028 C11.6936308,6.66334401 11.5584923,6.52664987 11.3271692,6.52773046 C11.0831077,6.52701007 10.9075385,6.71034952 10.8359077,7.04064865 L11.6875385,7.04253968 L11.6875385,7.04253968 L11.6875385,7.04253968 Z" id="Fill-151" fill="#FFFFFF"></path>
                    <path d="M14.2165846,5.9191804 C14.1931385,5.91413767 14.1674769,5.91062577 14.1393231,5.91224664 C13.8858462,5.9121566 13.7410154,6.03777473 13.5036923,6.37815934 L13.5720923,5.94196276 L12.8710154,5.942413 L12.4008,8.81145909 L13.1743385,8.81181929 C13.4509846,7.0565873 13.5240923,6.75555403 13.8950769,6.75537394 C13.9193538,6.75510379 13.9213846,6.75357296 13.9506462,6.7575351 C14.0209846,6.41084708 14.1154154,6.15636905 14.2455692,5.92494352 L14.2165846,5.9191804" id="Fill-152" fill="#FFFFFF"></path>
                    <path d="M20.5886769,5.91818988 C20.5649538,5.91494811 20.5392923,5.91143621 20.5114154,5.9112561 C20.2578462,5.91107601 20.1127385,6.03849512 19.8757846,6.37707875 L19.9439077,5.94268316 L19.2428308,5.9431334 L18.7725231,8.81217948 L19.5464308,8.81082876 C19.8228,7.05730769 19.8960923,6.75447344 20.2671692,6.75438339 C20.2914462,6.7540232 20.2896,6.75375304 20.3206154,6.75798534 C20.3892,6.41102716 20.4853846,6.15681929 20.6156308,5.92548383 L20.5886769,5.91818988" id="Fill-153" fill="#FFFFFF"></path>
                    <polyline id="Fill-154" fill="#FFFFFF" points="3.85144615 8.81109889 3.07578461 8.81226953 3.51987691 6.09963828 2.5296 8.81208944 2.00215385 8.81082876 1.93661538 6.11584708 1.47092308 8.81091881 0.747415385 8.81190933 1.35147692 5.28469627 2.46452309 5.28415599 2.49553846 7.46711996 3.24747691 5.28397588 4.44978461 5.28487638 3.85144615 8.81109889"></polyline>
                    <path d="M5.7576923,7.53339592 C5.67516924,7.52385074 5.6399077,7.52268011 5.58406154,7.52231991 C5.14596924,7.52240995 4.9236,7.66837911 4.92304615,7.9574359 C4.92332309,8.13753358 5.03196924,8.25063491 5.1995077,8.25180557 C5.51658461,8.25144537 5.7432,7.95878664 5.7576923,7.53339592 L5.7576923,7.53339592 L5.7576923,7.53339592 Z M6.31956924,8.81235959 L5.6783077,8.81190933 L5.69316924,8.51384767 C5.4972,8.74887515 5.2367077,8.8623367 4.88086154,8.86098596 C4.46123076,8.86179639 4.17526154,8.54266331 4.17516924,8.07702075 C4.1748923,7.37860195 4.6751077,6.97248169 5.53273846,6.97158119 C5.62236924,6.97104091 5.73304615,6.97896521 5.84843076,6.99301281 C5.87307691,6.89990231 5.8788923,6.85884005 5.8788,6.80796244 C5.87833846,6.61696887 5.74495385,6.54601038 5.3831077,6.5473611 C5.16138461,6.54610042 4.9127077,6.57752748 4.73972309,6.62660409 L4.63273846,6.65749084 L4.5648923,6.6755006 L4.67076924,6.02985042 C5.0556,5.92062119 5.31138461,5.87919871 5.5967077,5.87820819 C6.26224615,5.87838827 6.61366154,6.17014652 6.61301539,6.71926435 C6.6131077,6.86109128 6.60138461,6.96869964 6.54978461,7.28900335 L6.3887077,8.30538462 L6.34153846,8.63352259 L6.32898461,8.73356685 L6.31956924,8.81235959 L6.31956924,8.81235959 L6.31956924,8.81235959 Z" id="Fill-155" fill="#FFFFFF"></path>
                    <path d="M17.3936308,8.25072498 C17.2238769,8.25117522 17.1155077,8.1362729 17.1168923,7.95824633 C17.1156,7.66882937 17.3381538,7.52114928 17.7762462,7.52105921 C17.8321846,7.52141941 17.8690154,7.52466118 17.9496923,7.53384616 C17.9353846,7.95752594 17.7087692,8.25018467 17.3936308,8.25072498 L17.3936308,8.25072498 L17.3936308,8.25072498 Z M18.5208923,8.73410715 L18.5352923,8.63424298 L18.5544923,8.48773352 L18.5824615,8.30610501 L18.7437231,7.28783272 C18.7951385,6.96942003 18.8068615,6.86190171 18.8067692,6.72007478 C18.8058462,6.16888585 18.4542462,5.87883851 17.7887077,5.87874847 C17.5035692,5.87793803 17.2496308,5.91963064 16.8646154,6.03057082 L16.7568923,6.6758608 L16.8267692,6.65650032 L16.9334769,6.62741452 C17.1046154,6.57806777 17.3552308,6.54682082 17.5752923,6.54610042 C17.9368615,6.54646062 18.0720923,6.61768926 18.0728308,6.80697192 C18.0727385,6.85965049 18.0652615,6.89864163 18.0422769,6.99364316 C17.9268,6.9796856 17.8142769,6.97158119 17.7264923,6.97230158 C16.8672923,6.97113095 16.3686462,7.37932235 16.3670769,8.07756105 C16.3675385,8.54131257 16.6552615,8.86080587 17.0746154,8.86179639 C17.4288923,8.861076 17.6909538,8.74968558 17.8869231,8.51465811 L17.8704923,8.81064865 L18.5136,8.81136905 L18.5208923,8.73410715 L18.5208923,8.73410715 L18.5208923,8.73410715 Z" id="Fill-156" fill="#FFFFFF"></path>
                </g>
            </g>
        </g>
    </g>
</svg>