<svg xmlns="http://www.w3.org/2000/svg" viewBox="0 0 48 48"><path class="st0" d="M15.9 14c-5.5 0-10 4.5-10 10s4.5 10 10 10 10-4.5 10-10-4.5-10-10-10zm0 18c-4.4 0-8-3.6-8-8s3.6-8 8-8 8 3.6 8 8-3.6 8-8 8z"/><path class="st0" d="M46 30H32V16c0-4.4-3.6-8-8-8H8c-4.4 0-8 3.6-8 8v16c0 4.4 3.6 8 8 8h38v2c0 .5.5 1 1 1s1-.5 1-1V32c0-1.1-.9-2-2-2zm-16 0v8H8c-3.3 0-6-2.7-6-6V16c0-3.3 2.7-6 6-6h16c3.3 0 6 2.7 6 6v14zm16 7v1H32v-6h2v3c0 .5.5 1 1 1s1-.5 1-1v-3h2v3c0 .5.5 1 1 1s1-.5 1-1v-3h2v3c0 .5.5 1 1 1s1-.5 1-1v-3h2v5z"/></svg>