<svg xmlns="http://www.w3.org/2000/svg" viewBox="0 0 48 48"><path class="st0" d="M31.6 18c-.4 0-.8-.2-.9-.6l-4.4-10c-.2-.5 0-1.1.5-1.3.5-.2 1.1 0 1.3.5l4.4 10c.2.5 0 1.1-.5 1.3-.1.1-.3.1-.4.1zm-14.4 0c-.1 0-.3 0-.4-.1-.5-.2-.7-.8-.5-1.3l1.4-3.2c.2-.5.8-.7 1.3-.5.5.2.7.8.5 1.3l-1.4 3.2c-.2.4-.5.6-.9.6zM24 30c4.4 0 8 3.6 8 8s-3.6 8-8 8-8-3.6-8-8 3.6-8 8-8m0-2c-5.5 0-10 4.5-10 10s4.5 10 10 10 10-4.5 10-10-4.5-10-10-10z"/><path class="st0" d="M31.5 1.2c-.3-.7-1-1.2-1.8-1.2h-9.8c-.7 0-1.3.3-1.7.9-.4.5-.5 1.2-.2 1.9l4.9 12.4 1.1 2.7 3.1 7.9c.2.6.7 1 1.3 1.2.6.2 1.2.1 1.7-.2l8.5-5.7c.8-.5 1.1-1.6.7-2.5L31.5 1.2zm-6.4 13.9L24 12.4l-3.8-9.7c-.1-.2 0-.3.1-.5 0-.1.2-.2.4-.2h8.7c.2 0 .4.1.5.3.9 2.1 6.4 14.2 7.5 16.6.1.2 0 .5-.2.6-.7.4-2.5 1.7-7.7 5.1-.1.1-.3.1-.4.1-.1 0-.3-.2-.3-.3l-3.7-9.3zM22.9 20c-.1-.4-.5-.6-.9-.6s-.8.2-.9.6l-1.7 4.4-.3.3c-.1 0-.3 0-.4-.1L11 19.5c-.2-.1-.3-.4-.2-.6l6-13.4c.1-.3.2-.7 0-1-.1-.4-.5-.6-.9-.6s-.7.2-.9.6l-6.3 14c-.4.9-.1 1.9.7 2.5l8.5 5.7c.5.3 1.1.4 1.7.2.6-.2 1-.6 1.3-1.2l1.9-4.9c.1-.3.1-.6.1-.8z"/></svg>