<svg xmlns="http://www.w3.org/2000/svg" viewBox="0 0 48 48"><path class="st0" d="M24 0C14.1 0 6 10.7 6 24s8.1 24 18 24 18-10.7 18-24S33.9 0 24 0zm0 46c-8.8 0-16-9.9-16-22S15.2 2 24 2s16 9.9 16 22-7.2 22-16 22z"/><path class="st0" d="M24 5c-7.7 0-14 8.5-14 19s6.3 19 14 19 14-8.5 14-19S31.7 5 24 5zm0 36c-6.6 0-12-7.6-12-17S17.4 7 24 7s12 7.6 12 17-5.4 17-12 17z"/><path class="st0" d="M17.6 16.2c-.4-.3-1.1-.2-1.4.2-.3.4-.2 1.1.2 1.4l8 6c.2.1.4.2.6.2.3 0 .6-.1.8-.4.3-.4.2-1.1-.2-1.4l-8-6zm5.8 1.5c.2.1.4.2.6.2.3 0 .6-.1.8-.4.3-.4.3-1.1-.2-1.4l-5-4c-.4-.3-1.1-.3-1.4.2-.3.4-.3 1.1.2 1.4l5 4z"/></svg>