<svg xmlns="http://www.w3.org/2000/svg" viewBox="0 0 48 48"><path class="st0" d="M26.6 23.1c-.5-.2-1.1-.3-1.6-.5v-4.4c.8.1 1.5.4 2.1.8.2.2.5.2.8.1.3-.1.5-.2.6-.5v-.1c.3-.5.1-1-.3-1.3-1-.7-2-1-3.2-1.1V16c0-.5-.5-1-1-1s-1 .5-1 1v.2c-2.6.3-4.3 1.9-4.3 4.3 0 2.6 2.1 3.3 4.3 3.9v4.4c-1.1-.2-2.1-.5-2.9-1.2-.2-.2-.5-.2-.8-.2-.3.1-.5.2-.7.5l-.1.1c-.3.4-.1 1 .3 1.3 1.3.9 2.6 1.3 4.1 1.5V32c0 .5.5 1 1 1s1-.5 1-1v-1c1.4-.1 3.3-.6 4.1-2.3.3-.5.4-1.1.4-1.8.1-2-.9-3.1-2.8-3.8zM21 20.3c0-.6.2-1.1.6-1.5.3-.3.8-.5 1.4-.6v4c-1.2-.3-2-.8-2-1.9zm6 7.6c-.2.4-.8.9-2 1v-4c.9.3 1.7.6 2 1.3.2.4.4 1.1 0 1.7z"/><path class="st0" d="M46 10H2c-1.1 0-2 .9-2 2v24c0 1.1.9 2 2 2h44c1.1 0 2-.9 2-2V12c0-1.1-.9-2-2-2zm0 10.1v15.6c0 .1-.1.3-.2.3H2.2c-.1 0-.2-.1-.2-.3V12.2c0-.1.1-.2.2-.2h43.5c.1 0 .2.1.2.2v7.9zM9 8h22c.5 0 1-.5 1-1V3.9c0-.1.1-.2.1-.2h.3l5.9 4c.2.2.4.3.7.3.2 0 .5-.1.7-.3.4-.4.4-1 0-1.4l-8-6c-.3-.3-.7-.4-1.1-.2-.4.1-.6.5-.6.9v4.8c0 .1-.1.2-.2.2H9c-.3 0-.5.1-.7.3-.2.1-.3.4-.3.7 0 .5.4 1 1 1zm30 32c-.3 0-.5.1-.7.3l-5.9 4c-.1 0-.2.1-.2 0-.1 0-.1-.1-.1-.2V41c0-.5-.5-1-1-1h-22c-.5 0-1 .5-1 1 0 .3.1.5.3.7.1.2.3.3.6.3h20.7c.1 0 .2.1.2.2V47c0 .4.2.8.6.9.4.2.8.1 1.1-.2l8-6c.4-.4.4-1 0-1.4-.1-.2-.4-.3-.6-.3z"/></svg>