<svg xmlns="http://www.w3.org/2000/svg" viewBox="0 0 48 48"><path class="st0" d="M25 16c4.4 0 8-3.6 8-8s-3.6-8-8-8-8 3.6-8 8 3.6 8 8 8zm0-14c3.3 0 6 2.7 6 6s-2.7 6-6 6-6-2.7-6-6 2.7-6 6-6zm18 28v-4c0-1.1-.9-2-2-2h-3.9c-2.4-3.6-7-6-12.1-6s-9.7 2.4-12.1 6H9c-1.1 0-2 .9-2 2v4c-2.2.3-4 2.4-4 5v2c0 2.6 1.8 4.7 4 5v4c0 1.1.9 2 2 2h32c1.1 0 2-.9 2-2v-4c2.2-.3 4-2.4 4-5v-2c0-2.6-1.8-4.7-4-5zM25 20c3.9 0 7.4 1.6 9.6 4H15.4c2.2-2.4 5.7-4 9.6-4zm-4 6h8v3.8c0 .1-.1.2-.2.2h-7.5c-.1 0-.2-.1-.2-.2V26zM5 37v-2c0-1.4.9-2.7 2-2.9.2-.1.3-.1.5-.1.6 0 1.1.2 1.5.6.6.6 1 1.4 1 2.4v2c0 1-.4 1.8-1 2.4-.4.4-.9.6-1.5.6-.2 0-.3 0-.5-.1-1.1-.2-2-1.5-2-2.9zm36 8.5c0 .3-.2.5-.5.5h-31c-.3 0-.5-.2-.5-.5v-3.8c1.8-.7 3-2.5 3-4.7v-2c0-2.2-1.2-4-3-4.7v-3.8c0-.3.2-.5.5-.5H19v4c0 1.1.9 2 2 2h8c1.1 0 2-.9 2-2v-4h9.5c.3 0 .5.2.5.5v3.8c-1.8.7-3 2.5-3 4.7v2c0 2.2 1.2 4 3 4.7v3.8zm4-8.5c0 1.4-.9 2.7-2 2.9-.2 0-.3.1-.5.1-.6 0-1.1-.2-1.5-.6-.6-.6-1-1.4-1-2.4v-2c0-1 .4-1.8 1-2.4.4-.4.9-.6 1.5-.6.2 0 .3 0 .5.1 1.1.3 2 1.5 2 2.9v2z"/></svg>