<svg xmlns="http://www.w3.org/2000/svg" viewBox="0 0 48 48"><path class="st0" d="M37 18h6c.6 0 1-.4 1-1s-.4-1-1-1h-6c-.6 0-1 .4-1 1s.4 1 1 1zm0 4h6c.6 0 1-.4 1-1s-.4-1-1-1h-6c-.6 0-1 .4-1 1s.4 1 1 1zm6 2h-3c-.6 0-1 .5-1 1 0 .6.4 1 1 1h3c.6 0 1-.5 1-1 0-.6-.4-1-1-1z"/><path class="st0" d="M46 10H28c-1.1 0-2 .9-2 2v4c0 .6.4 1 1 1s1-.4 1-1v-3.5c0-.3.2-.5.5-.5h17c.3 0 .5.2.5.5v19c0 .3-.2.5-.5.5h-17c-.3 0-.5-.2-.5-.5V30c0-.6-.4-1-1-1s-1 .4-1 1v2c0 1.1.9 2 2 2h18c1.1 0 2-.9 2-2V12c0-1.1-.9-2-2-2zm-34 2c3.3 0 6-2.7 6-6s-2.7-6-6-6-6 2.7-6 6 2.7 6 6 6zm0-10c2.2 0 4 1.8 4 4s-1.8 4-4 4-4-1.8-4-4 1.8-4 4-4z"/><path class="st0" d="M4 48c.6 0 1.3-.2 1.9-.5l8-4.4c1.3-.7 2.1-2 2.1-3.5v-3.1l.9.5 3.4 8.4C20.9 47 22.4 48 24 48c.5 0 1-.1 1.5-.3 2-.8 3-3.1 2.2-5.2l-3.9-9.8c-.4-.9-1-1.6-1.9-2.1l-5.9-3v-2.3l1.9 1.2c.6.4 1.4.6 2.1.6h9c2.2 0 4-1.8 4-4s-1.8-4-4-4h-8c-7.2-4.4-7.4-4.9-9-4.9-2.2 0-4 1.8-4 4v19.2l-5.9 3.2C.2 41.7-.5 44.1.5 46c.7 1.2 2.1 2 3.5 2zm-1.9-4.6c.1-.5.5-.9 1-1.2L9 39l1-.6V18.1c0-1.1.9-2 2-2 .5 0 .6 0 3.5 1.8 1.1.7 2.5 1.6 4.4 2.8l.5.3H29c1.1 0 2 .9 2 2s-.9 2-2 2h-9c-.4 0-.7-.1-1.1-.3L17 23.5l-3-1.9v7.1l1.1.6 5.9 3.1c.4.2.8.6.9 1l3.9 9.8c.4 1-.1 2.2-1.1 2.6-.2.2-.4.2-.7.2-.8 0-1.6-.5-1.9-1.3l-3.4-8.4-.3-.7-.7-.3-.9-.5-2.8-1.5v6.4c0 .7-.4 1.4-1 1.7l-8 4.4c-.3.1-.7.2-1 .2-.7 0-1.4-.4-1.8-1-.2-.5-.3-1-.1-1.6z"/></svg>