<svg xmlns="http://www.w3.org/2000/svg" viewBox="0 0 48 48"><path class="st0" d="M32 18c-2.2 0-4-1.8-4-4v-.2C28 6.2 21.8 0 14.2 0H14C6.3 0 0 6.3 0 14v21c0 .6.4 1 1 1s1-.4 1-1V14C2 7.4 7.4 2 14 2h.2C20.7 2 26 7.3 26 13.8v.2c0 3.3 2.7 6 6 6 7.7 0 14 6.3 14 14v1c0 .6.4 1 1 1s1-.4 1-1v-1c0-8.8-7.2-16-16-16zm15 20H1c-.6 0-1 .4-1 1s.4 1 1 1h1v6c0 1.1.9 2 2 2h40c1.1 0 2-.9 2-2v-6h1c.6 0 1-.4 1-1s-.4-1-1-1zm-3 7.5c0 .3-.2.5-.5.5h-39c-.3 0-.5-.2-.5-.5V40h4v3c0 .5.5 1 1 1s1-.5 1-1v-3h4v3c0 .5.5 1 1 1s1-.5 1-1v-3h4v3c0 .5.5 1 1 1s1-.5 1-1v-3h4v3c0 .5.5 1 1 1s1-.5 1-1v-3h4v3c0 .5.5 1 1 1s1-.5 1-1v-3h4v3c0 .5.5 1 1 1s1-.5 1-1v-3h4v5.5z"/></svg>