<svg xmlns="http://www.w3.org/2000/svg" viewBox="0 0 48 48"><path class="st0" d="M17.1 32.1s.1 0 .1.1l4.6 4.6c.6.6 1.3.9 2.1.9s1.6-.3 2.1-.9l4.3-4.3c.2-.2.4-.2.6-.2h.3c5.4 1.8 9.4 5.4 12.3 10.8.3.6.3 1.4-.1 2-.4.6-1 1-1.7 1H6.1c-.7 0-1.4-.4-1.7-1-.4-.6-.4-1.3-.1-2 3-5.6 7.2-9.2 12.8-11m0-2c-.2 0-.5 0-.7.1-7.6 2.4-11.6 7.6-13.9 12-.7 1.2-.6 2.7.1 3.9.7 1.2 2 1.9 3.4 1.9h35.7c1.4 0 2.7-.7 3.4-1.9.7-1.2.8-2.7.1-3.9-2.3-4.3-6.1-9.3-13.4-11.8-.3-.1-.6-.2-.9-.2-.7 0-1.5.3-2 .8l-4.3 4.3c-.2.2-.4.3-.7.3-.3 0-.5-.1-.7-.3l-4.6-4.6c-.3-.4-.9-.6-1.5-.6zM24 2c6.6 0 12 5.4 12 12s-5.4 12-12 12-12-5.4-12-12S17.4 2 24 2m0-2c-7.7 0-14 6.3-14 14s6.3 14 14 14 14-6.3 14-14S31.7 0 24 0z"/></svg>