<svg xmlns="http://www.w3.org/2000/svg" viewBox="0 0 48 48"><path class="st0" d="M40 0H8C6.9 0 6 .9 6 2v38c0 1.1.9 2 2 2h2.5l1.1 4.5c.2.9 1 1.5 1.9 1.5h2.9c.9 0 1.7-.6 1.9-1.5l1.1-4.5h10l1.1 4.5c.2.9 1 1.5 1.9 1.5h2.9c.9 0 1.7-.6 1.9-1.5l1.1-4.5H40c1.1 0 2-.9 2-2V2c0-1.1-.9-2-2-2zM16.5 45.8c0 .1-.1.2-.2.2h-2.5c-.1 0-.2-.1-.2-.2l-1-3.8h4.9l-1 3.8zm19 0c0 .1-.1.2-.2.2h-2.5c-.1 0-.2-.1-.2-.2l-1-3.8h4.9l-1 3.8zm4.5-6c0 .1-.1.2-.2.2H8.2c-.1 0-.2-.1-.2-.2V22h32v17.8zM8 20V2.2c0-.1.1-.2.2-.2h31.5c.2 0 .3.1.3.2V20H8z"/><path class="st0" d="M29 6H19c-.5 0-1 .5-1 1s.5 1 1 1h10c.5 0 1-.5 1-1s-.5-1-1-1zM19 28h10c.5 0 1-.5 1-1s-.5-1-1-1H19c-.5 0-1 .5-1 1s.5 1 1 1z"/></svg>