<svg xmlns="http://www.w3.org/2000/svg" viewBox="0 0 48 48"><path class="st0" d="M44 36h-4v-6c0-1.1-.9-2-2-2h-3c-.5 0-1 .5-1 1s.5 1 1 1h2.8c.1 0 .2.1.2.2v12.7c0 .5.5 1 1 1h.2c.4 0 .8-.4.8-.8v-4.9c0-.1.1-.2.2-.2h3.5c.1 0 .2.1.2.2v7.5c0 .1 0 .1-.1.2 0 0-.1.1-.2.1H32.2c-.1 0-.2-.1-.2-.2V18c0-1.1-.9-2-2-2h-2.3L26 1.8C25.9.8 25 0 24 0s-2 .8-2.1 1.8L20.3 16H18c-1.1 0-2 .9-2 2v27.8c0 .1-.1.2-.2.2H4.2c-.1 0-.2-.1-.2-.2v-7.5c0-.2.1-.3.2-.3h3.5c.2 0 .3.1.3.2V43c0 .5.5 1 1 1s1-.4 1-1V30.2c0-.1.1-.2.2-.2H13c.5 0 1-.5 1-1s-.5-1-1-1h-3c-1.1 0-2 .9-2 2v6H4c-1.1 0-2 .9-2 2v8c0 1.1.9 2 2 2h40c1.1 0 2-.9 2-2v-8c0-1.1-.9-2-2-2zM23.9 2h.1l1.6 14h-3.4l1.7-14zm-1.8 43.9s-.1-.1-.1-.2v-3.5c0-.1 0-.1.1-.2 0 0 .1-.1.2-.1h3.5c.1 0 .2.1.2.2v3.5c0 .1 0 .1-.1.2 0 0-.1.1-.2.1h-3.5c0 .1-.1.1-.1 0zm7.9-.1c0 .1-.1.2-.2.2H28v-4c0-1.1-.9-2-2-2h-4c-1.1 0-2 .9-2 2v4h-1.8c-.1 0-.2-.1-.2-.2V18.2c0-.1 0-.2.1-.2h11.7c.1 0 .2.1.2.3v27.5z"/></svg>