<svg xmlns="http://www.w3.org/2000/svg" viewBox="0 0 48 48"><path class="st0" d="M7 23H3c-1.7 0-3 1.4-3 3 0 1.7 1.3 3 3 3h1c0 2.2 1.8 4 4 4 1.3 0 1.3-2 0-2-1.1 0-2-.9-2-2h1c1.7 0 3-1.3 3-3 0-1.6-1.3-3-3-3zm0 4H3c-.5 0-1-.5-1-1s.5-1 1-1h4c.5 0 1 .5 1 1s-.5 1-1 1zm38-4h-4c-1.7 0-3 1.4-3 3 0 1.7 1.3 3 3 3h1c0 1.1-.9 2-2 2-1.3 0-1.3 2 0 2 2.2 0 4-1.8 4-4h1c1.7 0 3-1.3 3-3 0-1.6-1.3-3-3-3zm0 4h-4c-.5 0-1-.5-1-1s.5-1 1-1h4c.5 0 1 .5 1 1s-.5 1-1 1zm-10.8 2.2l.4-.4c1.1-1.4 1.6-3.2 1.3-4.9L32.7 6.3c-.3-1.9-2-3.3-4-3.3H18.6c-2 0-3.7 1.5-4 3.4l-2.5 17.7c-.2 1.7.3 3.5 1.4 4.8l.3.3c-1.6.5-2.8 2-2.8 3.8 0 2.2 1.8 4 4 4h8v2h-5c-2.2 0-4 1.8-4 4s1.8 4 4 4 4-1.8 4-4c0-.7-.2-1.4-.6-2h5.1c-.3.6-.6 1.3-.6 2 0 2.2 1.8 4 4 4s4-1.8 4-4-1.8-4-4-4H25v-2h8c2.2 0 4-1.8 4-4 0-1.8-1.2-3.3-2.8-3.8zM18 45c-1.1 0-2-.9-2-2s.9-2 2-2 2 .9 2 2-.9 2-2 2zm14-2c0 1.1-.9 2-2 2s-2-.9-2-2 .9-2 2-2 2 .9 2 2zM14 24.4l2.5-17.7c.1-1 1-1.7 2-1.7h10.2c1 0 1.8.7 2 1.7l3.2 17.6c.2 1.2-.1 2.4-.9 3.3-.7.9-1.8 1.4-3 1.4H18c-1.2 0-2.3-.5-3-1.4-.8-.9-1.1-2-1-3.2zM33 35H15c-1.1 0-2-.9-2-2s.9-2 2-2h18c1.1 0 2 .9 2 2s-.9 2-2 2z"/></svg>