<svg xmlns="http://www.w3.org/2000/svg" viewBox="0 0 48 48"><path class="st0" d="M47.7 10.2l-3.8-9C43.5.5 42.8 0 42 0s-1.5.5-1.8 1.2l-3.8 9c-.2.5-.3 1-.3 1.6V16h-6v-4.3c0-.5-.1-1.1-.3-1.6l-3.8-9C25.5.5 24.8 0 24 0s-1.5.5-1.8 1.2l-3.8 9c-.2.5-.3 1-.3 1.6V16h-6v-4.3c0-.5-.1-1.1-.3-1.6L8 1.1C7.5.5 6.8 0 6 0S4.5.5 4.2 1.2l-3.8 9c-.2.5-.3 1-.3 1.6V46c0 1.1.9 2 2 2h8c1.1 0 2-.9 2-2v-4h6v4c0 1.1.9 2 2 2h8c1.1 0 2-.9 2-2v-4h6v4c0 1.1.9 2 2 2h8c1.1 0 2-.9 2-2V11.7c-.1-.5-.2-1-.4-1.5zM36 18v4h-6v-4h6zm0 6v10h-6V24h6zm-18-6v4h-6v-4h6zm0 6v10h-6V24h6zm-8 21.8c0 .1-.1.2-.2.2H2.2c-.1 0-.2-.1-.2-.2v-34c0-.3.1-.5.2-.8l3.6-8.4c0-.1.1-.2.2-.2s.2.1.2.2L9.8 11c.1.2.2.5.2.8v34zm2-5.8v-4h6v4h-6zm16 5.8c0 .1-.1.2-.2.2h-7.5c-.1 0-.2-.1-.2-.2V11.7c0-.3.1-.5.2-.8l3.6-8.4c0-.1.1-.2.2-.2s.2.1.2.2l3.6 8.4c.1.2.2.5.2.8v34.1zm2-5.8v-4h6v4h-6zm16 5.8c0 .1-.1.2-.2.2h-7.5c-.1 0-.2-.1-.2-.2V11.7c0-.3.1-.5.2-.8l3.6-8.4c0-.1.1-.2.2-.2s.2.1.2.2l3.6 8.4c.1.2.2.5.2.8v34.1z"/></svg>