<svg xmlns="http://www.w3.org/2000/svg" viewBox="0 0 48 48"><path class="st0" d="M21 18c-.6 0-1-.4-1-1V7c0-.6.4-1 1-1s1 .4 1 1v10c0 .6-.4 1-1 1zm6 0c-.6 0-1-.4-1-1V7c0-.6.4-1 1-1s1 .4 1 1v10c0 .6-.4 1-1 1zm6 0c-.6 0-1-.4-1-1V7c0-.6.4-1 1-1s1 .4 1 1v10c0 .6-.4 1-1 1zm-18 0c-.6 0-1-.4-1-1V7c0-.6.4-1 1-1s1 .4 1 1v10c0 .6-.4 1-1 1z"/><path class="st0" d="M39 18c-.6 0-1-.4-1-1V3c0-.6-.4-1-1-1H11c-.6 0-1 .4-1 1v14c0 .6-.4 1-1 1s-1-.4-1-1V3c0-1.7 1.3-3 3-3h26c1.7 0 3 1.3 3 3v14c0 .6-.4 1-1 1zm-1 4v8c0 2.2-1.8 4-4 4h-8v3.4c0 1.8.2 3.5.6 5.2.2.8 0 1.7-.5 2.3-.5.7-1.3 1-2.1 1h-.5c-.7 0-1.4-.3-1.8-.9-.4-.6-.6-1.3-.4-2l.1-.5c.4-1.7.6-3.5.6-5.2V34h-8c-2.2 0-4-1.8-4-4v-8h28m0-2H10c-1.1 0-2 .9-2 2v8c0 3.3 2.7 6 6 6h6v1.4c0 1.6-.2 3.2-.6 4.8l-.1.5c-.3 1.3 0 2.7.8 3.7s2.1 1.7 3.4 1.7h.5c1.5 0 2.8-.7 3.7-1.8.9-1.1 1.2-2.6.9-4-.4-1.7-.6-3.3-.6-4.9V36h6c3.3 0 6-2.7 6-6v-8c0-1.1-.9-2-2-2z"/></svg>