<svg xmlns="http://www.w3.org/2000/svg" viewBox="0 0 48 48"><path class="st0" d="M47.2 13.2l-5.1-5.5c-.5-.6-1.3-.9-2.1-1-.8 0-1.6.3-2.2.8l-1.2 1.2c-.2.2-.5.3-.7.3-.3 0-.5-.1-.7-.3-3-3-7.7-3.4-11.2-1.2l-.5.3-.7-.5c-1.8-1.3-4.2-1.2-5.9.1L14 10c-.4.3-.9.3-1.3-.1l-2.6-2.4c-.6-.4-1.4-.7-2.1-.7-.8 0-1.6.4-2.1 1L.8 13.3c-1.1 1.2-1.1 3 .1 4.2l3.1 3L2.4 22c-.8.8-1.2 1.8-1.2 2.8 0 1.1.4 2.1 1.2 2.8.7.7 1.6 1.1 2.5 1.1-.1.3-.1.6-.1 1 0 1.1.4 2.1 1.2 2.8.8.8 1.8 1.2 2.8 1.2h.3v.2c0 1.1.4 2.1 1.2 2.8.7.9 1.7 1.3 2.8 1.3.6 0 1.2-.1 1.7-.4.1.8.5 1.5 1.1 2.1.8.8 1.8 1.2 2.8 1.2.7 0 1.4-.2 2-.6l.2.2c.8.8 1.8 1.2 2.8 1.2 1.1 0 2.1-.4 2.8-1.2.5-.5.9-1.2 1.1-1.9.4.3.8.5 1.2.7.3.1.7.2 1 .2h.3c1.1 0 2.1-.4 2.8-1.2.7-.7 1.1-1.7 1.2-2.8.1 0 .2 0 .4.1h.2c1.1 0 2.1-.4 2.8-1.2.9-.9 1.3-2.2 1.2-3 1 .1 2-.1 3.1-1.2.8-.8 1.2-1.8 1.2-2.8 0-1-.4-2-1.1-2.7l-1-1 6.2-6.3c1.2-1.1 1.2-3 .1-4.2zM5.3 26.8c-.5 0-1-.2-1.4-.6-.8-.8-.8-2.1 0-2.8l4.9-4.9c.4-.4.9-.6 1.4-.6.5 0 1 .2 1.4.6.8.8.8 2 0 2.8l-2.8 2.8-2.1 2.1c-.4.4-.9.6-1.4.6zm4.9 4.4c-.4.4-.9.6-1.4.6-.5 0-1-.2-1.4-.6-.8-.8-.8-2.1 0-2.8l.7-.7 5-5c.4-.4.9-.6 1.4-.6.5 0 1 .2 1.4.6.8.8.8 2 0 2.8l-5.7 5.7zm5.6 2.9l-1.3 1.3c-.4.4-.9.6-1.4.6-.5 0-1-.2-1.4-.6-.8-.8-.8-2 0-2.8l5.6-5.6c.4-.4.9-.6 1.4-.6.5 0 1 .2 1.4.6.8.8.8 2.1 0 2.8L18 31.9l-2.2 2.2c.1-.1 0 0 0 0zm5 3.5l-.7.7c-.2.2-.5.4-.7.5-.2.1-.5.1-.7.1-.5 0-1-.2-1.4-.6-.4-.4-.6-.9-.6-1.4 0-.5.2-1 .6-1.4l4.2-4.2c.4-.4.9-.6 1.4-.6.5 0 1 .2 1.4.6.5.5.7 1.2.5 1.9 0 .1-.1.2-.1.4-.1.2-.2.4-.4.6l-.7.7-2.8 2.7zm4.4 1.5c-.4.4-.9.6-1.4.6-.5 0-1-.2-1.4-.6l-.2-.1 2.8-2.8.1.1c.4.4.6.9.6 1.4.1.5-.1 1-.5 1.4zM41 27.4c0 .5-.2 1-.6 1.4-.5.4-1.1.6-1.6.6s-1.1-.3-1.4-.7l-.3-.3-2.9-3c-.2-.2-.4-.3-.7-.3-.3 0-.5.1-.7.3-.2.2-.3.4-.3.7 0 .3.1.5.3.7 0 0 3.6 3.6 3.6 3.7.6.8.5 1.9-.2 2.6-.4.4-.9.6-1.4.6-.5 0-1-.2-1.4-.5h-.1l-2.4-2.4c-.4-.4-1-.4-1.4 0-.2.2-.3.4-.3.7 0 .3.1.5.3.7l2.2 2.2c.3.4.4.8.4 1.2 0 .5-.2 1-.6 1.4-.4.4-.9.6-1.4.6-.5 0-1-.2-1.4-.6l-1.3-1.3-1-1c.3-.6.5-1.3.5-1.9 0-1.1-.4-2.1-1.2-2.8-.7-1-1.7-1.4-2.7-1.4h-.2v-.3c0-1.1-.4-2.1-1.2-2.8-.8-.8-1.8-1.2-2.8-1.2h-.3v-.2c0-1.1-.4-2.1-1.2-2.8-.8-.8-1.8-1.2-2.8-1.2h-.3v-.3c0-1.1-.4-2.1-1.2-2.8s-1.8-1.2-2.8-1.2c-1.1 0-2.1.4-2.8 1.2l-2 2-3.1-3c-.4-.4-.4-1 0-1.4l5.1-5.5c.1-.2.4-.3.6-.3.3 0 .5.1.7.3l2.6 2.4c1.1 1 2.7 1.1 3.9.2l3-2.3c1-.8 2.5-.8 3.5-.1L19 11.1c-.8.5-1.3 1.3-1.3 2.2-.1.9.2 1.8.9 2.4l.6.6c.9.9 2.2 1.1 3.3.6 2.4-1.1 2.9-1.2 2.9-1.2.4 0 1.8 0 3.1.1.9.1 1.8.4 2.5 1.1 1 1 9.4 9.1 9.4 9.1.4.4.6.9.6 1.4zM45.7 16l-6.2 6.3-8.6-8c-.3-.3-.8-.5-1.2-.5-1.2-.1-3.7-.2-4.4-.2-.2 0-.6 0-3.7 1.4-.4.2-.8.1-1.1-.2l-.5-.5c-.2-.2-.3-.5-.3-.8 0-.3.2-.6.5-.7l5.1-3.3c2.7-1.8 6.3-1.4 8.6.9.6.6 1.4.9 2.2.9.8 0 1.6-.4 2.2-1l1.1-1.2c.2-.2.5-.3.7-.3.3 0 .5.1.7.3l5.1 5.5c.2.4.2 1-.2 1.4z"/></svg>