<?xml version="1.0" encoding="UTF-8"?>
<svg width="36px" height="22px" viewBox="0 0 36 22" version="1.1" xmlns="http://www.w3.org/2000/svg" xmlns:xlink="http://www.w3.org/1999/xlink">
    <!-- Generator: Sketch 39.1 (31720) - http://www.bohemiancoding.com/sketch -->
    <title>PayPal-Small-Black</title>
    <desc>Created with Sketch.</desc>
    <defs></defs>
    <g id="Page-1" stroke="none" stroke-width="1" fill="none" fill-rule="evenodd">
        <g id="Payment-Icons" transform="translate(-124.000000, 1.000000)">
            <g id="PayPal-Small-Black" transform="translate(125.000000, 0.000000)">
                <rect id="Rectangle-3" stroke="#979797" fill="#FFFFFF" x="0" y="0" width="34" height="20" rx="2"></rect>
                <path d="M7.52870669,7.37016355 C7.43001355,7.16517845 7.26858524,6.99949501 7.07119896,6.87311322 C6.86157166,6.74364895 6.61981172,6.65348633 6.33903356,6.60262536 C6.05519515,6.55099378 5.72927826,6.52710454 5.34674671,6.52402206 L3.592457,6.52402206 C3.41037198,6.52710454 3.23058215,6.66889874 3.18926875,6.84614149 L2.00877637,12.0270243 C1.9666979,12.2011845 2.07992724,12.3491437 2.26277732,12.3491437 L3.10205155,12.3491437 C3.28490163,12.3491437 3.46698665,12.2073495 3.50600487,12.0270243 L3.79596379,10.7686007 C3.83421695,10.5936698 4.01400678,10.4495637 4.1960918,10.4495637 L4.4386168,10.4495637 C5.46609656,10.4464813 6.26099712,10.2353312 6.8317342,9.81148983 C7.40859179,9.38687784 7.69013501,8.82663662 7.69013501,8.13461925 C7.69013501,7.83022409 7.64193603,7.57437803 7.52870669,7.37016355 L7.52870669,7.37016355 Z M5.71703726,9.06167592 C5.4630363,9.2512486 5.11034221,9.3444937 4.65359953,9.3444937 L4.45009275,9.3444937 C4.26800773,9.3444937 4.15401333,9.20038764 4.19303154,9.02237427 L4.4470325,7.92115733 C4.48299046,7.74622644 4.66507548,7.59903789 4.84792556,7.59903789 L5.12258322,7.59903789 C5.44543985,7.59903789 5.69026005,7.65298134 5.85474861,7.76395071 C6.01617693,7.86952574 6.09650856,8.04137415 6.09650856,8.26716601 C6.09956881,8.61009221 5.96874302,8.87518572 5.71703726,9.06167592 L5.71703726,9.06167592 Z M17.2679601,8.38738283 L13.920809,14.091517 C13.8129351,14.2695304 13.5742354,14.410554 13.3952106,14.410554 L12.5222736,14.4136365 C12.3432488,14.4136365 12.2828088,14.2695304 12.393743,14.091517 L13.1381494,12.785315 C13.1381494,12.785315 13.1978243,12.7097942 13.1435048,12.2828703 C13.0302755,11.5122496 12.4595384,8.2371118 12.4595384,8.2371118 C12.41746,8.05909843 12.5283941,7.91190988 12.7104791,7.91190988 L13.4633012,7.91190988 C13.6935852,7.91190988 13.8787305,8.06526339 13.920809,8.24327677 L14.2941598,10.5158371 L14.4349314,10.5189196 C14.551221,10.3077695 15.7554303,8.22786436 15.7554303,8.22786436 C15.8694247,8.05293346 16.1027689,7.90574492 16.284854,7.90574492 C16.284854,7.90574492 17.0919955,7.9088274 17.291677,7.90574492 C17.5908167,7.89957995 17.2679601,8.38738283 17.2679601,8.38738283 L17.2679601,8.38738283 Z M22.7878904,7.39097031 C22.6830767,7.18367335 22.5277689,7.0179899 22.3273224,6.88852563 C22.1215204,6.76214384 21.8789954,6.6712106 21.595157,6.62034964 C21.3174391,6.56948867 20.9854017,6.54251695 20.6059304,6.54251695 L18.8485804,6.54251695 C18.6664954,6.54482881 18.4905309,6.6897055 18.4484524,6.86386577 L17.2679601,12.047831 C17.2258816,12.2227619 17.3429362,12.3699505 17.521961,12.3699505 L18.3620003,12.366868 C18.5410251,12.3699505 18.7261703,12.2227619 18.7651886,12.047831 L19.0520872,10.7894075 C19.0941657,10.6152472 19.2731905,10.467288 19.4552755,10.467288 L19.6947402,10.467288 C20.7229851,10.467288 21.5209459,10.2538261 22.0978035,9.83229659 C22.66242,9.40460212 22.9493187,8.84513151 22.9493187,8.15234353 C22.9462584,7.84871899 22.8949992,7.59287292 22.7878904,7.39097031 L22.7878904,7.39097031 Z M20.976986,9.08556516 C20.7229851,9.2697435 20.370291,9.3629886 19.9158435,9.3629886 L19.7069812,9.3629886 C19.5271914,9.3629886 19.4078416,9.21502943 19.44992,9.04086916 L19.703921,7.94196409 C19.7421742,7.76703319 19.9250242,7.61984465 20.1071093,7.61984465 L20.3787067,7.61984465 C20.7015633,7.61984465 20.9440883,7.67378809 21.1108721,7.78244561 C21.2723004,7.89110312 21.3533971,8.06218091 21.3564573,8.28797277 C21.3564573,8.63089897 21.2279267,8.89599248 20.976986,9.08556516 L20.976986,9.08556516 Z M11.5804809,8.11073001 C11.2637448,7.92963416 10.7618634,7.84255402 10.0801922,7.84255402 C9.73973908,7.84255402 9.40234625,7.86644326 9.0611281,7.92115733 C8.8101874,7.95968836 8.78647044,7.96585333 8.63116263,8.0020725 C8.31136625,8.07142836 8.26087209,8.3935478 8.26087209,8.3935478 L8.1591187,8.81815979 C8.10250403,9.08864764 8.25781184,9.07940019 8.32054701,9.05551095 C8.46055356,9.01389744 8.53859,8.9715133 8.82242841,8.90832241 C9.09708607,8.84513151 9.38398473,8.79966489 9.61120847,8.80274737 C9.94630612,8.80274737 10.2033673,8.83588406 10.3762716,8.91140489 C10.5438204,8.98307261 10.6272123,9.11022502 10.6272123,9.29363274 L10.6126761,9.41384957 L10.4933262,9.48937039 C10.0151618,9.5194246 9.6708834,9.5641206 9.25239388,9.62499963 C8.84308511,9.68202556 8.48503558,9.78451811 8.18895616,9.91937672 C7.86915978,10.0611709 7.62969503,10.2538261 7.46597152,10.4942597 C7.3045432,10.7385465 7.22344651,11.0336942 7.22344651,11.3797029 C7.22344651,11.7079873 7.33973611,11.9753927 7.56695985,12.1834603 C7.79418359,12.3876747 8.09332327,12.4870848 8.45213787,12.4870848 C8.67859655,12.4870848 8.85532612,12.4693605 8.97773622,12.4393063 L9.38704498,12.2975121 L9.73055832,12.1048569 L10.0480595,11.8944775 L10.0503547,11.9006425 L10.0205172,12.0355011 L10.017457,12.041666 C9.98532433,12.2073495 10.0832524,12.3429787 10.2416205,12.3576205 L10.2446807,12.3637855 L11.0281054,12.3637855 L11.036521,12.3576205 C11.2040699,12.3368138 11.3624379,12.2011845 11.3983959,12.041666 L12.0112114,9.36838295 L12.0441092,9.15183854 L12.0586454,8.94762406 C12.0617056,8.57079055 11.8979821,8.29105525 11.5804809,8.11073001 L11.5804809,8.11073001 Z M10.2270843,11.1146094 L10.0954934,11.2895403 L9.76345603,11.4606181 C9.60814822,11.523809 9.46202117,11.5569456 9.32430981,11.5569456 C9.11850783,11.5569456 8.95707952,11.5268914 8.84614537,11.4637005 L8.68471705,11.1477461 C8.68471705,10.9758977 8.72373527,10.841039 8.80712715,10.735464 L9.16288149,10.4919479 C9.31512905,10.4403163 9.50409964,10.3956203 9.71908237,10.3647955 C9.91034815,10.3409062 10.2898195,10.2962102 10.3403136,10.2962102 L10.3976933,10.3979322 C10.3854523,10.4557287 10.2775784,10.9096243 10.2270843,11.1146094 L10.2270843,11.1146094 Z M31.2097051,6.2350393 L31.4904832,6.2350393 L31.4904832,6.35217365 L31.2097051,6.35217365 L31.2097051,6.8314997 L31.2303618,6.89700246 L31.2755005,6.94246908 L31.3588924,6.95479901 L31.4308083,6.94555156 L31.4843627,6.92782729 L31.4904832,6.92782729 L31.4904832,7.05420908 L31.4070914,7.06885087 L31.3259947,7.07501583 L31.1347289,7.00565997 L31.0689335,6.78911557 L31.0689335,6.35217365 L30.9763608,6.35217365 L30.9763608,6.2350393 L31.0689335,6.2350393 L31.0689335,6 L31.2097051,6 L31.2097051,6.2350393 Z M26.8434899,8.1138125 C26.5236935,7.93579912 26.0241073,7.8456365 25.3432012,7.8456365 C25.0050433,7.8456365 24.6645902,7.86952574 24.3271974,7.92655167 C24.0731964,7.96277084 24.0487144,7.97201829 23.8934066,8.00515498 C23.5736102,8.07451084 23.5261763,8.39663028 23.5261763,8.39663028 L23.4213626,8.82124227 C23.364748,9.09173013 23.5169955,9.07940019 23.5889115,9.05859344 C23.7258578,9.0162093 23.8038942,8.97767827 24.0846724,8.91140489 C24.3570348,8.84821399 24.6469937,8.80274737 24.8765127,8.80274737 C25.2085501,8.80274737 25.4656113,8.84204903 25.6385155,8.91448737 C25.8091246,8.98615509 25.8925165,9.11561937 25.8925165,9.29671522 L25.8779803,9.41693205 L25.7586304,9.49245287 C25.2774057,9.52250708 24.9308322,9.56720308 24.5184631,9.62731149 C24.1114496,9.68510804 23.7503398,9.78451811 23.4512001,9.92245921 C23.1314037,10.0642534 22.892704,10.2569086 22.7282155,10.4973422 C22.5667871,10.741629 22.4856905,11.0367767 22.4856905,11.3797029 C22.4856905,11.7079873 22.6027451,11.9784752 22.8299689,12.1865427 C23.0594878,12.3876747 23.3555672,12.4901673 23.7143818,12.4901673 C23.9416056,12.4901673 24.1175701,12.4755255 24.2430404,12.4423888 L24.6492889,12.3036771 L24.9966276,12.1110219 L25.3103035,11.89756 L25.316424,11.9037249 L25.2865865,12.0385836 L25.2835262,12.041666 L25.2865865,12.0447485 C25.2475683,12.210432 25.3462614,12.3460612 25.5099849,12.360703 L25.5099849,12.3637855 L26.2903493,12.3637855 L26.3025903,12.360703 C26.4663138,12.3398962 26.6254469,12.204267 26.6606398,12.041666 L27.2734554,9.37454791 L27.3063531,9.15492102 L27.3247146,8.95070654 C27.3247146,8.57387304 27.1632863,8.29413773 26.8434899,8.1138125 L26.8434899,8.1138125 Z M25.4923885,11.1176919 L25.3546771,11.2949346 L25.0295253,11.466783 C24.8734524,11.5268914 24.7242651,11.5600281 24.589614,11.5600281 C24.3776915,11.5600281 24.2193235,11.5299739 24.1114496,11.4698655 L23.9477261,11.153911 C23.9477261,10.9789801 23.9890395,10.8441215 24.0701362,10.7385465 C24.1504678,10.6391364 24.2728779,10.5551388 24.4281857,10.4942597 C24.5781381,10.4433988 24.7663436,10.4010146 24.9813263,10.3709604 C25.1725921,10.3439887 25.5520634,10.3016046 25.6002624,10.2992927 L25.6599373,10.4040971 C25.6507565,10.4611231 25.5428826,10.9127068 25.4923885,11.1176919 L25.4923885,11.1176919 Z M29.996315,6.90624991 L28.8724373,12.041666 L28.8303588,12.1048569 C28.7645634,12.2466511 28.6245568,12.3637855 28.469249,12.3637855 L27.6888847,12.3637855 L27.6743485,12.3460612 C27.5243961,12.3244838 27.4287632,12.204267 27.4647212,12.0447485 L27.4616609,12.041666 L27.4945586,11.8944775 L28.5495807,7.07809832 L28.5855386,6.90933239 L28.6276171,6.84305901 C28.6964728,6.70203543 28.8364793,6.58721295 28.9887269,6.58721295 L29.742314,6.58721295 C29.9243991,6.58413047 30.032273,6.72900715 29.996315,6.90624991 L29.996315,6.90624991 Z M32.7872652,6.29514772 L32.8500004,6.52402206 L32.8500004,7.05960342 L32.7130541,7.05960342 L32.7130541,6.59029543 L32.7038733,6.48780288 L32.6885721,6.4099702 L32.6380779,6.36142109 L32.5485655,6.34369682 L32.4315109,6.37375102 L32.3182815,6.44850123 L32.3182815,6.48780288 L32.3213418,6.5332695 L32.3213418,7.05960342 L32.1836304,7.05960342 L32.1836304,6.58721295 L32.1775099,6.48780288 L32.1568532,6.40688771 L32.1117145,6.36142109 L32.0191418,6.34369682 L31.9059125,6.37066854 L31.7919181,6.44310688 L31.7919181,7.05652094 L31.6549718,7.05652094 L31.6549718,6.2350393 L31.7919181,6.2350393 L31.7919181,6.32520192 L31.9204487,6.24120427 L32.0581601,6.21115006 L32.1989317,6.24736923 L32.2853838,6.34369682 L32.4376314,6.24120427 L32.5845235,6.21115006 L32.7872652,6.29514772 Z" id="money" fill="#A0A0A0"></path>
            </g>
        </g>
    </g>
</svg>