<svg xmlns="http://www.w3.org/2000/svg" viewBox="0 0 48 48"><path class="st0" d="M7 12c.6 0 1-.4 1-1V2.5c0-.3.2-.5.5-.5h22c.3 0 .5.2.5.5V10c0 1.1.9 2 2 2h7.6c.4 0 .8-.2.9-.6.2-.4.1-.8-.2-1.1L31.6.6c-.4-.4-.9-.6-1.4-.6H8C6.9 0 6 .9 6 2v9c0 .6.4 1 1 1zm26-6.6c0-.1.1-.2.2-.2s.2 0 .3.1l4.3 4.3c.1.1.1.2.1.3 0 .1-.1.2-.2.2h-4.3c-.3-.1-.4-.2-.4-.3V5.4zM35 35H13c-.5 0-1 .5-1 1s.5 1 1 1h22c.5 0 1-.5 1-1s-.5-1-1-1zm0 6H13c-.5 0-1 .5-1 1s.5 1 1 1h22c.5 0 1-.5 1-1s-.5-1-1-1z"/><path class="st0" d="M44 14H4c-2.2 0-4 1.8-4 4v16c0 2.2 1.8 4 4 4h1c.5 0 1-.4 1-1s-.4-1-1-1H4c-1.1 0-2-.9-2-2V18c0-1.1.9-2 2-2h40c1.1 0 2 .9 2 2v16c0 1.1-.9 2-2 2h-1c-.5 0-1 .4-1 1s.4 1 1 1h1c2.2 0 4-1.8 4-4V18c0-2.2-1.8-4-4-4z"/><path class="st0" d="M14 23c0-2.2-1.8-4-4-4s-4 1.8-4 4 1.8 4 4 4 4-1.8 4-4zm-6 0c0-1.1.9-2 2-2s2 .9 2 2-.9 2-2 2-2-.9-2-2zm30 7H10c-1.1 0-2 .9-2 2v14c0 1.1.9 2 2 2h28c1.1 0 2-.9 2-2V32c0-1.1-.9-2-2-2zm0 15.5c0 .3-.2.5-.5.5h-27c-.3 0-.5-.2-.5-.5v-13c0-.3.2-.5.5-.5h27c.3 0 .5.2.5.5v13z"/></svg>