<svg xmlns="http://www.w3.org/2000/svg" viewBox="0 0 48 48"><path class="st0" d="M21 4c-.5 0-1 .5-1 1s.5 1 1 1h6c.5 0 1-.5 1-1s-.5-1-1-1h-6z"/><path class="st0" d="M17 8c.6 0 1-.4 1-1V2.5c0-.3.2-.5.5-.5h11c.3 0 .5.2.5.5V7c0 .6.4 1 1 1s1-.4 1-1V2c0-1.1-.9-2-2-2H18c-1.1 0-2 .9-2 2v5c0 .6.4 1 1 1zm22 2H9c-1.7 0-3 1.3-3 3v2c0 1.4 1 2.5 2.2 2.9l3.5 28.4c.1 1 1 1.8 2 1.8h20.5c1 0 1.9-.8 2-1.8l3.5-28.4C41 17.5 42 16.4 42 15v-2c0-1.7-1.3-3-3-3zm-4.7 35.6c0 .2-.2.4-.5.4H14.2c-.3 0-.5-.2-.5-.4L10.3 18h27.5l-3.5 27.6zM40 15c0 .5-.5 1-1 1H9c-.5 0-1-.5-1-1v-2c0-.5.5-1 1-1h30c.5 0 1 .5 1 1v2z"/><path class="st0" d="M29.7 34.6c.5 0 1.2 0 1.6-.1.4 0 .7-.2 1-.5.5-.5 1.1-1.4.2-2.8-.2-.3-.4-.7-.7-1.2l-1-1.7-3.6 2.2 2.5 4.1z"/><path class="st0" d="M27 35.3v-1.9l-2.1 4 2.1 3.9v-1.9h1.7c.9 0 1.7-.5 2.1-1.2.4-.8 1.1-1.9 1.9-3.4-1 .5-1.9.5-3.3.5H27zm-12-2.2c0 .4.2.6 2.5 4.5-.1-1 .3-1.5 2.4-5l1.3.7-2-3.6H15l1.3.8c-1 1.9-1.3 2.2-1.3 2.6z"/><path class="st0" d="M18.5 36.7c-.2.3-.2.7-.1 1.1.3 1.1 1.2 1.6 2.3 1.6H24v-4.1h-4.7c-.3.4-.6 1-.8 1.4zM23.8 26c-.3-.4-.6-1-.9-1.4-.2-.3-.5-.5-.9-.6-.7-.2-1.8-.2-2.5 1.1-.2.3-.4.7-.7 1.2l-1 1.7 3.6 2.1 2.4-4.1z"/><path class="st0" d="M23.7 24.4c.4.7 1 1.7 2 3.5l-1.3 1 4.5-.2 1.8-3.7-1.4.7c-1-1.7-1.2-2.1-1.5-2.4-.2-.1-.4-.1-.6-.1h-4.6c.5.3.7.5 1.1 1.2z"/></svg>