<svg xmlns="http://www.w3.org/2000/svg" viewBox="0 0 48 48"><path class="st0" d="M39.9 29.1l6 9.8v.1H29.5c-.3 0-.5.2-.5.5v3.1c0 .1-.1.2-.1.2h-.3l-6.9-5.7c-.1 0-.1-.1-.1-.2s0-.1.1-.2c1.7-1.4 4.3-3.5 6.9-5.7.1-.1.2-.1.3 0 .1 0 .1.1.1.2v3.3c0 .1.1.3.1.4.1.1.2.1.4.1h8.9c.2 0 .3-.1.4-.2.1-.1.1-.3 0-.4l-3.7-6v-.3c0-.1.1-.1.2-.1h3.6c.2 0 .3.1.4.2l.6.9zm-.6-3.1h-6.1c-.4 0-.7.2-.9.5-.2.3-.2.7 0 1l3.2 5.2v.2c0 .1-.1.1-.2.1h-4c-.1 0-.2-.1-.2-.2v-4.2c0-.4-.2-.7-.6-.9-.1-.1-.3-.1-.4-.1-.2 0-.5.1-.6.2-3.9 3.2-8.2 6.8-10.1 8.3-.2.2-.4.5-.4.8 0 .3.1.6.4.8l10.1 8.4c.2.2.4.2.6.2.1 0 .3 0 .4-.1.4-.2.6-.5.6-.9v-4c0-.1.1-.3.2-.3H46c.7 0 1.4-.4 1.8-1 .4-.6.3-1.4 0-2.1L41 27c-.4-.6-1-1-1.7-1zm-8.9-12.5l.7 1.1c.1.2.3.3.4.3.2 0 .4 0 .5-.1l1.1-.7L35 13c.1-.1.2-.1.3 0 .1.1.1.1.1.2L34.3 22c0 .1-.1.1-.1.2-.1 0-.1.1-.2 0l-8.5-2.7c-.1 0-.2-.1-.2-.2s0-.2.1-.2l1.3-.8 1.2-.8c.2-.2.3-.5.2-.7l-.8-1.2-1.8-2.9-1.3-2.1c-.1-.1-.3-.2-.4-.2-.2 0-.3.1-.4.2l-1.3 2.1-2.3 3.8c0 .1-.1.1-.2.1s-.2 0-.2-.1l-1.9-2.9c-.1-.1-.1-.2 0-.3.7-1.1 5-8.3 6.1-9.9 0-.1.1-.1.2-.1s.2 0 .2.1l6.4 10.1zM23.9 1c-.7 0-1.4.4-1.8 1l-6.6 10.9c-.2.3-.2.7 0 1.1l3.4 5.2c.2.3.5.5.8.5.3 0 .7-.2.8-.5l3.2-5.4.1-.1s.1 0 .1.1l1.6 2.6c.1.1 0 .3-.1.3l-3.3 2.1c-.3.2-.5.6-.4 1 0 .4.3.7.7.8l12.4 3.9h.3c.2 0 .4-.1.5-.2.2-.2.4-.4.5-.7l1.6-12.9c0-.4-.1-.8-.5-1-.2-.1-.4-.2-.5-.2-.2 0-.4.1-.5.2l-3.8 2.5h-.2c-.1 0-.1-.1-.2-.1L25.6 2c-.4-.6-1-1-1.7-1zm-9 20.3l2 7.3c0 .1 0 .2-.1.3-.1.1-.2.1-.3 0l-1.5-.8-1.3-.6c-.2-.1-.4 0-.5.2-.6 1.1-3.7 6.1-4 6.5-.1.2-.1.3 0 .5s.2.3.4.3h6.2c.1 0 .2.1.2.1v.3l-2.2 3.4c-.1.1-.2.2-.4.2H2.8c-.2 0-.3-.1-.4-.3-.1-.2-.1-.3 0-.5 6.7-11.1 5.8-9.6 7.2-11.9.1-.1.1-.3.1-.4 0-.1-.1-.2-.3-.3-1.8-.8-1.3-.6-3.2-1.4-.1 0-.1-.1-.1-.2s.1-.2.1-.2l8-3.9h.2c.1 0 .1.1.1.2l.4 1.2zm.2-4.1c-.2 0-.3 0-.4.1L2.9 23.1c-.4.2-.6.5-.6.9s.2.7.6.9L7 26.7.3 37.9c-.4.6-.4 1.4 0 2.1.4.6 1.1 1 1.8 1h11.7c.7 0 1.3-.3 1.7-.9l3.6-5.5c.2-.3.2-.7 0-1-.2-.3-.5-.5-.9-.5h-5.6s-.1 0-.1-.1v-.1l.4-.6 1.3-2.1c.1-.1.2-.2.3-.1l3.8 1.7c.1.1.3.1.4.1.2 0 .5-.1.6-.2.3-.3.4-.7.3-1L16 18c-.1-.3-.3-.5-.5-.6-.1-.1-.3-.2-.4-.2z"/></svg>