<svg xmlns="http://www.w3.org/2000/svg" viewBox="0 0 48 48"><path class="st0" d="M39.3 30.1c1.4 0 3.1-.1 4.3-.3 1-.1 1.9-.6 2.6-1.3 1.3-1.3 2.8-3.8.6-7.4-.5-.9-1.2-1.9-1.9-3.2l-2.8-4.5-9.5 5.8 6.7 10.9z"/><path class="st0" d="M32 27l-5.5 10.6L32.1 48l-.1-5h4.4c2.3 0 4.5-1.3 5.7-3.3 1.2-2 2.8-5 5-9.1-2.7 1.4-5 1.4-8.7 1.4H32v-5zm-20.6 5c-.7 1.2-1.5 2.7-2 3.8-.4.9-.5 1.9-.3 2.9.7 3 3.3 4.2 6 4.2H24V32H11.4zm5.2-4.9l-5.3-9.7H0l3.5 2.2C.9 24.1.1 25 .1 26.2c0 1.2.5 1.5 6.7 12.1-.4-2.6.9-3.9 6.3-13.2l3.5 2zm7-19.8c-.7-1.2-1.6-2.7-2.3-3.7-.6-.8-1.4-1.4-2.4-1.7-1.8-.5-4.7-.6-6.8 3-.5.9-1.1 1.9-1.8 3.2l-2.6 4.6 9.6 5.5 6.3-10.9z"/><path class="st0" d="M25 15l12-.6 4.8-9.7-3.6 2c-2.6-4.5-3.1-5.5-4-6.3-.5-.4-1.1-.4-1.7-.4H20.3c1.2.5 1.9 1.2 3 2.9 1.1 1.8 2.6 4.6 5.3 9.4L25 15z"/></svg>