<svg xmlns="http://www.w3.org/2000/svg" viewBox="0 0 48 48"><path class="st0" d="M26.6 23.1c-.6-.2-1.1-.3-1.6-.5v-4.4c.8.1 1.5.4 2.1.8.2.2.5.2.8.1.3-.1.5-.2.6-.5l.1-.1c.3-.4.1-1-.3-1.3-1.1-.7-2.1-1-3.3-1.1V16c0-.5-.5-1-1-1s-1 .5-1 1v.2c-2.6.3-4.2 2-4.2 4.3 0 2.6 2.1 3.3 4.2 3.9v4.4c-1.1-.2-2-.5-2.9-1.2-.2-.2-.5-.2-.8-.2-.3.1-.5.2-.7.5l-.1.1c-.2.4-.1 1 .3 1.3 1.3.9 2.6 1.4 4.1 1.5V32c0 .5.5 1 1 1s1-.5 1-1v-1c1.4-.1 3.3-.6 4.2-2.3.3-.5.4-1.1.4-1.8.1-2.1-1-3.1-2.9-3.8zM21 20.3c0-.6.2-1.1.6-1.5.3-.3.8-.5 1.4-.6v3.9c-1.2-.2-2-.7-2-1.8zm6.1 7.6c-.2.4-.8.9-2.1 1.1v-4c.9.3 1.7.6 2.1 1.3.2.3.3 1 0 1.6z"/><path class="st0" d="M24 8C15.2 8 8 15.2 8 24s7.2 16 16 16 16-7.2 16-16S32.9 8 24 8zm0 30c-7.7 0-14-6.3-14-14s6.3-14 14-14 14 6.3 14 14-6.3 14-14 14z"/><path class="st0" d="M45.6 19.6c-.1-.3-.2-.5-.5-.6-.3-.1-.5-.1-.8 0l-.1.1c-.4.2-.6.6-.5 1.1 1.7 8.4-2.3 17.4-10.3 21.6-8 4.2-17.6 2.4-23.6-3.7-.4-.2-.6-.4-1-.2-.7 0-1 .6-.8 1.1l1.9 5.7c.2.5.8.8 1.3.6.5-.2.8-.8.6-1.3l-.8-2.2c6.6 4.7 15.5 5.7 23.1 1.6 9-4.6 13.4-14.5 11.5-23.8zM14.7 6.3c8-4.2 17.6-2.4 23.6 3.7.4.2.6.4 1 .2.5-.2.8-.8.6-1.3L38 3.3c-.2-.5-.8-.8-1.3-.6-.5.2-.7.7-.6 1.3l.8 2.2C30.3 1.5 21.4.5 13.8 4.6 4.9 9.2.5 19.1 2.4 28.4c.1.3.2.5.5.6.3.1.5.1.8 0l.1-.1c.4-.2.6-.6.5-1.1-1.6-8.4 2.4-17.3 10.4-21.5z"/></svg>