<svg xmlns="http://www.w3.org/2000/svg" viewBox="0 0 48 48"><path class="st0" d="M24 8C15.2 8 8 15.2 8 24s7.2 16 16 16 16-7.2 16-16S32.9 8 24 8zm0 30c-7.7 0-14-6.3-14-14s6.3-14 14-14 14 6.3 14 14-6.3 14-14 14z"/><path class="st0" d="M45.6 19.6c-.1-.3-.2-.5-.5-.6-.3-.1-.5-.1-.8 0l-.1.1c-.4.2-.6.6-.5 1.1 1.7 8.4-2.3 17.4-10.3 21.6-8 4.2-17.6 2.4-23.6-3.7-.4-.2-.6-.4-1-.2-.7 0-1 .6-.8 1.1l1.9 5.7c.2.5.8.8 1.3.6.5-.2.8-.8.6-1.3l-.8-2.2c6.6 4.7 15.5 5.7 23.1 1.6 9-4.6 13.4-14.5 11.5-23.8zM14.7 6.3c8-4.2 17.6-2.4 23.6 3.7.4.2.6.4 1 .2.5-.2.8-.8.6-1.3L38 3.3c-.2-.5-.8-.8-1.3-.6-.5.2-.7.7-.6 1.3l.8 2.2C30.3 1.5 21.4.5 13.8 4.6 4.9 9.2.5 19.1 2.4 28.4c.1.3.2.5.5.6.3.1.5.1.8 0l.1-.1c.4-.2.6-.6.5-1.1-1.6-8.4 2.4-17.3 10.4-21.5z"/><path class="st0" d="M28.5 29.8c-.1-.3-.5-.5-.8-.4-.9.3-1.6.3-2.5 0-.6-.2-1.2-.3-1.9-.3 0 0-.1 0-.1-.1v-.1c1.1-1.5 1.3-2.8 1.1-3.9h2.2c.5 0 1-.5 1-1s-.5-1-1-1h-2.9l-.3-.6c-1.7-3.3.2-4 1.2-4 .7 0 1.6.4 2.2 1.1.2.2.4.3.6.3.2 0 .5-.1.6-.3.3-.4.4-1 0-1.3-1-1.1-2.2-1.6-3.5-1.6-1.6 0-3 .8-3.7 2.2-.4.8-.4 1.6-.2 2.4.2.6.5 1.2.8 1.8 0 .1.1.1.1.2h-1c-.5 0-1 .5-1 1s.5 1 1 1h1.8c.2.8.1 1.6-.4 2.6-.4.7-.9 1.3-1.3 1.7-.3.3-.4.7-.2 1.1l.1.1c.2.5.7.7 1.1.6.3-.1.6-.1 1-.1 1.4 0 2.9.5 3.8.5.5 0 1-.1 1.5-.3.5-.2.8-.7.6-1.2l.1-.4z"/></svg>