<svg xmlns="http://www.w3.org/2000/svg" viewBox="0 0 48 48"><path class="st0" d="M24 8C15.2 8 8 15.2 8 24s7.2 16 16 16 16-7.2 16-16S32.9 8 24 8zm0 30c-7.7 0-14-6.3-14-14s6.3-14 14-14 14 6.3 14 14-6.3 14-14 14z"/><path class="st0" d="M45.6 19.6c-.1-.3-.2-.5-.5-.6-.3-.1-.5-.1-.8 0l-.1.1c-.4.2-.6.6-.5 1.1 1.7 8.4-2.3 17.4-10.3 21.6-8 4.2-17.6 2.4-23.6-3.7-.4-.2-.6-.4-1-.2-.7 0-1 .6-.8 1.1l1.9 5.7c.2.5.8.8 1.3.6.5-.2.8-.8.6-1.3l-.8-2.2c6.6 4.7 15.5 5.7 23.1 1.6 9-4.6 13.4-14.5 11.5-23.8zM14.7 6.3c8-4.2 17.6-2.4 23.6 3.7.4.2.6.4 1 .2.5-.2.8-.8.6-1.3L38 3.3c-.2-.5-.8-.8-1.3-.6-.5.2-.7.7-.6 1.3l.8 2.2C30.3 1.5 21.4.5 13.8 4.6 4.9 9.2.5 19.1 2.4 28.4c.1.3.2.5.5.6.3.1.5.1.8 0l.1-.1c.4-.2.6-.6.5-1.1-1.6-8.4 2.4-17.3 10.4-21.5z"/><path class="st0" d="M28.3 27.6c-.8 1.1-2.1 1.7-3.4 1.7-2 0-3.7-1.4-4.5-3.5-.1-.3-.1-.6-.1-.9H25c.5 0 1-.5 1-1s-.5-1-1-1h-4.8c.2-1.9 1.2-3.3 2.8-4.1.5-.2 1.1-.3 1.7-.3.8 0 2.3.2 3.4 1.6.7 1 2.5-.1 1.7-1.2-1.1-1.6-2.9-2.4-5-2.4-4 0-6.6 3.2-6.9 6.4H17c-.5 0-1 .5-1 1s.5 1 1 1h1c.2 1.1.5 2.1 1.1 3 1.3 2.1 3.4 3.4 5.7 3.4 2.2 0 4.2-.9 5.3-2.5.7-1.1-1-2.3-1.8-1.2z"/></svg>