<svg xmlns="http://www.w3.org/2000/svg" viewBox="0 0 48 48"><path class="st0" d="M44 2H4C1.8 2 0 3.8 0 6s1.8 4 4 4h8v7c0 .5.5 1 1 1s1-.5 1-1v-7h20v7c0 .5.5 1 1 1s1-.5 1-1v-7h8c2.2 0 4-1.8 4-4s-1.8-4-4-4zm0 6H4c-1.1 0-2-.9-2-2s.9-2 2-2h40c1.1 0 2 .9 2 2s-.9 2-2 2z"/><path class="st0" d="M40 14h-1c-.6 0-1 .4-1 1s.4 1 1 1h1c1.1 0 2 .9 2 2v24c0 1.1-.9 2-2 2H8c-1.1 0-2-.9-2-2V18c0-1.1.9-2 2-2h1c.6 0 1-.4 1-1s-.4-1-1-1H8c-2.2 0-4 1.8-4 4v24c0 2.2 1.8 4 4 4h32c2.2 0 4-1.8 4-4V18c0-2.2-1.8-4-4-4z"/><path class="st0" d="M32 15c0-.6-.4-1-1-1H17c-.6 0-1 .4-1 1s.4 1 1 1h14c.6 0 1-.4 1-1zM12.5 26.9c.3 0 .5 0 .8.1l.9.3c.4.2.8 0 1.1-.3.1-.2.1-.3.1-.5-.1-.2-.2-.3-.3-.4-.2-.1-.5-.2-.7-.3-.5-.2-1.1-.3-1.7-.3-.4 0-.8.1-1.2.2-.4.1-.7.3-1 .5-.3.2-.5.5-.7.8-.2.3-.2.7-.2 1.2 0 .3 0 .6.1.9.1.2.2.4.5.6.2.2.5.3.8.5.3.1.7.3 1.1.4l.9.3c.3.1.5.2.7.3.2.1.3.2.4.3.1.1.2.3.2.5 0 .6-.5.9-1.4.9-.3 0-.6 0-1-.1l-.9-.3c-.1 0-.2-.1-.3-.2-.2-.1-.4-.1-.6-.1-.2.1-.4.2-.5.4-.2.4 0 .8.3 1 .3.2.7.3 1.1.4.6.2 1.3.3 1.9.3.4 0 .8 0 1.2-.1.4-.1.7-.2 1-.4.3-.2.5-.5.7-.8.2-.3.3-.7.3-1.2 0-.4-.1-.7-.2-1-.1-.3-.3-.5-.5-.7-.2-.2-.5-.4-.9-.5-.3-.1-.7-.2-1.1-.4-.3-.1-.6-.2-.8-.2-.2-.1-.4-.2-.6-.2s-.3-.2-.4-.3c-.1-.1-.1-.3-.1-.4 0-.3.1-.5.3-.7-.1-.4.2-.5.7-.5zm7.6-1.4c-.4 0-.8.2-.9.6l-2.7 6.8c-.1.2-.1.5.1.8.2.2.4.4.7.4.3 0 .6-.2.8-.5l.6-1.6h3l.6 1.6c.1.3.4.5.8.5.3 0 .5-.1.7-.4.2-.2.2-.5.1-.8L21 26.1c-.1-.4-.5-.6-.9-.6zm1 5.1c0 .1-.1.1-.2.1h-1.7c-.1 0-.2 0-.2-.1s-.1-.2 0-.2l.9-2.4c0-.1.1-.2.2-.2s.2.1.2.2l.8 2.4c.1.1.1.1 0 .2zm4.7-5.1c-.5 0-.8.4-.8.8V33c0 .6.4 1 1 1h4.3c.4 0 .7-.3.7-.7 0-.4-.3-.7-.7-.7h-3.4c-.1 0-.2-.1-.2-.2v-6c0-.5-.4-.9-.9-.9zm8.2 1.4h3.2c.4 0 .7-.3.7-.7 0-.4-.3-.7-.7-.7h-4.1c-.6 0-1 .4-1 1V33c0 .6.4 1 1 1h4.2c.4 0 .7-.3.7-.7 0-.4-.3-.7-.7-.7H34c-.1 0-.2-.1-.2-.2v-1.7c0-.1.1-.2.2-.2h2.7c.3 0 .6-.3.6-.6 0-.4-.3-.7-.7-.7H34c-.1 0-.2-.1-.2-.2v-1.6c-.1-.4.1-.5.2-.5z"/></svg>