<svg xmlns="http://www.w3.org/2000/svg" viewBox="0 0 48 48"><path class="st0" d="M47 25c-.7 0-1.3-.1-1.7-.2.9-1.2 1.2-2.6 1-3.7-.2-1.1-.8-2-1.7-2.6-.8-.5-1.8-.7-2.9-.4-.9.2-1.6.8-2.1 1.6-.5 1-.7 2.2-.3 3.4.3 1.1 1.2 1.9 2.1 2.4-.7.3-1.4.5-2.1.5h-.1c-1-3-3.1-5.6-5.9-7.3-.4-.2-.9-.2-1.2.1-.2.2-.3.5-.3.8 0 .3.2.6.5.7 3.1 2 5.2 5 5.6 8.5 0 .4.1.8.1 1.2 0 1.8-.5 3.5-1.3 5.1-.1.2-.3.5-.4.7-.2.4-.5.7-.8 1.1-.5.6-1 1.1-1.6 1.6.2.7.5 1.4.7 2 .2.5.3.9.3 1 .4 1.2.8 2.3 1.1 3.1.1.3.1.6-.1.9-.3.3-.6.5-.9.5h-3.7c-.4 0-.8-.3-1-.7l-.6-1.7-.2-.5-.5-1.9c-.6.2-1.3.4-1.9.5-1 .2-2 .3-3 .3H23l-2-.3-.6 1.9-.6 1.7c-.1.4-.5.7-1 .7H15c-.3 0-.6-.2-.8-.4-.2-.3-.2-.6-.1-.9.2-.7.6-1.9 1-3v-.1c.2-.6.4-1.3.6-1.9-.5-.3-1.2-.8-1.7-1.2l-.1-.1-.1-.1-.5-.4-.6-.1c-1.2-.2-2.3-.6-3.2-1.2-.8-.5-1.4-1.1-2-1.9l-2.3.2-1.3.1c-.5 0-.9-.3-1-.7L2 31.5c-.1-.3 0-.6.1-.8.1-.2.4-.4.6-.5.5-.1.9-.2 1.3-.3 1-.2 1.6-.4 2-.6 0-.8.2-1.5.4-2.1.4-1.1 1-2 1.8-2.8L9.9 23c-.1-.5-.3-1.1-.5-1.7 0-.1 0-.2-.1-.2-.2-.8-.4-1.7-.7-2.7l4.1 1.5 1.7.6c.3.1.6.1.9-.1.3-.2.5-.6.4-1 0-.4-.3-.7-.7-.8l-.5-.2-5.3-2c-.7-.3-1.5-.1-2 .4-.6.5-.8 1.2-.6 2 .4 1.4.6 2.5.9 3.4-1.7 1.4-3 3.4-3.4 5.6-.6.1-1.2.3-1.9.5-.8.2-1.5.7-1.9 1.4-.3.7-.4 1.5-.2 2.3l.8 2.8c.4 1.3 1.6 2.2 2.9 2.2H4l2.7-.2c1.5 1.6 3.5 2.7 5.8 3 .2.2.5.4.8.6 0 0 .1 0 .1.1-.5 1.3-.9 2.7-1.2 3.5-.3.9-.2 1.9.4 2.7.5.8 1.4 1.3 2.4 1.3h3.7c1.3 0 2.4-.8 2.8-2.1l.7-2c.6.1 1.2.1 1.8.1 1.3 0 2.5-.1 3.7-.4l.1.3.7 2c.4 1.2 1.5 2.1 2.8 2.1H35c1 0 1.9-.5 2.4-1.3.6-.8.7-1.8.4-2.7-.3-.8-.8-2.3-1.2-3.6-.1-.2-.2-.7-.4-1.3l.2-.2c.3-.4.7-.7 1-1.1.4-.5.7-.9 1-1.4v-.1c1.1-1.9 1.7-4 1.7-6.3 0-.7-.1-1.4-.2-2 1.4-.1 2.7-.6 3.9-1.5h.1c.6.3 1.9.5 3.2.5.3 0 .5-.1.7-.3.2-.2.3-.4.3-.7-.1-.5-.5-1-1.1-1zm-3.6-.9l-.1.1c-.9-.4-1.7-1-1.9-1.7-.2-.6-.1-1.3.2-1.8.2-.4.5-.6.8-.7.2 0 .3-.1.5-.1.3 0 .6.1.8.2.4.2.7.7.8 1.2 0 .9-.4 1.9-1.1 2.8z"/><path class="st0" d="M24 20c5.5 0 10-4.5 10-10S29.5 0 24 0 14 4.5 14 10s4.5 10 10 10zm0-18c4.4 0 8 3.6 8 8s-3.6 8-8 8-8-3.6-8-8 3.6-8 8-8z"/></svg>