<svg xmlns="http://www.w3.org/2000/svg" viewBox="0 0 48 48"><path class="st0" d="M48 16.5V16C48 7.2 37.2 0 24 0S0 7.2 0 16v16.7C.5 41.2 11.1 48 24 48s23.5-6.8 24-15.3V16.5zm-2 16.1C45.5 40 35.6 46 24 46 12.3 46 2.5 40 2 32.6V22.4C5.7 28 14.2 32 24 32s18.3-3.9 22-9.6v10.2zM45.8 18C44.2 24.8 35.1 30 24 30 12.9 30 3.8 24.8 2.2 18c-.1-.7-.2-1.3-.2-2C2 8.3 11.9 2 24 2s22 6.3 22 14c0 .7-.1 1.3-.2 2z"/><path class="st0" d="M8.5 33.9c11 5.7 20.8 5.7 30.9 0 .3-.2.5-.5.5-.9s-.2-.7-.5-.9c-.3-.2-.7-.2-1 0-9.4 5.3-19 5.5-28.9 0-.3-.2-.7-.2-1 0-.3.3-.5.6-.5.9 0 .4.2.8.5.9z"/><path class="st0" d="M39.4 37.2c-.3-.2-.7-.2-1 0-9.4 5.3-19.1 5.5-29-.1-.3-.2-.7-.2-.9 0-.3.2-.5.5-.5.9s.2.7.5.9c11 5.9 20.8 5.5 30.9 0 .3-.2.5-.5.5-.9 0-.3-.2-.6-.5-.8zM28.5 21.8c-.1-.3-.5-.5-.8-.4-.9.3-1.6.3-2.5 0-.6-.2-1.2-.3-1.9-.3 0 0-.1 0-.1-.1v-.1c1.1-1.5 1.3-2.8 1.1-3.9h2.2c.5 0 1-.5 1-1s-.5-1-1-1h-2.9l-.3-.6c-1.7-3.3.2-4 1.2-4 .7 0 1.6.4 2.2 1.1.2.2.4.3.6.3.2 0 .5-.1.6-.3.3-.4.4-1 0-1.3-1-1.1-2.2-1.6-3.5-1.6-1.6 0-3 .8-3.7 2.2-.4.8-.4 1.6-.2 2.4.2.6.5 1.2.8 1.8 0 .1 0 .1.1.2h-1c-.5 0-1 .5-1 1s.5 1 1 1h1.8c.2.8.1 1.7-.4 2.6-.4.7-.9 1.3-1.3 1.7-.3.3-.4.7-.2 1.1l.1.1c.2.5.7.7 1.1.6.3-.1.6-.1 1-.1 1.4 0 2.9.5 3.8.5.5 0 1-.1 1.5-.3.5-.2.8-.7.6-1.2l.1-.4z"/></svg>