<svg xmlns="http://www.w3.org/2000/svg" viewBox="0 0 48 48"><path class="st0" d="M26.6 15.1c-.5-.2-1.1-.3-1.6-.5v-4.4c.8.1 1.5.4 2.1.8.2.2.5.2.8.1.3-.1.5-.2.6-.5v-.1c.3-.4.1-1-.3-1.3-1.1-.7-2.1-1-3.2-1.1V7c0-.5-.5-1-1-1s-1 .5-1 1v1.2c-2.6.3-4.2 1.9-4.2 4.3 0 2.6 2.1 3.3 4.2 3.9v4.4c-1.1-.2-2-.5-2.9-1.2-.2-.2-.5-.2-.8-.2-.3.1-.5.2-.7.5l-.1.1c-.3.4-.1 1 .3 1.3 1.3.9 2.6 1.3 4.1 1.5V24c0 .5.5 1 1 1s1-.5 1-1v-1c1.4-.1 3.3-.6 4.1-2.3.3-.5.4-1.1.4-1.8.2-2-.9-3.1-2.8-3.8zM21 12.3c0-.6.2-1.1.6-1.5.3-.3.8-.5 1.4-.6v4c-1.2-.3-2-.8-2-1.9zm6.1 7.6c-.2.4-.8.9-2.1 1v-4c.9.3 1.7.6 2 1.3.3.4.4 1.1.1 1.7z"/><path class="st0" d="M48 16.5V16C48 7.2 37.2 0 24 0S0 7.2 0 16v16.7C.5 41.2 11.1 48 24 48s23.5-6.8 24-15.3V16.5zm-2 16.1C45.5 40 35.6 46 24 46 12.3 46 2.5 40 2 32.6V22.4C5.7 28 14.2 32 24 32s18.3-3.9 22-9.6v10.2zM45.8 18C44.2 24.8 35.1 30 24 30S3.8 24.8 2.2 18c-.1-.7-.2-1.3-.2-2C2 8.3 11.9 2 24 2s22 6.3 22 14c0 .7-.1 1.3-.2 2z"/><path class="st0" d="M39.4 32.2c-.3-.2-.7-.2-1 0-9.4 5.3-19 5.5-28.9 0-.3-.2-.7-.2-1 0-.3.2-.5.5-.5.8 0 .4.2.7.5.9 11 5.7 20.8 5.7 30.9 0 .3-.2.5-.5.5-.9 0-.3-.2-.6-.5-.8z"/><path class="st0" d="M39.4 37.2c-.3-.2-.7-.2-1 0-9.4 5.3-19.1 5.5-29 0-.3-.2-.7-.2-.9 0-.3.1-.5.4-.5.8s.2.7.5.9c11 5.9 20.8 5.5 30.9 0 .3-.2.5-.5.5-.9 0-.3-.2-.6-.5-.8z"/></svg>