<svg xmlns="http://www.w3.org/2000/svg" viewBox="0 0 48 48"><path class="st0" d="M6 15.7v21.2c0 .6.4 1 1 1s1-.4 1-1V16c3.3 0 6-2.7 6-6V9c0-.3 0-.7-.1-1h20.2c-.1.3-.1.7-.1 1v1c0 3.3 2.7 6 6 6v21c0 .6.4 1 1 1s1-.4 1-1V15.7c3.4-.9 6-4 6-7.7 0-2.1-.8-4.1-2.3-5.7C44.1.8 42.1 0 40 0H8C5.9 0 3.9.8 2.3 2.3.9 3.8 0 5.9 0 8c0 3.7 2.6 6.8 6 7.7zM3.8 3.8C4.9 2.6 6.4 2 8 2h32c1.6 0 3.1.6 4.2 1.8C45.4 4.9 46 6.4 46 8c0 3.3-2.7 6-6 6-2.2 0-4-1.8-4-4V9c0-1.7 1.3-3 3-3s3 1.3 3 3c0 .6.4 1 1 1s1-.4 1-1c0-2.8-2.2-5-5-5-1.6 0-3.1.8-4 2H13.1c-.9-1.2-2.4-2-4-2C6.2 4 4 6.2 4 9c0 .6.4 1 1 1s1-.4 1-1c0-1.7 1.3-3 3-3s3 1.3 3 3v1c0 2.2-1.8 4-4 4-3.3 0-6-2.7-6-6 0-1.6.6-3.1 1.8-4.2z"/><path class="st0" d="M30.5 14c.6 0 1-.4 1-1s-.4-1-1-1H17.3c-.6 0-1 .4-1 1s.4 1 1 1h13.2zM16 25v10c0 .6.4 1 1 1s1-.4 1-1V25c0-.6-.4-1-1-1s-1 .4-1 1zm14 0v10c0 .6.4 1 1 1s1-.4 1-1V25c0-.6-.4-1-1-1s-1 .4-1 1zm7.5-6c0-.6-.4-1-1-1H11.3c-.6 0-1 .4-1 1s.4 1 1 1h25.2c.5 0 1-.4 1-1zM44 40H4c-1.1 0-2 .9-2 2v4c0 1.1.9 2 2 2h40c1.1 0 2-.9 2-2v-4c0-1.1-.9-2-2-2zm0 4.5v1.3c0 .1-.1.2-.2.2H4.2c-.1 0-.2-.1-.2-.2v-3.5c0-.2.1-.3.2-.3h39.5c.1 0 .2.1.2.2v2.3z"/></svg>