<svg xmlns="http://www.w3.org/2000/svg" viewBox="0 0 48 48"><path class="st0" d="M24 0C10.7 0 0 10.7 0 24s10.7 24 24 24 24-10.7 24-24S37.3 0 24 0zm0 46C11.9 46 2 36.1 2 24S11.9 2 24 2s22 9.9 22 22-9.9 22-22 22z"/><path class="st0" d="M29.5 24.1c-1.4-.7-3.1-1.1-4.5-1.4v-8.4c1.9.2 3.8.8 5.2 1.9.5.4 1.2.3 1.5-.2.4-.5.3-1.3-.2-1.7-1.5-1.2-3.7-2.2-6.5-2.3V9c0-.5-.5-1-1-1s-1 .5-1 1v3c-.8.1-1.5.2-2.2.4-3.2.9-5 3.2-4.9 6.2 0 2.9 1.8 4.9 7.1 6.2v8.8c-1.1-.1-2.2-.3-3.2-.8-1-.4-2-.9-3-1.6-.6-.4-1.3-.3-1.7.3-.4.6-.2 1.3.3 1.7 1 .8 2.2 1.4 3.5 1.8 1.4.5 2.7.7 4.2.8v3c0 .5.5 1 1 1s1-.5 1-1v-3c2.4-.1 4.3-.7 5.7-1.8 1.6-1.2 2.6-2.7 2.4-5.1-.2-2.4-1.7-3.9-3.7-4.8zM19.7 21c-1.9-1.1-1.4-3.4-.9-4.4.8-1.5 2.5-2.2 4.2-2.3v7.9c-1.2-.3-2.5-.6-3.3-1.2zm9.1 11.5c-.9.6-2.3 1-3.8 1.1v-8.3c1.2.3 2.6.7 3.5 1.2 2.7 1.6 2.2 4.7.3 6z"/></svg>