<svg xmlns="http://www.w3.org/2000/svg" viewBox="0 0 48 48"><path class="st0" d="M24 0C10.7 0 0 10.7 0 24s10.7 24 24 24 24-10.7 24-24S37.3 0 24 0zm0 46C11.9 46 2 36.1 2 24S11.9 2 24 2s22 9.9 22 22-9.9 22-22 22z"/><path class="st0" d="M32.8 30c-.6-.3-1.2-.1-1.5.4-.7 1-1.6 1.8-2.7 2.4-2.8 1.6-6.6 1.5-9.4-1-1.3-1.1-2.2-2.4-2.7-3.9H23c.5 0 1-.5 1-1s-.5-1-1-1h-7.1c-.1-.6-.2-1.3-.2-2H21c.5 0 1-.5 1-1s-.5-1-1-1h-5.2v-.1c.5-3.1 2.3-5.9 5.3-7.2 2.9-1.3 7.6-.8 9.9 2.8.3.4.8.5 1.2.3l.2-.1c.2-.2.4-.4.5-.7.1-.3 0-.6-.1-.8-2.9-4.6-9-4.9-12.5-3.4-2.5 1.1-4.5 3-5.6 5.4-.6 1.2-1 2.5-1.2 3.8H10c-.5 0-1 .5-1 1s.5 1 1 1h3.3c0 .7.1 1.3.2 2H11c-.5 0-1 .5-1 1s.5 1 1 1h3c1.5 4.4 5 7.3 9.1 7.9 3.8.5 8.2-1.3 10.2-4.4.2-.2.2-.5.1-.8-.1-.2-.3-.4-.6-.6z"/></svg>