<svg xmlns="http://www.w3.org/2000/svg" viewBox="0 0 48 48"><path class="st0" d="M24 0C10.7 0 0 10.7 0 24s10.7 24 24 24 24-10.7 24-24S37.3 0 24 0zm0 46C11.9 46 2 36.1 2 24S11.9 2 24 2s22 9.9 22 22-9.9 22-22 22z"/><path class="st0" d="M30.4 34.3c-.2-.5-.7-.8-1.2-.6-.2.1-.5.1-.7.2-2.3.5-3.7-.4-6-.4-.6 0-1.2.1-1.8.2-.1 0-.2 0-.3.1h-.1v-.1l.3-.3c1.7-1.8 3-3.7 3-6.2 0-.3 0-.7-.1-1H29c.5 0 1-.5 1-1s-.5-1-1-1h-6.1c-.5-1.4-1.3-2.5-1.8-3.5-1-2-1.2-3.9.3-5.5 1.7-1.7 4.8-1.5 6.8.9.2.2.4.3.7.4.3 0 .5-.1.7-.3.3-.3.3-.8.1-1.1-.6-.8-1.3-1.4-2.2-1.9-3.4-2-7.4-.7-8.9 2.5-.3.7-.5 1.4-.5 2.2 0 2.1 1.3 3.8 2.2 5.7.1.2.2.5.3.7H17c-.5 0-1 .5-1 1s.5 1 1 1h4.4c.2.8.2 1.7-.1 2.7-.5 1.7-1.8 3.3-3.3 4.9-.3.3-.4.8-.3 1.2.2.5.7.8 1.2.7.3-.1.6-.1.9-.2 3.5-.5 4.4.6 7.2.6.9 0 1.9-.2 2.8-.5.5-.4.8-.9.6-1.4z"/></svg>