<svg xmlns="http://www.w3.org/2000/svg" viewBox="0 0 48 48"><path class="st0" d="M46 38L32.1 26.2c-.2-.2-.5-.3-.8-.2-.3 0-.5.2-.7.4-.3.4-.2 1 .2 1.3l13.9 11.7c.8.7 1.2 1.6 1.3 2.7 0 1-.3 2-1.1 2.8-.7.7-1.6 1.1-2.6 1.1h-.1c-1 0-2-.5-2.7-1.3L27.8 30.8c-.3-.4-.9-.5-1.3-.2-.2.2-.4.4-.4.7 0 .3 0 .6.2.8L38 46c1 1.2 2.5 1.9 4.1 2h.2c1.5 0 2.9-.6 4-1.7S48 43.6 48 42c-.1-1.5-.8-3-2-4zM27.3 4.7C24.2 1.6 20.1 0 16 0 11.9 0 7.8 1.6 4.7 4.7c-6.2 6.2-6.2 16.4 0 22.6C7.8 30.4 11.9 32 16 32c2.8 0 5.6-.7 8.1-2.2.6-.3 1.1-.7 1.7-1.1.5-.4 1.1-.9 1.6-1.4.4-.4.8-.8 1.1-1.3.4-.5.8-1.1 1.2-1.6 3.7-6.2 3-14.4-2.4-19.7zm.8 18.4c-.3.6-.7 1.1-1.1 1.7-.3.4-.6.8-1 1.1-.5.5-1 .9-1.5 1.3s-1.1.8-1.7 1.1c-2 1.1-4.3 1.7-6.7 1.7-3.7 0-7.3-1.5-9.9-4.1C3.5 23.3 2 19.7 2 16s1.5-7.2 4.1-9.9C8.7 3.5 12.3 2 16 2s7.2 1.5 9.9 4.1C28.5 8.8 30 12.3 30 16c0 2.5-.7 5-1.9 7.1z"/></svg>