<svg xmlns="http://www.w3.org/2000/svg" viewBox="0 0 48 48"><path class="st0" d="M34 28h-2v-4c0-4.4-3.6-8-8-8s-8 3.6-8 8v4h-2c-1.1 0-2 .9-2 2v10c0 1.1.9 2 2 2h20c1.1 0 2-.9 2-2V30c0-1.1-.9-2-2-2zm-16-4c0-3.3 2.7-6 6-6s6 2.7 6 6v4H18v-4zm16 15.8c0 .1-.1.2-.2.2H14.2c-.1 0-.2-.1-.2-.2v-9.5c0-.1.1-.2.2-.2h19.6c.1 0 .2.1.2.2v9.5z"/><path class="st0" d="M43.8 19c-.1 0-.1-.1-.1-.2-1.2-4.2-5.6-6.6-9.7-5.6-.1 0-.2 0-.3-.1-2.2-3.9-6.7-5.9-11-4.9-.1 0-.2 0-.2-.1C21.1 6.8 19.1 6 17 6c-4.2 0-7.9 3.3-8 7.8 0 .2-.1.2-.2.3-5 .6-8.8 4.8-8.8 9.9 0 5 3.8 9.5 9 10 .3 0 .5-.1.7-.2.2-.3.3-.5.3-.8v-.1c0-.5-.4-.9-.9-1C5 31.5 2 27.9 2 24c0-3.8 2.1-6.9 7.5-7.9.9-.2 1.5-.9 1.6-1.8C11.5 9.8 13.9 8 17 8c2 0 3.3.9 4.2 1.8.5.4 1.1.6 1.8.5 4.3-.9 7.4.9 9.1 4 .4.8 1.3 1.2 2.2 1 3.3-.8 6.2.4 7.6 4.3.2.5.5.8.9 1.1 1.9 1.1 3.3 2.7 3.3 5.3 0 2.2-1.1 4.1-2.9 5.1-1.4.8-2.4.9-4.2.9-.5 0-1 .5-1 1s.5 1 1 1c1.8 0 3.3-.1 5-1.1 2.4-1.4 4-4 4-6.9 0-3.1-1.7-5.7-4.2-7z"/></svg>