<svg xmlns="http://www.w3.org/2000/svg" viewBox="0 0 48 48"><path class="st0" d="M34 26h-2v-4c0-4.4-3.6-8-8-8s-8 3.6-8 8v4h-2c-1.1 0-2 .9-2 2v14c0 1.1.9 2 2 2h20c1.1 0 2-.9 2-2V28c0-1.1-.9-2-2-2zm-16-4c0-3.3 2.7-6 6-6s6 2.7 6 6v4H18v-4zm16 19.8c0 .1-.1.2-.2.2H14.2c-.1 0-.2-.1-.2-.2V28.2c0-.1.1-.2.2-.2h19.6c.1 0 .2.1.2.2v13.6z"/><path class="st0" d="M44 4H4C1.8 4 0 5.8 0 8v24c0 2.2 1.8 4 4 4h5c.6 0 1-.4 1-1s-.4-1-1-1H4c-1.1 0-2-.9-2-2V18h11c.6 0 1-.4 1-1s-.4-1-1-1H2v-4h44v4H35c-.6 0-1 .4-1 1s.4 1 1 1h11v14c0 1.1-.9 2-2 2h-5c-.6 0-1 .4-1 1s.4 1 1 1h5c2.2 0 4-1.8 4-4V8c0-2.2-1.8-4-4-4zM2 10V8c0-1.1.9-2 2-2h40c1.1 0 2 .9 2 2v2H2z"/><path class="st0" d="M6 29v2c0 .6.4 1 1 1s1-.4 1-1v-2c0-.6-.4-1-1-1s-1 .4-1 1zm36 2v-2c0-.6-.4-1-1-1s-1 .4-1 1v2c0 .6.4 1 1 1s1-.4 1-1z"/></svg>