<svg xmlns="http://www.w3.org/2000/svg" viewBox="0 0 48 48"><path class="st0" d="M46 2H2C.9 2 0 2.9 0 4v36c0 1.1.9 2 2 2h7c.5 0 1-.5 1-1s-.5-1-1-1H2.2c-.1 0-.2-.1-.2-.2V14h44v25.8c0 .1-.1.2-.2.2H39c-.5 0-1 .5-1 1s.5 1 1 1h7c1.1 0 2-.9 2-2V4c0-1.1-.9-2-2-2zM2 12V4.2c0-.1.1-.2.2-.2h43.5c.2 0 .3.1.3.2V12H2z"/><path class="st0" d="M31 7h-2c-.5 0-1 .5-1 1s.5 1 1 1h2c.5 0 1-.5 1-1s-.5-1-1-1zm6 0h-2c-.5 0-1 .5-1 1s.5 1 1 1h2c.5 0 1-.5 1-1s-.5-1-1-1zm6 0h-2c-.5 0-1 .5-1 1s.5 1 1 1h2c.5 0 1-.5 1-1s-.5-1-1-1zm-9 25h-2v-6c0-4.4-3.6-8-8-8s-8 3.6-8 8v6h-2c-1.1 0-2 .9-2 2v10c0 1.1.9 2 2 2h20c1.1 0 2-.9 2-2V34c0-1.1-.9-2-2-2zm-16-6c0-3.3 2.7-6 6-6s6 2.7 6 6v6H18v-6zm16 17.8c0 .1-.1.2-.2.2H14.2c-.1 0-.2-.1-.2-.2v-9.5c0-.1.1-.2.2-.2h19.6c.1 0 .2.1.2.2v9.5z"/></svg>