<svg xmlns="http://www.w3.org/2000/svg" viewBox="0 0 24 24"><title>Setting</title><path d="M19.2 13c0-.3.1-.6.1-1s0-.7-.1-1l2.1-1.7c.2-.1.2-.4.1-.6l-2-3.5c-.1-.1-.4-.2-.6-.1l-2.5 1c-.5-.4-1.1-.7-1.7-1l-.4-2.7c0-.2-.2-.4-.5-.4h-4c-.2 0-.5.2-.5.4l-.4 2.7c-.6.2-1.2.6-1.7 1l-2.5-1c-.2-.1-.4 0-.5.2l-2 3.5c-.1.2-.1.5.1.6L4.3 11c0 .3-.1.6-.1 1s0 .7.1 1l-2.1 1.7c-.2.1-.3.3-.1.6l2 3.5c.1.2.4.2.6.2l2.5-1c.5.4 1.1.7 1.7 1l.4 2.6c0 .2.2.4.5.4h4c.2 0 .5-.2.5-.4l.4-2.6c.6-.2 1.2-.6 1.7-1l2.5 1c.2.1.5 0 .6-.2l2-3.5c.1-.2.1-.5-.1-.6L19.2 13zm-7.5 2.5c-1.9 0-3.5-1.6-3.5-3.5s1.6-3.5 3.5-3.5 3.5 1.6 3.5 3.5-1.5 3.5-3.5 3.5z"/></svg>