<svg xmlns="http://www.w3.org/2000/svg" viewBox="0 0 48 48"><path class="st0" d="M47 29c-.6 0-1 .4-1 1v7.5c0 .3-.2.5-.5.5h-43c-.3 0-.5-.2-.5-.5v-27c0-.3.2-.5.5-.5H24c.6 0 1-.4 1-1s-.4-1-1-1H2c-1.1 0-2 .9-2 2v28c0 1.1.9 2 2 2h44c1.1 0 2-.9 2-2v-8c0-.6-.4-1-1-1z"/><path class="st0" d="M31 9c.2 0 .4.1.6.2l14 10c.3.2.4.5.4.8 0 .3-.2.6-.4.8l-14 10.1c-.2.1-.4.2-.6.2-.2 0-.3 0-.5-.1-.3-.2-.5-.5-.5-.9v-4.6c0-.5-.4-.9-.8-1-1.2-.2-2.5-.3-3.8-.3-5.7 0-11.8 1.8-14.9 5.7-.1.1-.2.1-.2.1h-.1c-.2-.1-.2-.2-.2-.3 2-7 9.8-13.1 19.1-13.9.5 0 .9-.5.9-1V10c0-.4.2-.7.5-.9.2 0 .3-.1.5-.1m0-2c-.5 0-1 .1-1.4.4-1 .5-1.6 1.5-1.6 2.6v3.4c0 .2-.2.5-.4.5-9.2 1.2-17.3 7.5-19.5 15.2-.3 1 .2 2.1 1.1 2.6.3.2.7.2 1 .2.7 0 1.3-.3 1.8-.8 2.4-3 7.6-4.9 13.3-4.9.8 0 1.5 0 2.2.1.3 0 .5.2.5.5v3.3c0 1.1.6 2.2 1.7 2.7.4.2.9.3 1.3.3.6 0 1.2-.2 1.7-.6l14-10.1c.8-.6 1.2-1.5 1.2-2.4 0-.9-.5-1.8-1.2-2.4l-14-10c-.5-.4-1.1-.6-1.7-.6z"/></svg>