<svg xmlns="http://www.w3.org/2000/svg" viewBox="0 0 48 48"><path class="st0" d="M24 0c-2.2 0-4 1.8-4 4v25c0 .5.5 1 1 1s1-.5 1-1V4c0-1.1.9-2 2-2s2 .9 2 2v25c0 .5.5 1 1 1s1-.5 1-1V4c0-2.2-1.8-4-4-4zm12 33.1v-.4.4c0-.1 0 0 0 0zm0-.4c0-.1-.1-.2-.1-.3 0-.1-.1-.1-.1-.2-.3-.1-.5-.2-.8-.2H13c-.5 0-1 .5-1 1v12.8c0 1 .4 1.7 1.1 2.1.7.3 1.5.2 2.3-.5l.4-.3c.5-.4 1.4-.4 1.8 0 1.6 1.3 4.1 1.3 5.6 0 .4-.3 1.1-.3 1.5 0l.1.1c.8.6 1.8.9 2.7.9 1 0 2-.3 2.7-.9.5-.4 1.5-.4 2 0l.3.3c.8.6 1.6.8 2.3.5.7-.3 1.1-1.1 1.1-2.1V33c.1-.1.1-.2.1-.3zm-2 12.7c0 .1-.1.2-.1.2h-.3c-.7-.5-1.2-.8-2.4-.8-.8 0-1.5.3-2.2.8-.8.6-2.2.6-3 0v-.1c-1.1-.9-2.9-.9-4 0-.8.7-2.3.7-3.1 0-.6-.5-1.5-.8-2.3-.7-1.1 0-1.5.4-2.1.8-.1.1-.2.1-.3 0-.1 0-.1-.1-.1-.2V34.2c0-.1.1-.2.2-.2h19.5c.1 0 .2.1.2.2v11.2z"/><path class="st0" d="M19 43c-.6 0-1-.4-1-1v-5c0-.6.4-1 1-1s1 .4 1 1v5c0 .5-.4 1-1 1zm5 0c-.6 0-1-.4-1-1v-5c0-.6.4-1 1-1s1 .4 1 1v5c0 .5-.4 1-1 1zm5 0c-.6 0-1-.4-1-1v-5c0-.6.4-1 1-1s1 .4 1 1v5c0 .5-.4 1-1 1z"/></svg>