<svg xmlns="http://www.w3.org/2000/svg" width="36" height="22" viewBox="0 0 36 22">
    <g fill="none" fill-rule="evenodd" transform="translate(1 1)">
        <rect width="34" height="20" fill="#FFF" stroke="#979797" rx="2"/>
        <g fill="#9B9B9B" fill-rule="nonzero">
            <path d="M12.275 5.035c-.382 0-.752.087-1.1.251-.498.236-.949.628-1.317 1.15-.239.338-.443.73-.604 1.168-.302.828-.298 1.5.01 1.942.176.25.54.549 1.28.55h.003c1.349 0 2.355-.885 2.993-2.628.168-.461.39-1.322-.015-1.903-.246-.352-.665-.53-1.25-.53zm8.138 0a2.57 2.57 0 0 0-1.1.251c-.498.236-.948.628-1.316 1.15-.24.338-.444.73-.605 1.168-.302.828-.298 1.5.01 1.942.176.25.54.549 1.28.55h.003c1.349 0 2.356-.885 2.993-2.628.169-.461.39-1.322-.015-1.903-.246-.352-.665-.53-1.25-.53zm-12.47.07c-.443 0-.874 0-1.26.196-.387.196-.728.588-.99 1.373a1.554 1.554 0 0 0-.091.44.658.658 0 0 0 .066.327c.059.114.155.222.274.312.12.09.264.164.418.211l.186.053.285.084c.043.013.09.03.132.056.042.025.08.059.104.105a.233.233 0 0 1 .025.102.33.33 0 0 1-.02.117.32.32 0 0 1-.194.218c-.104.041-.257.055-.489.057H3.493l-.458 1.258h3.1c.292 0 .825 0 1.338-.218.513-.218 1.004-.653 1.212-1.524.079-.327.055-.594-.074-.804-.128-.209-.36-.36-.7-.458l-.165-.048-.244-.07a.327.327 0 0 1-.193-.139.273.273 0 0 1-.028-.22.322.322 0 0 1 .16-.193.651.651 0 0 1 .314-.07h1.803l.037-.057a3.98 3.98 0 0 1 1.164-1.108H7.944zm8.102 0c-.802 0-1.399.406-1.68 1.165l-1.363 3.744h1.492l.7-1.925 1.32.001.375-1.03-1.315-.001.212-.597a.315.315 0 0 1 .304-.192h1.555c.013-.018.025-.038.037-.057.33-.465.796-.842 1.232-1.108h-2.869zm6.925.002l-1.788 4.91h1.519l.65-1.728c.031.07.414 1.728.414 1.728h1.597s-.29-1.218-.504-1.71c-.055-.126-.112-.268-.189-.386.451-.168 1.104-.527 1.375-1.256.166-.448.157-.81-.028-1.076-.224-.322-.68-.48-1.394-.482H22.97zm3.114 0c.096.077.179.163.248.262.176.255.244.557.204.904h.904l-1.363 3.745h1.362l1.363-3.745h1.75l.423-1.166h-4.891zM23.97 6.121h.25c.459 0 .63.134.475.553-.146.392-.408.635-.906.635h-.259l.44-1.188zm-12.053.024c.467 0 .574.271.164 1.392-.42 1.151-.726 1.44-1.186 1.44-.448 0-.605-.283-.186-1.429.313-.856.718-1.403 1.208-1.403zm8.138 0c.467 0 .574.271.164 1.392-.42 1.151-.726 1.44-1.185 1.44h-.002c-.448 0-.604-.283-.185-1.429.312-.856.718-1.403 1.208-1.403zM4.51 10.534a.37.37 0 0 0-.214.051.388.388 0 0 0-.12.186c-.031.086-.036.145-.014.18.021.033.08.05.177.05.097 0 .169-.017.216-.053a.389.389 0 0 0 .119-.184c.031-.087.037-.147.015-.18-.02-.033-.08-.05-.178-.05zm.824 0a.368.368 0 0 0-.216.051.39.39 0 0 0-.12.186c-.03.086-.035.145-.014.18.02.033.08.05.176.05.097 0 .169-.017.217-.053a.387.387 0 0 0 .12-.184c.032-.087.036-.147.015-.18-.022-.033-.081-.05-.178-.05zm15.366.639c-.112 0-.223.014-.333.043a1.086 1.086 0 0 0-.563.351.999.999 0 0 0-.177.308.683.683 0 0 0-.05.262.434.434 0 0 0 .164.327c.047.038.098.072.152.102.055.03.108.06.16.086a.744.744 0 0 1 .133.087.26.26 0 0 1 .079.105.198.198 0 0 1-.006.142.446.446 0 0 1-.186.228.542.542 0 0 1-.144.061.646.646 0 0 1-.17.022.731.731 0 0 1-.483-.169c-.025-.02-.046-.03-.064-.03a.072.072 0 0 0-.037.01.116.116 0 0 0-.035.034.404.404 0 0 0-.035.065 1.2 1.2 0 0 0-.078.23c-.004.031 0 .055.01.071.01.016.03.035.059.057a.547.547 0 0 0 .116.06 1.137 1.137 0 0 0 .4.07c.124.001.247-.015.368-.048.121-.032.235-.08.34-.146.105-.064.199-.145.282-.242.083-.096.147-.209.194-.337a.66.66 0 0 0 .048-.255.432.432 0 0 0-.168-.326 1.19 1.19 0 0 0-.155-.103 5.014 5.014 0 0 0-.16-.085.801.801 0 0 1-.138-.087.25.25 0 0 1-.08-.105.2.2 0 0 1 .007-.14.386.386 0 0 1 .268-.243.526.526 0 0 1 .15-.02c.068 0 .129.009.18.026a.692.692 0 0 1 .222.114c.024.018.043.026.057.026a.063.063 0 0 0 .037-.011.123.123 0 0 0 .032-.036.545.545 0 0 0 .032-.062 1.493 1.493 0 0 0 .077-.229.14.14 0 0 0 .002-.035.09.09 0 0 0-.014-.032.189.189 0 0 0-.06-.047.635.635 0 0 0-.116-.05 1.038 1.038 0 0 0-.317-.049zm7.822.001a1.747 1.747 0 0 0-1.048.344 1.93 1.93 0 0 0-.404.405c-.118.16-.213.338-.286.538-.07.193-.105.366-.103.519a.71.71 0 0 0 .103.388.64.64 0 0 0 .302.243c.134.056.298.083.492.083a2.232 2.232 0 0 0 .409-.037 2.618 2.618 0 0 0 .374-.096.238.238 0 0 0 .105-.067.33.33 0 0 0 .056-.099l.353-.97a.224.224 0 0 0 .015-.067.099.099 0 0 0-.01-.05.068.068 0 0 0-.03-.03.106.106 0 0 0-.05-.011h-.822a.064.064 0 0 0-.034.01.137.137 0 0 0-.035.032.323.323 0 0 0-.035.058.847.847 0 0 0-.036.088.407.407 0 0 0-.034.144c.002.029.015.043.037.043h.462l-.206.565a.853.853 0 0 1-.342.075.7.7 0 0 1-.29-.055.382.382 0 0 1-.181-.162.518.518 0 0 1-.059-.266c.002-.106.028-.23.079-.368.046-.127.107-.243.181-.348.075-.105.16-.194.254-.27a1.14 1.14 0 0 1 .308-.172.985.985 0 0 1 .343-.062.987.987 0 0 1 .468.108c.05.026.09.05.118.073.028.023.05.034.067.034a.063.063 0 0 0 .032-.01.125.125 0 0 0 .033-.032.921.921 0 0 0 .075-.157.723.723 0 0 0 .04-.143.115.115 0 0 0-.01-.074.242.242 0 0 0-.066-.063.599.599 0 0 0-.137-.066 1.238 1.238 0 0 0-.208-.053 1.596 1.596 0 0 0-.28-.022zm-15.398.03c-.064 0-.114.002-.151.005a.184.184 0 0 0-.087.026.105.105 0 0 0-.043.06.601.601 0 0 0-.02.106l-.22 2.126a.207.207 0 0 0 .002.072c.005.018.018.032.04.042.021.01.053.016.095.019.042.003.1.004.173.004.069 0 .125-.001.168-.004a.41.41 0 0 0 .107-.02.179.179 0 0 0 .07-.043.357.357 0 0 0 .051-.07l.932-1.545h.003l-.172 1.545a.183.183 0 0 0 0 .072c.005.018.018.032.04.042a.31.31 0 0 0 .095.019 2.468 2.468 0 0 0 .331 0 .484.484 0 0 0 .108-.02.196.196 0 0 0 .075-.04.324.324 0 0 0 .058-.073l1.33-2.12c.029-.047.049-.084.06-.111.012-.027.014-.048.005-.061-.009-.014-.028-.023-.057-.026a1.483 1.483 0 0 0-.267 0 .301.301 0 0 0-.082.017.113.113 0 0 0-.048.034.375.375 0 0 0-.034.052l-1.105 1.86h-.003l.215-1.853a.176.176 0 0 0 .001-.06.051.051 0 0 0-.03-.035.218.218 0 0 0-.077-.016 2.076 2.076 0 0 0-.28.001.342.342 0 0 0-.086.017.132.132 0 0 0-.054.035.36.36 0 0 0-.041.058l-1.12 1.854h-.001l.252-1.867a.176.176 0 0 0 .005-.055c-.002-.014-.01-.024-.025-.03a.217.217 0 0 0-.073-.014 2.52 2.52 0 0 0-.14-.003zm5.878 0a1.11 1.11 0 0 0-.12.006.54.54 0 0 0-.082.015.133.133 0 0 0-.05.025.085.085 0 0 0-.026.034l-.837 2.301a.043.043 0 0 0 0 .034c.004.01.015.018.031.025.017.006.04.011.071.015a1.138 1.138 0 0 0 .24 0 .447.447 0 0 0 .08-.015.14.14 0 0 0 .05-.025.082.082 0 0 0 .025-.034l.838-2.301a.043.043 0 0 0 0-.034c-.004-.01-.015-.019-.032-.025a.327.327 0 0 0-.07-.015 1.022 1.022 0 0 0-.118-.006zm-15.069 0c-.049 0-.09.002-.122.006a.541.541 0 0 0-.082.015.122.122 0 0 0-.05.025.084.084 0 0 0-.023.034l-.54 1.482a1.154 1.154 0 0 0-.081.408.503.503 0 0 0 .087.29.494.494 0 0 0 .246.175c.107.038.238.057.391.057.163 0 .315-.021.457-.064a1.318 1.318 0 0 0 .687-.486 1.58 1.58 0 0 0 .212-.4l.532-1.462a.045.045 0 0 0 0-.034c-.003-.01-.013-.018-.03-.025a.328.328 0 0 0-.069-.015 1.138 1.138 0 0 0-.237 0 .522.522 0 0 0-.082.015.123.123 0 0 0-.048.025.083.083 0 0 0-.024.034l-.534 1.467a.975.975 0 0 1-.118.229.783.783 0 0 1-.16.17.674.674 0 0 1-.417.14.49.49 0 0 1-.196-.035.258.258 0 0 1-.122-.105.322.322 0 0 1-.038-.176.824.824 0 0 1 .056-.252l.523-1.438a.044.044 0 0 0 0-.034c-.004-.01-.015-.018-.031-.025a.334.334 0 0 0-.07-.015.997.997 0 0 0-.117-.006zm18.274 0c-.049 0-.09.002-.122.006a.51.51 0 0 0-.082.015.133.133 0 0 0-.05.025.086.086 0 0 0-.023.034l-.54 1.482a1.148 1.148 0 0 0-.081.408.501.501 0 0 0 .087.29.495.495 0 0 0 .246.175c.107.038.238.057.391.057.163 0 .315-.021.457-.064a1.322 1.322 0 0 0 .687-.486c.087-.118.157-.251.212-.4l.532-1.462a.046.046 0 0 0 0-.034c-.003-.01-.013-.018-.03-.025a.314.314 0 0 0-.069-.015 1.14 1.14 0 0 0-.237 0 .493.493 0 0 0-.082.015.13.13 0 0 0-.048.025.086.086 0 0 0-.024.034l-.534 1.467a.985.985 0 0 1-.118.229.79.79 0 0 1-.16.17.667.667 0 0 1-.613.105.258.258 0 0 1-.122-.105.32.32 0 0 1-.038-.176.815.815 0 0 1 .056-.251l.523-1.44a.043.043 0 0 0 0-.033c-.004-.01-.015-.018-.031-.025a.32.32 0 0 0-.07-.015.999.999 0 0 0-.117-.005zm4.236.004c-.046 0-.083.002-.114.005a.312.312 0 0 0-.075.016.149.149 0 0 0-.047.026.083.083 0 0 0-.024.034l-.416 1.144a22.93 22.93 0 0 0-.188.548h-.002l-.015-.15-.018-.154a4.845 4.845 0 0 0-.02-.157 16.366 16.366 0 0 1-.025-.16l-.15-.89a.697.697 0 0 0-.025-.123.194.194 0 0 0-.044-.078.164.164 0 0 0-.073-.041.45.45 0 0 0-.116-.012h-.266a.256.256 0 0 0-.243.177l-.797 2.19a.059.059 0 0 0-.004.034c.004.01.012.019.025.026a.212.212 0 0 0 .063.016.978.978 0 0 0 .22 0 .36.36 0 0 0 .074-.016.132.132 0 0 0 .046-.026.094.094 0 0 0 .022-.034l.464-1.275a11.24 11.24 0 0 0 .185-.548h.003a3.986 3.986 0 0 0 .042.448l.192 1.14c.009.063.019.114.029.153.01.04.026.071.044.094.019.024.042.04.07.049a.376.376 0 0 0 .11.013h.211a.284.284 0 0 0 .147-.043.266.266 0 0 0 .104-.134l.798-2.19a.056.056 0 0 0 .002-.035c-.002-.01-.01-.018-.023-.026a.16.16 0 0 0-.061-.016.972.972 0 0 0-.105-.005zm-17.586.008a.212.212 0 0 0-.118.036.234.234 0 0 0-.086.12l-.773 2.125c-.02.055-.02.095-.001.12.02.024.05.036.09.036h1.225a.07.07 0 0 0 .035-.01.124.124 0 0 0 .035-.033.35.35 0 0 0 .036-.06 1.003 1.003 0 0 0 .067-.182.225.225 0 0 0 .007-.06.049.049 0 0 0-.011-.033.038.038 0 0 0-.028-.01h-.877l.25-.687h.736a.071.071 0 0 0 .035-.01.119.119 0 0 0 .035-.03.3.3 0 0 0 .035-.058.852.852 0 0 0 .072-.239c0-.014-.005-.025-.012-.032a.037.037 0 0 0-.027-.01h-.736l.216-.595h.87a.063.063 0 0 0 .034-.01.138.138 0 0 0 .035-.034.34.34 0 0 0 .036-.059.876.876 0 0 0 .074-.243c0-.016-.004-.026-.01-.033a.036.036 0 0 0-.027-.01H8.857zm2.044 0a.21.21 0 0 0-.204.156l-.805 2.213a.047.047 0 0 0-.002.034c.004.01.015.018.031.025.017.006.04.011.071.015a1.132 1.132 0 0 0 .24 0 .472.472 0 0 0 .08-.015.133.133 0 0 0 .05-.025.08.08 0 0 0 .025-.034l.338-.928h.155a.3.3 0 0 1 .13.024c.034.017.06.04.08.073a.34.34 0 0 1 .04.12c.008.047.014.102.018.163l.02.544c0 .016.001.029.005.039.004.01.013.02.029.026a.22.22 0 0 0 .069.015 2.309 2.309 0 0 0 .275 0 .427.427 0 0 0 .088-.013.098.098 0 0 0 .044-.024.105.105 0 0 0 .02-.035.205.205 0 0 0 .01-.052 1.088 1.088 0 0 0 0-.104l-.03-.48a1.182 1.182 0 0 0-.017-.156.572.572 0 0 0-.036-.122.314.314 0 0 0-.136-.156c.084-.024.162-.055.236-.094a1.007 1.007 0 0 0 .355-.317c.045-.067.083-.142.113-.223a.724.724 0 0 0 .05-.258.373.373 0 0 0-.055-.194.375.375 0 0 0-.151-.132.76.76 0 0 0-.239-.072 2.182 2.182 0 0 0-.266-.013h-.631zm5.951 0a.211.211 0 0 0-.118.036.233.233 0 0 0-.086.12l-.773 2.125c-.02.055-.02.095-.002.12.02.024.05.036.092.036h1.224a.068.068 0 0 0 .035-.01.117.117 0 0 0 .035-.033.303.303 0 0 0 .036-.06.899.899 0 0 0 .067-.183.223.223 0 0 0 .007-.059c0-.015-.004-.026-.011-.033a.038.038 0 0 0-.028-.01h-.877l.25-.687h.736a.07.07 0 0 0 .035-.01.116.116 0 0 0 .035-.03.316.316 0 0 0 .035-.058.915.915 0 0 0 .065-.18.196.196 0 0 0 .007-.059c0-.014-.005-.025-.011-.032a.038.038 0 0 0-.028-.01h-.736l.216-.595h.87a.066.066 0 0 0 .035-.01.137.137 0 0 0 .034-.034.309.309 0 0 0 .035-.059.811.811 0 0 0 .075-.243c0-.016-.004-.026-.01-.033a.037.037 0 0 0-.027-.01h-1.217zm-10.332 0a.211.211 0 0 0-.118.037.232.232 0 0 0-.086.12l-.774 2.124c-.02.055-.02.095 0 .12.019.024.049.036.09.036h.649c.097 0 .188-.006.272-.018a1.334 1.334 0 0 0 .473-.151 1.063 1.063 0 0 0 .49-.561.64.64 0 0 0 .044-.225.392.392 0 0 0-.039-.174.32.32 0 0 0-.108-.122.452.452 0 0 0-.167-.066.837.837 0 0 0 .52-.5.604.604 0 0 0 .045-.275.311.311 0 0 0-.093-.194.49.49 0 0 0-.22-.114 1.463 1.463 0 0 0-.366-.037H6.52zm.204.37h.25c.077 0 .135.008.176.022.041.013.072.033.093.059.02.026.031.058.032.097 0 .039-.007.083-.025.132a.526.526 0 0 1-.168.229.47.47 0 0 1-.312.095h-.277l.23-.633zm4.388.008h.222c.056 0 .1.003.13.006.031.004.058.009.08.015.075.023.121.061.137.117a.33.33 0 0 1-.02.203.526.526 0 0 1-.197.254.574.574 0 0 1-.158.071.7.7 0 0 1-.194.026h-.252l.252-.692zm-4.75.987h.293c.09 0 .161.009.212.025.05.016.089.04.114.07.025.03.04.067.042.112a.482.482 0 0 1-.228.401.543.543 0 0 1-.146.064.678.678 0 0 1-.182.021H6.11l.252-.693z"/>
        </g>
    </g>
</svg>
