<svg xmlns="http://www.w3.org/2000/svg" viewBox="0 0 48 48"><path class="st0" d="M34.2 22.2l-18-8c-1.5-.7-3.3 0-4 1.5-.7 1.5 0 3.3 1.5 4l18 8c.4.2.8.3 1.2.3 1.1 0 2.2-.7 2.7-1.8.8-1.5.1-3.3-1.4-4zm-.3 3.2c-.2.4-.5.6-.9.6-.1 0-.3 0-.4-.1l-18-8c-.5-.2-.7-.8-.5-1.3.2-.5.8-.7 1.3-.5l18 8c.5.2.7.8.5 1.3zm-10.7.8l-7-3c-1.5-.7-3.3 0-3.9 1.6-.6 1.5.1 3.3 1.6 3.9l7 3c.4.2.8.2 1.2.2 1.2 0 2.3-.7 2.8-1.8.5-1.5-.2-3.2-1.7-3.9zm-.3 3.2c-.1.4-.5.6-.9.6-.1 0-.3 0-.4-.1l-7-3c-.5-.2-.8-.8-.5-1.3.2-.5.8-.8 1.3-.5l7 3c.5.2.7.8.5 1.3zm11.3-16.2l-18-8c-1.5-.7-3.3 0-4 1.5-.7 1.5 0 3.3 1.5 4l18 8c.4.2.8.3 1.2.3 1.1 0 2.2-.7 2.7-1.8.8-1.5.1-3.3-1.4-4zm-.3 3.2c-.2.4-.5.6-.9.6-.1 0-.3 0-.4-.1l-18-8c-.5-.2-.7-.8-.5-1.3.2-.5.8-.7 1.3-.5l18 8c.5.2.7.8.5 1.3zM31.2 2.3l-4.5-2c-1.5-.7-3.3 0-4 1.5-.7 1.5 0 3.3 1.5 4l4.5 2c.5.1.9.2 1.3.2 1.1 0 2.2-.7 2.7-1.8.7-1.5 0-3.3-1.5-3.9zm-.3 3.1c-.2.4-.5.6-.9.6-.1 0-.3 0-.4-.1l-4.5-2c-.5-.2-.7-.8-.5-1.3.2-.5.8-.7 1.3-.5l4.5 2c.5.2.7.8.5 1.3zM35 34H13c-1.6 0-3 1.3-3 3v2c0 1.7 1.4 3 3 3h22c1.6 0 3-1.3 3-3v-2c0-1.7-1.4-3-3-3zm1 5c0 .5-.5 1-1 1H13c-.5 0-1-.5-1-1v-2c0-.5.5-1 1-1h22c.5 0 1 .5 1 1v2zm-5.5 6.8c0 .1-.1.2-.2.2H17.8c-.1 0-.2-.1-.2-.2l-.3-1.1c-.1-.4-.5-.8-1-.8-.3 0-.6.1-.8.4-.2.2-.3.6-.2.9l.3 1.2c.2.9 1 1.5 1.9 1.5h12.9c.9 0 1.7-.6 1.9-1.5l.3-1.2c.1-.3 0-.6-.2-.9-.1-.2-.4-.3-.7-.3-.5 0-.9.3-1 .8l-.2 1z"/></svg>