<svg xmlns="http://www.w3.org/2000/svg" viewBox="0 0 48 48"><path class="st0" d="M31 21H17c-.5 0-1 .5-1 1s.5 1 1 1h14c.5 0 1-.5 1-1s-.5-1-1-1zm0 6H17c-.5 0-1 .5-1 1s.5 1 1 1h14c.5 0 1-.5 1-1s-.5-1-1-1zm0 6H17c-.5 0-1 .5-1 1s.5 1 1 1h14c.5 0 1-.5 1-1s-.5-1-1-1zm16.4-21.9L25.4.3c-.9-.4-1.9-.4-2.8 0L.6 11.1c-.5.2-.7.8-.5 1.3.2.5.8.7 1.3.5l22-10.8c.3-.2.7-.2 1.1 0l22 10.8c.2.1.4.1.5.1.4 0 .7-.2.9-.6.2-.5 0-1.1-.5-1.3z"/><path class="st0" d="M44 40h-2V15c0-.6-.4-1-1-1s-1 .4-1 1v25h-4V17c0-1.1-.9-2-2-2H14c-1.1 0-2 .9-2 2v23H8V15c0-.6-.4-1-1-1s-1 .4-1 1v25H4c-1.1 0-2 .9-2 2v4c0 1.1.9 2 2 2h40c1.1 0 2-.9 2-2v-4c0-1.1-.9-2-2-2zM14 17.5c0-.3.2-.5.5-.5h19c.3 0 .5.2.5.5V40H14V17.5zM44 43v2.5c0 .3-.2.5-.5.5h-39c-.3 0-.5-.2-.5-.5v-3c0-.3.2-.5.5-.5h39c.3 0 .5.2.5.5v.5z"/></svg>