<svg xmlns="http://www.w3.org/2000/svg" viewBox="0 0 48 48"><path class="st0" d="M13 34c-.5 0-1 .5-1 1v10c0 .5-.5 1-1 1h-.5c-.4 0-.8-.3-1-.7L6.2 34.7c-.1-.4-.5-.7-1-.7-.3 0-.6.2-.8.4-.2.2-.2.6-.2.9l3.3 10.6c.5 1.3 1.6 2.1 3 2.1h.5c1.6 0 3-1.3 3-3V35c0-.5-.5-1-1-1zm29.8 0c-.4 0-.8.3-1 .7l-3.3 10.6c-.1.4-.5.7-1 .7H37c-.5 0-1-.5-1-1V35c0-.5-.5-1-1-1s-1 .5-1 1v10c0 1.7 1.4 3 3 3h.5c1.3 0 2.5-.8 2.9-2.1l3.3-10.6c.1-.3 0-.6-.1-.9-.2-.2-.5-.4-.8-.4zM13 20H5c-.5 0-1 .5-1 1s.5 1 1 1h8c.5 0 1-.5 1-1s-.5-1-1-1z"/><path class="st0" d="M47.5 19.9L41 4.5C40.4 3 39 2 37.3 2h-8.9l-.1-.4c-.2-.9-1-1.6-2-1.6h-4.7c-1 0-1.8.7-2 1.6V2h-8.9C9 2 7.6 3 7 4.5L.5 19.9c-.3.7-.5 1.5-.5 2.3V30c0 1.1.9 2 2 2h14v2c0 1.1.9 2 2 2h12c1.1 0 2-.9 2-2v-2h14c1.1 0 2-.9 2-2v-7.8c0-.8-.2-1.6-.5-2.3zm-31.3-1.1c-.1.8-.2 1.6-.2 2.4V30H2.2c-.1 0-.2-.1-.2-.2v-8.3c0-.3 0-.5.2-.8L9 4.5c.1-.3.5-.5.8-.5h9.4l-3 14.8zm13.8 15c0 .1-.1.2-.2.2H18.2c-.1 0-.2-.1-.2-.2V20.4c0-.3 0-.5.1-.8l3.4-17.4c0-.1.1-.2.2-.2h4.5c.1 0 .2.1.2.2l3.4 17.4c.1.2.1.5.1.8v13.4zm16-4c0 .1-.1.2-.2.2H32v-8.8c0-.8-.1-1.6-.2-2.4L28.8 4h9.6c.2 0 .4.1.5.3l.1.2 6.9 16.1c.1.2.2.5.2.8v8.4z"/><path class="st0" d="M43 20h-8c-.5 0-1 .5-1 1s.5 1 1 1h8c.5 0 1-.5 1-1s-.5-1-1-1z"/></svg>