<svg xmlns="http://www.w3.org/2000/svg" viewBox="0 0 48 48"><path class="st0" d="M47 16.6c-.6-.4-1.4-.4-2 0-.2.1-.5.3-.8.4-1.9.6-4.4 1-7.2 1h-1v-1.3C35.6 13 27.7 10 18 10c-9.9 0-18 3.1-18 7v14c0 3.9 8.1 7 18 7 6.4 0 12-1.3 15.2-3.3l1.2-.9.9-.9c.1-.1.1-.2.2-.3l.3-.6H37c5.7 0 10.4-1.8 10.9-4 0-.2.1-.3.1-.5v-9.3c0-.6-.4-1.3-1-1.6zM34 31c0 .5-.4 1-1.2 1.6-.3.2-.8.5-1.2.8-.4.2-.9.4-1.4.6-2.7 1.1-6.8 2-12.2 2-10.3 0-16-3.3-16-5V20.2c3 2.2 9 3.8 16 3.8 2.8 0 5.5-.3 7.9-.7.3-.1.7-.1 1-.2.3-.1.7-.2 1-.2 1.4-.4 2.7-.8 3.8-1.3.5-.2 1-.5 1.5-.8.3-.2.6-.4.8-.5V31zm0-13.9c0 .4-.3.9-.9 1.3-.1.1-.2.2-.3.2-.2.1-.4.3-.6.4-.3.2-.7.4-1.2.6-1 .4-2.1.9-3.4 1.2-.3.1-.7.2-1 .2-.3 0-.5.1-.8.2h-.1c-2.5.6-5.1.8-7.7.8-10.3 0-16-3.3-16-5 0-1.7 5.7-5 16-5s16 3.3 16 5.1zm2 13.6zm10-3.5c0 .3-.1.6-.4.8-1 .8-4 2.1-8.6 2.1h-1V20h1c3 0 6-.5 8.3-1.4.1-.1.3 0 .5.1.1.1.2.2.2.4v8.1z"/><path class="st0" d="M25.9 15.1C24 14.4 21.2 14 18 14h-.1c-3.2 0-6.2.4-8 1.1-.5.2-.8.8-.6 1.3.2.4.5.6.9.6.1 0 .2 0 .4-.1.6-.2 3-1 7.4-1 4.1 0 6.4.7 7.2 1 .5.2 1.1-.1 1.3-.6.2-.4-.1-1-.6-1.2z"/></svg>