<svg xmlns="http://www.w3.org/2000/svg" viewBox="0 0 48 48"><path class="st0" d="M41 28H7c-.5 0-1 .5-1 1s.5 1 1 1h34c.5 0 1-.5 1-1s-.5-1-1-1z"/><path class="st0" d="M46 2H2C.9 2 0 2.9 0 4v30c0 1.1.9 2 2 2h14v4h-6c-1.1 0-2 .9-2 2v2c0 1.1.9 2 2 2h28c1.1 0 2-.9 2-2v-2c0-1.1-.9-2-2-2h-6v-4h14c1.1 0 2-.9 2-2V4c0-1.1-.9-2-2-2zm-8.2 40c.1 0 .2.1.2.2v1.5c0 .1-.1.2-.2.2H10.2c-.1 0-.2-.1-.2-.2v-1.5c0-.1.1-.2.2-.2h27.6zM30 40H18v-4h12v4zm16-6.2c0 .1 0 .1-.1.2 0 0-.1.1-.2.1L32 34H2.2c-.1 0-.1 0-.2-.1 0 0-.1-.1-.1-.2L2 4.2c0-.1.1-.2.2-.2h43.5c.2 0 .3.1.3.2v29.6z"/></svg>