<svg xmlns="http://www.w3.org/2000/svg" viewBox="0 0 48 48"><path class="st0" d="M17.9 2c.2 0 .4.2.5.4l1.7 8.2c0 .2 0 .3-.1.5l-4 3.8c-1.3 1.3-1.6 3.3-.6 4.9 3.1 5.1 7.5 9.5 12.7 12.7.6.4 1.4.6 2.1.6 1.1 0 2.1-.4 2.8-1.2l4-3.9c.1-.1.3-.2.5-.1l7.3 1.6c.7.2 1.3.8 1.3 1.6v13c0 .6-.2 1.1-.7 1.5-.4.2-.9.4-1.4.4h-.2c-7.4-.7-14.7-3.2-20.9-7.2-5.5-3.6-10.1-8.1-13.6-13.6-4.1-6.3-6.6-13.6-7.3-21 0-.6.1-1.1.5-1.5.4-.5 1-.7 1.5-.7h13.9zm.4-2H4C2.9 0 1.8.5 1 1.3c-.7.8-1.1 2-1 3.1.7 8 3.4 15.5 7.6 21.8 3.7 5.7 8.5 10.5 14.2 14.2 6.4 4.2 13.8 6.8 21.8 7.6h.4c1 0 2-.4 2.7-1 .8-.8 1.3-1.8 1.3-3V29.7c0-.9-.7-1.8-1.6-2l-8.8-1.9h-.4c-.5 0-1 .2-1.4.6l-4.1 4.1c-.4.4-.9.6-1.4.6-.4 0-.7-.1-1-.3-4.9-3-9-7.1-12-12-.5-.8-.4-1.8.3-2.5l4.1-4.1c.5-.5.7-1.2.5-1.8l-1.9-8.8C20 .7 19.2 0 18.3 0z"/></svg>