<svg xmlns="http://www.w3.org/2000/svg" viewBox="0 0 48 48"><path class="st0" d="M36.9 40.8c-.5 0-.9.3-1.1.7-.6 1.6-2 2.5-3.6 2.5H14.9c-.6 0-1 .4-1 1s.4 1 1 1h17.4c2.5 0 4.6-1.4 5.6-3.8.1-.3.1-.7-.1-1-.2-.3-.6-.4-.9-.4zm4.4-5.8c-.5 0-.9.3-1 .8l-.1.5c-.1.5-.5.8-1 .8H33c-.5 0-1 .5-1 1s.5 1 1 1h6.3c1.4 0 2.6-1 2.9-2.3l.1-.5c.1-.3 0-.6-.2-.8-.2-.4-.5-.5-.8-.5zm1.8-7c-.5 0-1 .4-1.1.9l-.3 1.3c-.1.5-.5.8-1 .8H35c-.5 0-1 .5-1 1s.5 1 1 1h5.7c1.4 0 2.6-1 2.9-2.3.1-.3.2-.7.4-1.5.1-.3 0-.6-.2-.8-.2-.3-.4-.4-.7-.4zm1.1-12.2l-14.3-.7c-1.1-.1-1.9-.9-1.9-2v-1.7c0-.6 0-1.1.1-1.7.3-1.6.6-3.5.9-5 .4-1.9-.8-3.8-2.7-4.4-2.1-.6-4.4.2-5.5 2.2-.4.7-.7 1.3-.9 1.5-1.2 2.1-2.2 5.4-2.6 7.8l-.2 1.5c-.3 1.8-1.1 3.6-2.3 5l-.6.7c-.2.2-.2.5-.2.9s.3.7.7.8c.4.1.8 0 1-.3l.8-1c1.4-1.7 2.4-3.8 2.7-6l.2-1.5c.3-2.2 1.3-5.2 2.4-7.2l.7-1.3c.7-1.2 2.1-1.7 3.4-1.2.9.3 1.4 1.2 1.2 2.2l-.9 4.8c-.1.7-.2 1.4-.2 2.1V13c0 2.1 1.7 3.9 3.8 4l14.3.7c1.1 0 1.9.9 1.9 2V22c0 1.1-.9 2-2 2h-8c-.5 0-1 .5-1 1s.5 1 1 1h8.8c1.6 0 3.2-2 3.2-4v-2.2c0-2.1-1.7-3.9-3.8-4zM10 20H2c-1.1 0-2 .9-2 2v24c0 1.1.9 2 2 2h8c1.1 0 2-.9 2-2V22c0-1.1-.9-2-2-2zm0 10.9v15c0 .1-.1.2-.2.2H2.2c-.1-.1-.2-.2-.2-.3V22.2c0-.1.1-.2.2-.2h7.6c.1 0 .2.1.2.2v8.7z"/></svg>