<svg xmlns="http://www.w3.org/2000/svg" viewBox="0 0 48 48"><path class="st0" d="M39.5 29.6c-.3-.3-.7-.4-1-.3-.3.1-.6.4-.7.7-.1.3 0 .7.3.9l7.4 7.4c.8.8.8 2 0 2.8l-4.2 4.2c-.4.4-.9.6-1.4.6-.5 0-1-.2-1.4-.6L26.8 33.9c-.2-.2-.4-.3-.7-.3-.3 0-.5.1-.7.3-.4.4-.4 1 0 1.4l11.5 11.5c.8.8 1.8 1.2 2.8 1.2 1.1 0 2.1-.4 2.8-1.2l4.2-4.2c1.6-1.6 1.6-4.1 0-5.7l-7.2-7.3zM4.7 14.7c.3.6.8 1 1.5 1.1h.3c.5 0 1-.2 1.4-.6l.5-.5c.1-.1.2-.1.3-.1.1 0 .3 0 .4.1l5.7 5.7c.4.4 1 .4 1.4 0 .2-.2.3-.4.3-.7 0-.3-.1-.5-.3-.7l-5.7-5.7c-.5-.5-1.1-.7-1.8-.7s-1.3.3-1.8.7l-.2.2c-.1.1-.1.1-.2.1s-.1-.1-.2-.1L2.1 4.4v-.3l2-2c.1-.1.2-.1.3 0l9.1 4.3c.1 0 .1.1.1.2s0 .2-.1.2l-.1.2c-.5.5-.7 1.1-.7 1.8s.3 1.3.7 1.8l2.8 2.8c.3.3.8.4 1.2.3s.7-.5.7-.9c0-.2 0-.3-.2-.4l-3.1-3.1c-.1-.1-.1-.2-.1-.4 0-.1.1-.3.1-.3l.5-.6c.5-.5.7-1.1.6-1.8-.1-.6-.5-1.2-1.1-1.5L5.1.2C4.8.1 4.5 0 4.2 0c-.5 0-1 .2-1.4.6L.6 2.8C0 3.4-.2 4.3.2 5.1l4.5 9.6z"/><circle class="st0" cx="6.9" cy="40.9" r="1.5"/><path class="st0" d="M29.4 27.3h.2c1.4.4 2.9.7 4.4.7h1c.8-.1 1.7-.2 2.4-.4C43.5 26 48 20.5 48 14c0-.8-.1-1.5-.2-2.3-.1-.7-.6-1.3-1.4-1.6-.2-.1-.4-.1-.6-.1-.5 0-1 .2-1.4.6l-6 6c-.1.1-.2.1-.4.1-.1 0-.3 0-.4-.1l-6.4-6.4c-.2-.2-.2-.5 0-.7l6-6c.5-.5.7-1.3.5-2-.2-.7-.8-1.2-1.6-1.4-.6 0-1.3-.1-2.1-.1-7.7 0-14 6.3-14 14v.4c0 1.1.2 2.2.5 3.3.1.2.1.5.2.7.1.2 0 .4-.1.5l-2.2 2.2-1.4 1.4-15.1 15C.7 38.7 0 40.3 0 41.9c0 1.7.6 3.2 1.8 4.4C3 47.4 4.5 48 5.9 48c1.5 0 3-.6 4.1-1.7l13.2-13.2 1.4-1.4 4.4-4.4h.4zm-6.1 3l-1.4 1.4L8.6 44.9C7.9 45.6 7 46 5.9 46c-1 0-2-.4-2.7-1.1-.7-.8-1.2-1.9-1.2-3s.5-2.2 1.2-3l15.1-15 1.4-1.4 2.2-2.2c.2-.2.4-.4.5-.7.3-.6.3-1.2.1-1.9-.1-.4-.2-.7-.3-1.1-.1-.8-.2-1.7-.2-2.6 0-6.6 5.4-12 12-12 .6 0 1.3 0 1.9.2l-6 6c-1 1-1 2.6 0 3.5l6.4 6.4c.5.5 1.1.7 1.8.7s1.3-.3 1.8-.7l6-6c.1.6.1 1.2.1 1.9 0 6-4.5 11-10.2 11.9-.6.1-1.2.1-1.8.1h-1c-.9-.1-1.9-.3-2.8-.6-.2-.1-.5-.1-.8-.1-.7 0-1.3.3-1.8.7l-4.3 4.3z"/></svg>