<svg xmlns="http://www.w3.org/2000/svg" viewBox="0 0 48 48"><path class="st0" d="M27 41h-6c-.5 0-1 .5-1 1s.5 1 1 1h6c.5 0 1-.5 1-1s-.5-1-1-1zm-1-5h-4c-.5 0-1 .5-1 1s.5 1 1 1h4c.5 0 1-.5 1-1s-.5-1-1-1z"/><path class="st0" d="M40 0H8C6.9 0 6 .9 6 2v34c0 1.1.9 2 2 2h2v4c0 1 .7 1.8 1.6 2h2l-.8 2.1c-.4 1 .2 1.9 1.3 1.9h20c1.1 0 1.7-.8 1.3-1.9l-1-2.1h2c.9-.2 1.6-1 1.6-2v-4h2c1.1 0 2-.9 2-2V2c0-1.1-.9-2-2-2zm-7.1 45.9c0 .1-.1.1-.2.1H15.3c-.1 0-.2 0-.2-.1-.1-.1-.1-.1 0-.2l.7-1.7 2.3-5.9V38l.8-2 .8-2 .6-1.4c.1-.3.6-.6.9-.6h6c.3 0 .8.3.9.6l.6 1.4.8 2 .8 2v.1l2.3 5.9.7 1.7c-.3 0-.3.1-.4.2zM32 23.2V15c0-1.7-1.3-3-3-3h-3c-1.7 0-3 1.3-3 3v2h-6c-1.7 0-3 1.3-3 3v12h-1.8c-.1 0-.2-.1-.2-.2V6.2c0-.1.1-.2.2-.2h23.5c.2 0 .3.1.3.2v25.5c0 .1-.1.2-.2.2H34V26c0-1.3-.8-2.4-2-2.8zM25 17v-2c0-.6.4-1 1-1h3c.6 0 1 .4 1 1v8h-5v-6zm0 8h6c.6 0 1 .4 1 1v6h-2.2v-.1c-.4-1-1.6-1.9-2.7-1.9h-2v-5zm-9-5c0-.6.5-1 1-1h6v11h-2c-1.1 0-2.3.8-2.7 1.9v.1H16V20zm24 15.8c0 .1-.1.2-.2.2h-4.6c-.6 0-1 .4-1 1s.4 1 1 1h.8v3.8c0 .1-.1.2-.2.2h-2.1l-1.6-4-.7-1.9V36l-.8-2H36c1.1 0 2-.9 2-2V6c0-1.1-.9-2-2-2H12c-1.1 0-2 .9-2 2v26c0 1.1.9 2 2 2h5.5l-.8 2v.1l-.8 1.9-1.6 4h-2c-.2-.1-.4-.2-.4-.4V38h.9c.6 0 1-.4 1-1s-.4-1-1-1H8.2c-.1 0-.2-.1-.2-.2V2.2c0-.1.1-.2.2-.2h31.5c.2 0 .3.1.3.2v33.6z"/></svg>