<svg xmlns="http://www.w3.org/2000/svg" viewBox="0 0 48 48"><path class="st0" d="M47.6 20.2l-5.1-3.8c-.2-.2-.5-.2-.8-.2-.3.1-.5.2-.7.5l-3.2 5.7c-.3.5-.1 1.1.4 1.3.2.1.3.1.5.1.3 0 .7-.2.9-.5l2-3.6c.3 1.4.5 2.8.5 4.2 0 11-9 20-20 20S2 35 2 24C2 13 11 4 22 4c5.4 0 10.4 2.2 14 5.7.2.2.4.3.7.3.4 0 .8-.2.9-.6.1-.4.1-.8-.2-1.1C33.4 4.4 28 2 22 2 9.8 2 0 11.9 0 24c0 12.2 9.8 22 22 22s22-9.8 22-22c0-1.5-.2-2.9-.4-4.3l2.8 2.1c.4.3 1.1.2 1.4-.2.3-.4.2-1.1-.2-1.4z"/><path class="st0" d="M20 28h-7.1c-.1 0-.2 0-.2-.1s-.1-.1 0-.2c.3-.7.9-1.4 1.5-1.9.5-.4 1.1-.8 2.5-1.5s2.6-1.4 3.5-2.8c.5-.8.6-2.1.1-3.1s-1.4-1.7-2.4-2.1c-1.2-.4-2.9-.4-4 0-1 .3-1.9.8-2.6 1.3-.2.2-.4.4-.4.7 0 .3.1.5.2.8.2.2.4.3.7.3.3 0 .5-.1.7-.3.8-.8 1.8-1.2 3-1.2.8 0 1.6.2 2.1.7.5.4.8 1 .8 1.5 0 1.3-1.6 2.2-2.8 2.8-1.2.6-2.4 1.2-3.5 2.2-.5.5-.9 1-1.2 1.5-.3.5-.5 1.1-.6 1.6v.1c-.1.4 0 .9.3 1.2.3.3.7.5 1.1.5H20c.5 0 1-.5 1-1s-.5-1-1-1zm13-2h-1v-9c0-.5-.5-1-1-1-.4 0-.8.2-1 .5l-7.7 9.2c-.2.2-.3.5-.3.8v.4c0 .3.1.6.3.9.2.2.5.3.9.3h6.5c.1 0 .1 0 .2.1 0 0 .1.1.1.2V31c0 .5.5 1 1 1s1-.5 1-1v-2.8c0-.1.1-.2.2-.2h.8c.5 0 1-.4 1-1s-.5-1-1-1zm-3-.2c0 .1-.1.2-.2.2h-5c-.1 0-.2-.1-.2-.1v-.3l4.9-6c.1-.1.2-.1.3-.1.1 0 .2.1.2.2v6.1z"/></svg>