<svg xmlns="http://www.w3.org/2000/svg" viewBox="0 0 48 48"><path class="st0" d="M30.5 9.2c-.5-.3-1.1-.2-1.4.3-.3.5-.2 1.1.3 1.4 2 1.4 4.6 3.9 5.4 8.3.1.5.5.8 1 .8h.2c.5-.1.9-.6.8-1.2-.8-4-3-7.4-6.3-9.6zm-13 .1c-3.3 2.2-5.4 5.6-6.2 9.6-.1.5.3 1.1.8 1.2h.2c.5 0 .9-.3 1-.8.8-4.4 3.3-6.9 5.3-8.3.5-.3.6-.9.3-1.4-.4-.5-1-.7-1.4-.3zm6.5-.2c-.6 0-1 .4-1 1V19c0 .6.4 1 1 1s1-.4 1-1v-8.9c0-.6-.4-1-1-1z"/><path class="st0" d="M47 22.3v-.1c0-.2-.1-.4-.2-.6-.1-.4-.2-.7-.3-1.1-.1-.3-.2-.5-.3-.8-.3-.8-.7-1.6-1-2.4-.1-.3-.3-.6-.4-.9-.2-.3-.4-.7-.6-1l-.6-.9c-.2-.3-.3-.5-.5-.8-.2-.3-.5-.7-.8-1-.5-.5-.9-1.1-1.4-1.6-.7-.8-1.6-1.5-2.4-2.1-.3-.2-.6-.4-.9-.7l-.9-.6c-.7-.4-1.3-.7-2-1.1-.3-.2-.7-.3-1-.5-.9-.4-1.9-.8-2.8-1.1-.2-.1-.4-.1-.6-.2-.2 0-.3-.1-.5-.1-.5-.1-.9-.2-1.4-.3-.3-.1-.6-.1-.8-.1h-.3c-.2 0-.4-.1-.6-.1-.2 0-.4-.1-.5-.1-.3 0-.7-.1-1-.1H25V1c0-.5-.5-1-1-1s-1 .5-1 1v3h-.2c-.3 0-.7 0-1 .1h-.5c-.2 0-.5.1-.7.1h-.2c-.3 0-.5.1-.8.1-.2 0-.4.1-.6.1-.1 0-.2 0-.3.1-.2 0-.5.1-.7.2-.1 0-.2.1-.4.1-.1.1-.3.2-.5.2-.3.1-.5.2-.8.3l-.9.3c-.4.2-.8.4-1.2.5-.3.1-.7.3-1 .5-.3.2-.6.3-1 .5l-.9.6-.9.6c-.2.2-.5.5-.8.7-.8.7-1.7 1.4-2.4 2.1-.5.5-1 1-1.4 1.6-.2.3-.5.6-.7.9l-.6.9-.6.9c-.6.9-1.1 1.9-1.5 2.9-.1.3-.3.7-.4 1-.1.4-.3.7-.4 1.1-.1.3-.2.7-.3 1.1-.1.3-.2.5-.3.8-.1.7.1 1.4.6 1.8.4.4.9.5 1.4.5.2 0 .4 0 .7-.1.2-.1.4-.1.5-.2.2 0 .4-.1.6-.1.2 0 .4-.1.6-.1.3 0 .6-.1.9-.1.9 0 1.8.1 2.5.4.2.1.4.1.6.2.5.2 1 .5 1.4.8.1.1.2.2.3.2.1.1.2.1.4.2.1 0 .2.1.4.1h.8c.4 0 .7-.2 1-.4l.1-.1c.1-.1.3-.2.4-.3.3-.2.6-.3.9-.5.6-.2 1.2-.4 1.9-.5.4 0 .8-.1 1.2-.1.4 0 .7 0 1.1.1.3 0 .5.1.8.1.4.1.8.2 1.1.4.1 0 .2.1.3.1.1 0 .2.1.3.2.3.2.6.3.8.5.1.1.2.2.3.2h.1V34c-1.2.4-2 1.5-2 2.8v4.5c0 3.6 2.9 6.5 6.5 6.5s6.5-2.9 6.5-6.5V41c0-1.7-1.3-3-3-3s-3 1.3-3 3v.5c0 .3-.2.5-.5.5s-.5-.2-.5-.5V37c0-1.3-.8-2.4-2-2.8v-8.4h.1c.1-.1.2-.1.3-.2.2-.2.5-.4.8-.5.1-.1.2-.1.3-.2.1-.1.2-.1.3-.1.2-.1.4-.1.5-.2.2-.1.4-.1.6-.2.2-.1.5-.1.7-.1.4 0 .8-.1 1.2-.1.4 0 .8 0 1.2.1.7.1 1.3.3 1.9.5.3.1.6.3.9.5.1.1.3.2.4.3.3.2.7.4 1.1.5h.8c.4-.1.7-.2 1-.5.1-.1.3-.2.4-.3.3-.2.6-.4 1-.5.2-.1.4-.1.6-.2.8-.2 1.6-.4 2.5-.4.3 0 .6 0 .9.1.2 0 .4 0 .6.1.3 0 .5.1.8.2.1 0 .2.1.3.1.2.1.4.1.7.1.5 0 .9-.2 1.3-.5.5-.4.7-1.1.6-1.7.2-.2.2-.3.2-.3zM27.5 44c1.4 0 2.5-1.1 2.5-2.5V41c0-.6.4-1 1-1s1 .4 1 1v.5c0 2.5-2 4.5-4.5 4.5S23 44 23 41.5V37c0-.6.4-1 1-1s1 .4 1 1v4.5c0 1.4 1.1 2.5 2.5 2.5zm17.2-21.8c-.1.1-.3.2-.5.2-.9-.2-2.2-.3-2.5-.3-2.9 0-4.9 1.2-5.6 1.7-.2.1-.4.1-.6 0-1.5-1-3.5-1.7-5.6-1.7-2.8 0-4.9 1.2-5.7 1.7-.2.1-.4.1-.5 0-.7-.5-2.8-1.7-5.6-1.7-2.6 0-5 1.3-5.7 1.7-.2.1-.4.1-.5 0-.8-.5-1.7-1.2-3.9-1.6-1.8-.3-3.2-.1-4.1.1-.2 0-.4 0-.5-.1-.1-.1-.2-.3-.1-.5 2.4-8.2 9.5-14.4 18-15.6.8 0 1.8-.1 2.7-.1.9 0 1.9.1 2.8.2 8.5 1.1 15.6 7.2 18 15.6 0 .1 0 .3-.1.4z"/></svg>