<svg xmlns="http://www.w3.org/2000/svg" viewBox="0 0 48 48"><path class="st0" d="M44.9 19.6c.1.1.1.2 0 .3 0 .1-.1.1-.2.1h-2.2c-1.4 0-2.5 1.1-2.5 2.5v19.2c0 .1-.1.2-.2.2h-7.5c-.1 0-.2-.1-.2-.2V22.5c0-1.4-1.1-2.5-2.5-2.5h-2.2c-.1 0-.2-.1-.2-.1v-.3l8.7-12.8c0-.1.1-.1.2-.1s.2 0 .2.1l8.6 12.8zM36 4.5c-.7 0-1.3.3-1.7.9l-9.2 13.5c-.4.6-.5 1.4-.1 2.1.3.7 1 1.1 1.8 1.1h2.7c.3 0 .5.2.5.5V42c0 1.1.9 2 2 2h8c1.1 0 2-.9 2-2V22.5c0-.3.2-.5.5-.5h2.7c.7 0 1.4-.4 1.8-1.1.3-.7.3-1.5-.1-2.1L37.7 5.4c-.4-.5-1-.9-1.7-.9zM20.9 19.6c.1.1.1.2 0 .3 0 .1-.1.1-.2.1h-2.2c-1.4 0-2.5 1.1-2.5 2.5v19.2c0 .1-.1.2-.2.2H8.2c-.1.1-.2 0-.2-.1V22.5C8 21.1 6.9 20 5.5 20H3.3c-.1 0-.2-.1-.2-.1v-.3l8.7-12.8c0-.1.1-.1.2-.1s.2 0 .2.1l8.7 12.8zM12 4.5c-.7 0-1.3.3-1.7.9L1.1 18.9c-.4.6-.5 1.4-.1 2.1.4.6 1 1 1.8 1h2.7c.3 0 .5.2.5.5V42c0 1.1.9 2 2 2h8c1.1 0 2-.9 2-2V22.5c0-.3.2-.5.5-.5h2.7c.7 0 1.4-.4 1.8-1.1.3-.7.3-1.5-.1-2.1L13.7 5.4c-.4-.5-1-.9-1.7-.9z"/></svg>