<svg xmlns="http://www.w3.org/2000/svg" viewBox="0 0 48 48"><path class="st0" d="M20.1 29.7c-.2-.2-.5-.2-.8-.2-.3.1-.5.2-.7.5l-.1.1c-.3.4-.1 1 .3 1.3 1.3.9 2.6 1.3 4.1 1.5V34c0 .5.5 1 1 1s1-.5 1-1v-1c1.4-.1 3.3-.6 4.1-2.3.3-.5.4-1.1.4-1.8 0-2-1.1-3-3-3.7-.5-.2-1.1-.3-1.6-.5v-4.4c.8.1 1.5.4 2.1.8.2.2.5.2.8.1.3-.1.5-.2.6-.5l.1-.1c.3-.4.1-1-.3-1.3-1.1-.7-2.1-1-3.2-1.1V18c0-.5-.5-1-1-1s-1 .5-1 1v.2c-2.6.3-4.2 1.9-4.2 4.3 0 2.6 2.1 3.3 4.2 3.9v4.4c-1-.1-1.9-.5-2.8-1.1zm.9-7.4c0-.6.2-1.1.6-1.5.3-.3.8-.5 1.4-.6v4c-1.2-.3-2-.8-2-1.9zm6 5.9c.2.4.4 1.1 0 1.7-.2.4-.8.9-2.1 1v-4c1 .3 1.8.7 2.1 1.3z"/><path class="st0" d="M44.5 22.3L25.5.6C25.1.2 24.6 0 24 0s-1.1.2-1.5.7l-19 21.7c-.3.3-.3.7-.2 1.1.2.3.5.5.9.5h7.5c.1 0 .2.1.2.2V39c0 .5.5 1 1 1s1-.5 1-1V24.2c0-1.2-1-2.2-2.2-2.2h-5s-.1 0-.1-.1v-.1L23.9 2.1s0-.1.1-.1.1 0 .1.1l17.3 19.7v.1l-.1.1h-5C35 22 34 23 34 24.2V39c0 .5.5 1 1 1s1-.5 1-1V24.2c0-.1.1-.2.2-.2h7.5c.4 0 .8-.2.9-.6.3-.4.2-.8-.1-1.1zM35 42H13c-.5 0-1 .5-1 1s.5 1 1 1h22c.5 0 1-.5 1-1s-.5-1-1-1zm0 4H13c-.5 0-1 .5-1 1s.5 1 1 1h22c.5 0 1-.5 1-1s-.5-1-1-1z"/></svg>