<svg xmlns="http://www.w3.org/2000/svg" viewBox="0 0 48 48"><path class="st0" d="M44.5 22.3L25.5.6C25.1.2 24.6 0 24 0s-1.1.2-1.5.7l-19 21.7c-.3.3-.3.7-.2 1.1.2.3.5.5.9.5h7.5c.1 0 .2.1.2.2V39c0 .5.5 1 1 1s1-.5 1-1V24.2c0-1.2-1-2.2-2.2-2.2h-5c-.1 0-.1 0-.1-.1v-.1L23.9 2.1s0-.1.1-.1.1 0 .1.1l17.3 19.7v.1l-.1.1h-5C35 22 34 23 34 24.2V39c0 .5.5 1 1 1s1-.5 1-1V24.2c0-.1.1-.2.2-.2h7.5c.4 0 .8-.2.9-.6.2-.4.2-.8-.1-1.1zM35 42H13c-.5 0-1 .5-1 1s.5 1 1 1h22c.5 0 1-.5 1-1s-.5-1-1-1zm0 4H13c-.5 0-1 .5-1 1s.5 1 1 1h22c.5 0 1-.5 1-1s-.5-1-1-1z"/><path class="st0" d="M19.4 27c0 .5.5 1 1 1h1.8c.2.8.1 1.7-.4 2.6-.4.7-.9 1.3-1.3 1.7-.3.3-.4.7-.2 1.1l.1.1c.2.5.7.7 1.1.6.3-.1.6-.1 1-.1 1.4 0 2.9.5 3.8.5.5 0 1-.1 1.5-.3.5-.2.8-.7.6-1.2l-.1-.3c-.1-.3-.5-.5-.8-.4-.9.3-1.6.3-2.5 0-.6-.2-1.2-.3-1.9-.3 0 0-.1 0-.1-.1v-.1c1.1-1.5 1.3-2.8 1.1-3.9h2.2c.5 0 1-.5 1-1s-.5-1-1-1h-2.9l-.3-.6c-1.7-3.3.2-4 1.2-4 .7 0 1.6.4 2.2 1.1.2.2.4.3.6.3.2 0 .5-.1.6-.3.3-.4.3-1 0-1.3-1-1.1-2.2-1.6-3.5-1.6-1.6 0-3 .8-3.7 2.2-.4.8-.4 1.6-.2 2.4.2.6.5 1.2.8 1.8 0 .1 0 .1.1.2h-1c-.3-.1-.8.4-.8.9z"/></svg>