<?xml version="1.0" encoding="UTF-8"?>
<svg width="36px" height="22px" viewBox="0 0 36 22" version="1.1" xmlns="http://www.w3.org/2000/svg" xmlns:xlink="http://www.w3.org/1999/xlink">
    <!-- Generator: Sketch 39.1 (31720) - http://www.bohemiancoding.com/sketch -->
    <title>Visa-Small-Black</title>
    <desc>Created with Sketch.</desc>
    <defs></defs>
    <g id="Page-1" stroke="none" stroke-width="1" fill="none" fill-rule="evenodd">
        <g id="Payment-Icons" transform="translate(1.000000, 1.000000)">
            <g id="Visa-Small-Black">
                <g>
                    <rect id="Rectangle-3" stroke="#979797" fill="#FFFFFF" x="0" y="0" width="34" height="20" rx="2"></rect>
                    <g id="Group-5" transform="translate(3.000000, 5.000000)">
                        <polygon id="Path" fill="#9B9B9B" points="4.3 9.20825112 2.60044843 2.77955157 0.17470852 0.985829596 4.46080717 0.985829596 5.56573991 6.59748879 7.64600897 0.986188341 9.8993722 0.986188341 6.55049327 9.20825112"></polygon>
                        <polygon id="Path" fill="#9B9B9B" points="11.5565022 9.21488789 9.42995516 9.21488789 10.7605381 0.97955157 12.8867265 0.97955157"></polygon>
                        <path d="M15.2584753,9.33713004 C14.3041256,9.32663677 13.3852018,9.12762332 12.889148,8.89820628 L13.1865471,7.05506726 L13.4601794,7.18609865 C14.1594619,7.49336323 14.6117489,7.61802691 15.4630493,7.61802691 C16.0747982,7.61802691 16.730583,7.36511211 16.7358744,6.81372197 C16.7393722,6.45318386 16.4611659,6.19497758 15.632287,5.79174888 C14.8261883,5.39865471 13.7565919,4.73757848 13.7695067,3.55452915 C13.7825112,1.95381166 15.2623318,0.835874439 17.3646637,0.835874439 C18.1879821,0.835874439 18.8497758,1.01632287 19.2701345,1.18170404 L18.9825112,2.96699552 L18.7916592,2.87273543 C18.3989238,2.70565022 17.8957848,2.54484305 17.1997309,2.55641256 C16.3669058,2.55641256 15.9822422,2.92286996 15.9816143,3.26475336 C15.9763229,3.65156951 16.4328251,3.9044843 17.1758744,4.28672646 C18.4027803,4.87426009 18.9695964,5.58538117 18.9618834,6.52430493 C18.9451121,8.2329148 17.4932735,9.33713004 15.2584753,9.33713004 L15.2584753,9.33713004 Z" id="Path" fill="#9B9B9B"></path>
                        <path d="M24.3896861,9.21802691 C24.3896861,9.21802691 24.1938117,8.27112108 24.1307623,7.9844843 C23.8210762,7.9844843 21.6510314,7.97964126 21.4072646,7.97964126 C21.324574,8.20278027 20.9601794,9.21802691 20.9601794,9.21802691 L18.7260987,9.21802691 L21.8847534,1.67040359 C22.1075336,1.13372197 22.489417,0.987982063 22.9991928,0.987982063 L24.6422422,0.987982063 L26.3634081,9.21802691 L24.3896861,9.21802691 Z" id="Path" fill="#9B9B9B"></path>
                        <path d="M23.1484305,3.20735426 C23.0411659,3.51632287 22.8540807,4.01488789 22.866009,3.99345291 C22.866009,3.99345291 22.195157,5.82152466 22.0189238,6.29515695 L23.7843049,6.29515695 C23.6998206,5.8832287 23.2920179,3.91784753 23.2920179,3.91784753 L23.1484305,3.20735426 Z" id="Fill-1" fill="#FFFFFF"></path>
                    </g>
                </g>
            </g>
        </g>
    </g>
</svg>