<?xml version="1.0" encoding="UTF-8"?>
<svg width="36px" height="22px" viewBox="0 0 36 22" version="1.1" xmlns="http://www.w3.org/2000/svg" xmlns:xlink="http://www.w3.org/1999/xlink">
    <!-- Generator: Sketch 39.1 (31720) - http://www.bohemiancoding.com/sketch -->
    <title>Vorkasse-Small-Black</title>
    <desc>Created with Sketch.</desc>
    <defs></defs>
    <g id="Page-1" stroke="none" stroke-width="1" fill="none" fill-rule="evenodd">
        <g id="Payment-Icons" transform="translate(-166.000000, 1.000000)">
            <g id="Vorkasse-Small-Black" transform="translate(167.000000, 0.000000)">
                <rect id="Rectangle-3" stroke="#979797" fill="#FFFFFF" x="0" y="0" width="34" height="20" rx="2"></rect>
                <path d="M6.11847507,8.28795349 L7.07729893,8.28795349 L5.55482142,12.7665493 L4.51941418,12.7665493 L3,8.28795349 L3.95882387,8.28795349 L4.801241,10.953055 C4.84821237,11.110307 4.89671469,11.2935947 4.94674942,11.5029236 C4.99678414,11.7122526 5.02792773,11.8577595 5.04018113,11.9394489 C5.0626457,11.7515634 5.13922831,11.4227687 5.26993126,10.953055 L6.11847507,8.28795349 L6.11847507,8.28795349 Z M8.18622622,11.0480184 C8.18622622,11.3870291 8.24187625,11.6433256 8.35317798,11.8169155 C8.4644797,11.9905053 8.64572522,12.0772989 8.89691994,12.0772989 C9.14607244,12.0772989 9.32527575,11.9910159 9.43453524,11.8184471 C9.54379474,11.6458784 9.59842367,11.3890714 9.59842367,11.0480184 C9.59842367,10.7090076 9.54328419,10.4547533 9.43300358,10.2852479 C9.32272296,10.1157426 9.141988,10.0309911 8.89079327,10.0309911 C8.64164078,10.0309911 8.46192692,10.115232 8.35164631,10.2837163 C8.2413657,10.4522005 8.18622622,10.7069654 8.18622622,11.0480184 L8.18622622,11.0480184 L8.18622622,11.0480184 Z M10.5541842,11.0480184 C10.5541842,11.6055481 10.4071456,12.0415585 10.113064,12.3560624 C9.81898232,12.6705664 9.40952063,12.827816 8.8846666,12.827816 C8.555867,12.827816 8.26587418,12.7558284 8.01467945,12.6118509 C7.76348472,12.4678734 7.57049655,12.2611004 7.43570913,11.9915256 C7.30092172,11.7219507 7.23352902,11.4074515 7.23352902,11.0480184 C7.23352902,10.4884464 7.37954653,10.0534571 7.67158593,9.74303764 C7.96362533,9.43261813 8.37410812,9.27741071 8.90304661,9.27741071 C9.23184622,9.27741071 9.52183904,9.34888781 9.77303376,9.49184416 C10.0242285,9.63480051 10.2172167,9.84004191 10.3520041,10.1075745 C10.4867915,10.3751071 10.5541842,10.6885853 10.5541842,11.0480184 L10.5541842,11.0480184 L10.5541842,11.0480184 Z M13.2376657,9.27741071 C13.3642842,9.27741071 13.4694576,9.28660062 13.5531892,9.30498073 L13.4827325,10.1810945 C13.4071699,10.1606722 13.3152707,10.1504612 13.2070323,10.1504612 C12.9088662,10.1504612 12.6765657,10.2270438 12.5101236,10.3802113 C12.3436816,10.5333788 12.2604618,10.7478101 12.2604618,11.0235117 L12.2604618,12.7665493 L11.3261446,12.7665493 L11.3261446,9.34174075 L12.033775,9.34174075 L12.1716251,9.91764773 L12.2175751,9.91764773 C12.3237713,9.72567778 12.467236,9.5709809 12.6479737,9.45355247 C12.8287114,9.33612404 13.0252734,9.27741071 13.2376657,9.27741071 L13.2376657,9.27741071 L13.2376657,9.27741071 Z M15.0726034,10.9040416 L15.4800269,10.3832747 L16.4388508,9.34174075 L17.4926381,9.34174075 L16.1325173,10.8274582 L17.5753481,12.7665493 L16.4970542,12.7665493 L15.5106603,11.3788585 L15.1093634,11.7005087 L15.1093634,12.7665493 L14.1750462,12.7665493 L14.1750462,8 L15.1093634,8 L15.1093634,10.1259545 L15.06035,10.9040416 L15.0726034,10.9040416 L15.0726034,10.9040416 Z M20.2404496,12.7665493 L20.0597128,12.3009224 L20.0352061,12.3009224 C19.8779541,12.499019 19.7161096,12.6363572 19.5496675,12.712941 C19.3832255,12.7895247 19.1662414,12.827816 18.8987088,12.827816 C18.5699092,12.827816 18.31106,12.7338747 18.1221534,12.5459892 C17.9332468,12.3581037 17.8387949,12.0905751 17.8387949,11.7433954 C17.8387949,11.3798778 17.965922,11.1118387 18.2201801,10.93927 C18.4744382,10.7667012 18.8578618,10.6712282 19.3704624,10.6528481 L19.9647494,10.6344681 L19.9647494,10.4843647 C19.9647494,10.137185 19.7870778,9.96359776 19.4317291,9.96359776 C19.1580698,9.96359776 18.8364229,10.046307 18.4667786,10.2117279 L18.1573818,9.58068088 C18.5515328,9.37441529 18.9885643,9.27128404 19.4684892,9.27128404 C19.9279917,9.27128404 20.2802717,9.37135198 20.5253397,9.57149087 C20.7704078,9.77162976 20.8929399,10.075918 20.8929399,10.4843647 L20.8929399,12.7665493 L20.2404496,12.7665493 L20.2404496,12.7665493 Z M19.9647494,11.1797418 L19.6032759,11.1919951 C19.3316588,11.200164 19.1294807,11.2491769 18.9967356,11.3390352 C18.8639904,11.4288935 18.7976188,11.5657211 18.7976188,11.7495221 C18.7976188,12.0129702 18.9487418,12.1446923 19.2509924,12.1446923 C19.4674691,12.1446923 19.6405458,12.0824051 19.7702277,11.9578289 C19.8999095,11.8332526 19.9647494,11.6678342 19.9647494,11.4615686 L19.9647494,11.1797418 L19.9647494,11.1797418 Z M24.2442285,11.7495221 C24.2442285,12.1007863 24.1222068,12.3683148 23.8781599,12.5521159 C23.634113,12.7359169 23.2690693,12.827816 22.7830177,12.827816 C22.5338652,12.827816 22.3214761,12.8109678 22.145844,12.777271 C21.9702119,12.7435741 21.8058146,12.6940507 21.652647,12.6286992 L21.652647,11.8567388 C21.8262369,11.9384282 22.0217778,12.006842 22.2392757,12.0619823 C22.4567736,12.1171226 22.6482301,12.1446923 22.813651,12.1446923 C23.1526618,12.1446923 23.3221646,12.0466666 23.3221646,11.8506121 C23.3221646,11.7770917 23.2997004,11.7173573 23.2547713,11.671407 C23.2098421,11.6254568 23.1322384,11.5733806 23.0219578,11.515177 C22.9116772,11.4569733 22.7646386,11.38907 22.5808375,11.3114652 C22.3173894,11.2011846 22.1238907,11.0990744 22.0003356,11.0051317 C21.8767804,10.9111889 21.7869235,10.8034627 21.7307621,10.6819498 C21.6746007,10.5604369 21.6465204,10.4108456 21.6465204,10.2331712 C21.6465204,9.92887844 21.7644576,9.69351455 22.0003356,9.52707252 C22.2362135,9.36063048 22.5706243,9.27741071 23.0035778,9.27741071 C23.416109,9.27741071 23.8174018,9.36726764 24.2074685,9.54698419 L23.9256416,10.2209179 C23.754094,10.1473975 23.5937811,10.0871525 23.444698,10.0401811 C23.295615,9.99320976 23.1434709,9.96972443 22.9882611,9.96972443 C22.7125596,9.96972443 22.5747109,10.0442648 22.5747109,10.1933479 C22.5747109,10.2770795 22.6191288,10.3495777 22.707966,10.4108447 C22.7968031,10.4721117 22.9913229,10.5629897 23.2915313,10.6834815 C23.5590639,10.7917199 23.7551154,10.8928089 23.8796916,10.9867517 C24.0042679,11.0806944 24.096167,11.1889312 24.1553918,11.3114652 C24.2146165,11.4339992 24.2442285,11.5800167 24.2442285,11.7495221 L24.2442285,11.7495221 L24.2442285,11.7495221 Z M27.3627035,11.7495221 C27.3627035,12.1007863 27.2406819,12.3683148 26.996635,12.5521159 C26.7525881,12.7359169 26.3875443,12.827816 25.9014927,12.827816 C25.6523402,12.827816 25.4399511,12.8109678 25.264319,12.777271 C25.088687,12.7435741 24.9242896,12.6940507 24.7711221,12.6286992 L24.7711221,11.8567388 C24.944712,11.9384282 25.1402529,12.006842 25.3577508,12.0619823 C25.5752486,12.1171226 25.7667052,12.1446923 25.9321261,12.1446923 C26.2711369,12.1446923 26.4406397,12.0466666 26.4406397,11.8506121 C26.4406397,11.7770917 26.4181755,11.7173573 26.3732463,11.671407 C26.3283172,11.6254568 26.2507135,11.5733806 26.1404329,11.515177 C26.0301522,11.4569733 25.8831136,11.38907 25.6993126,11.3114652 C25.4358645,11.2011846 25.2423658,11.0990744 25.1188106,11.0051317 C24.9952555,10.9111889 24.9053986,10.8034627 24.8492371,10.6819498 C24.7930757,10.5604369 24.7649954,10.4108456 24.7649954,10.2331712 C24.7649954,9.92887844 24.8829326,9.69351455 25.1188106,9.52707252 C25.3546886,9.36063048 25.6890993,9.27741071 26.1220529,9.27741071 C26.534584,9.27741071 26.9358769,9.36726764 27.3259435,9.54698419 L27.0441167,10.2209179 C26.8725691,10.1473975 26.7122561,10.0871525 26.5631731,10.0401811 C26.41409,9.99320976 26.2619459,9.96972443 26.1067362,9.96972443 C25.8310346,9.96972443 25.6931859,10.0442648 25.6931859,10.1933479 C25.6931859,10.2770795 25.7376039,10.3495777 25.826441,10.4108447 C25.9152782,10.4721117 26.109798,10.5629897 26.4100063,10.6834815 C26.6775389,10.7917199 26.8735904,10.8928089 26.9981667,10.9867517 C27.1227429,11.0806944 27.2146421,11.1889312 27.2738668,11.3114652 C27.3330916,11.4339992 27.3627035,11.5800167 27.3627035,11.7495221 L27.3627035,11.7495221 L27.3627035,11.7495221 Z M29.5101014,9.94215441 C29.3120047,9.94215441 29.1567973,10.0049522 29.0444745,10.1305495 C28.9321516,10.2561469 28.8678222,10.4343291 28.8514844,10.6651015 L30.1625918,10.6651015 C30.1585073,10.4343291 30.0982623,10.2561469 29.981855,10.1305495 C29.8654477,10.0049522 29.7081981,9.94215441 29.5101014,9.94215441 L29.5101014,9.94215441 L29.5101014,9.94215441 Z M29.6418248,12.827816 C29.0904217,12.827816 28.6595169,12.6756719 28.3490974,12.3713791 C28.0386779,12.0670863 27.8834705,11.6361815 27.8834705,11.0786517 C27.8834705,10.5047841 28.0269353,10.0611155 28.3138691,9.74763264 C28.6008029,9.43414979 28.9975008,9.27741071 29.5039747,9.27741071 C29.9879841,9.27741071 30.3647705,9.41525941 30.6343454,9.69096094 C30.9039202,9.96666247 31.0387056,10.3475333 31.0387056,10.8335849 L31.0387056,11.2869585 L28.830041,11.2869585 C28.8402522,11.5524489 28.918877,11.7597325 29.0659178,11.9088155 C29.2129586,12.0578986 29.4192211,12.132439 29.6847115,12.132439 C29.8909771,12.132439 30.0860075,12.1109958 30.2698085,12.0681089 C30.4536095,12.025222 30.6455766,11.9568082 30.8457155,11.8628655 L30.8457155,12.5858125 C30.6823368,12.6675019 30.5077284,12.7282574 30.3218852,12.768081 C30.1360419,12.8079045 29.9093574,12.827816 29.6418248,12.827816 L29.6418248,12.827816 L29.6418248,12.827816 Z" id="Vorkasse" fill="#A0A0A0"></path>
            </g>
        </g>
    </g>
</svg>