<svg xmlns="http://www.w3.org/2000/svg" viewBox="0 0 48 48"><path class="st0" d="M4 12c1.1 0 2 .9 2 2v18c0 1.1-.9 2-2 2s-2-.9-2-2V14c0-1.1.9-2 2-2m0-2c-2.2 0-4 1.8-4 4v18c0 2.2 1.8 4 4 4s4-1.8 4-4V14c0-2.2-1.8-4-4-4zm40.2 27.4l-1.2-.9-1.2.9c-1.2.9-3.8 3.2-3.8 5.6 0 2.8 2.2 5 5 5s5-2.3 5-5c0-2.4-2.6-4.7-3.8-5.6zM43 46c-1.7 0-3-1.4-3-3 0-1.7 3-4 3-4s3 2.3 3 4c0 1.6-1.3 3-3 3zM11 7h4c.5 0 1-.5 1-1s-.5-1-1-1h-4c-.5 0-1 .5-1 1s.5 1 1 1zm22 0h4c.5 0 1-.5 1-1s-.5-1-1-1h-4c-.5 0-1 .5-1 1s.5 1 1 1z"/><path class="st0" d="M40 17h-7.8c-.2 0-.3-.1-.4-.2-1.2-1.6-2.9-2.7-4.8-3.3v-2.3c1.8-1.1 3-3 3-5.2 0-3.3-2.7-6-6-6s-6 2.7-6 6c0 2.2 1.2 4.1 3 5.2v2.3c-1.9.6-3.6 1.8-4.8 3.3-.1.1-.2.2-.4.2H11c-.6 0-1 .4-1 1s.4 1 1 1h5.5c.3 0 .7-.2.8-.5.4-.6.8-1.1 1.4-1.5 1.4-1.2 3.3-2 5.3-2s3.9.8 5.3 2c.5.5 1 1 1.4 1.5.2.3.5.5.8.5H40c3.3 0 6 2.7 6 6v6.5c0 .3-.2.5-.5.5h-5c-.3 0-.5-.2-.5-.5V30c0-1.7-1.3-3-3-3h-5.5c-.3 0-.7.2-.8.5-.4.6-.8 1.1-1.4 1.5-1.4 1.2-3.3 2-5.3 2s-3.9-.8-5.3-2c-.5-.5-1-1-1.4-1.5-.2-.3-.5-.5-.8-.5H11c-.6 0-1 .4-1 1s.4 1 1 1h4.8c.2 0 .3.1.4.2C18 31.5 20.8 33 24 33s6-1.5 7.8-3.8c.1-.1.2-.2.4-.2H37c.5 0 1 .5 1 1v2c0 1.1.9 2 2 2h6c1.1 0 2-.9 2-2v-7c0-4.4-3.6-8-8-8zm-17-3.9V9.9c-1.7-.4-3-2-3-3.9 0-2.2 1.8-4 4-4s4 1.8 4 4c0 1.9-1.3 3.4-3 3.9v3.2c-.3 0-.7-.1-1-.1s-.7 0-1 .1z"/></svg>