<svg xmlns="http://www.w3.org/2000/svg" viewBox="0 0 48 48"><path class="st0" d="M24 6c.6 0 1-.4 1-1V1c0-.6-.4-1-1-1s-1 .4-1 1v4c0 .6.4 1 1 1zm0 36c-.6 0-1 .4-1 1v4c0 .6.4 1 1 1s1-.4 1-1v-4c0-.6-.4-1-1-1zM5 23H1c-.6 0-1 .4-1 1s.4 1 1 1h4c.6 0 1-.4 1-1s-.4-1-1-1zm42 0h-4c-.6 0-1 .4-1 1s.4 1 1 1h4c.6 0 1-.4 1-1s-.4-1-1-1zM9.9 11.3c.2.2.5.3.7.3.3 0 .5-.1.7-.3.4-.4.4-1 0-1.4L8.4 7c-.3-.4-1-.4-1.4 0-.4.4-.4 1 0 1.4l2.9 2.9zm28.2 25.4c-.4-.4-1-.4-1.4 0-.4.4-.4 1 0 1.4l2.8 2.8c.2.2.5.3.7.3.3 0 .5-.1.7-.3.4-.4.4-1 0-1.4l-2.8-2.8zm-28.2 0L7 39.6c-.4.4-.4 1 0 1.4.2.2.5.3.7.3.3 0 .5-.1.7-.3l2.8-2.8c.4-.4.4-1 0-1.4-.3-.5-1-.5-1.3-.1zM39.6 7l-2.8 2.8c-.4.4-.4 1 0 1.4.2.2.5.3.7.3.3 0 .5-.1.7-.3L41 8.4c.4-.4.4-1 0-1.4-.4-.4-1.1-.4-1.4 0zM24 8C15.2 8 8 15.2 8 24s7.2 16 16 16 16-7.2 16-16S32.8 8 24 8zm0 30c-7.7 0-14-6.3-14-14s6.3-14 14-14 14 6.3 14 14-6.3 14-14 14z"/></svg>