<svg xmlns="http://www.w3.org/2000/svg" viewBox="0 0 48 48"><path class="st0" d="M25.6 20.9c-.4-.5-1-.9-1.6-.9-.7 0-1.3.3-1.6.9C21.3 22.4 16 30.2 16 34c0 4.4 3.6 8 8 8s8-3.6 8-8c0-3.8-5.3-11.6-6.4-13.1zM24 40c-3.3 0-6-2.7-6-6 0-2.8 4.2-9.3 5.6-11.4.1-.1.2-.2.4-.2s.3.1.4.2l.5.8c1.7 2.6 5 8.1 5 10.6.1 3.3-2.6 6-5.9 6z"/><path class="st0" d="M43 18c-.5-4.5-4.4-8-9-8-1.9 0-3.8.6-5.3 1.8C26.7 8.2 23 6 19 6c-5 0-9.3 3.3-10.6 8.1-.5-.1-.9-.1-1.4-.1-3.9 0-7 3.1-7 7s3.1 7 7 7c.9 0 1.8-.2 2.6-.5.8.3 1.6.5 2.4.5.7 0 1.3-.1 2-.3.8-.3.8-.4 1-.4.3 0 .5-.1.7-.3.2-.2.3-.4.3-.7 0-.5-.4-.9-.8-1-.4-.1-.7 0-1.2.2-.6.3-1.2.5-2 .5-.6 0-1.1-.1-1.6-.3-.3-.1-.5-.2-.8-.2-.3 0-.5 0-.8.1-.5.3-1.1.4-1.8.4-2.8 0-5-2.2-5-5s2.2-5 5-5c.3 0 .7 0 1 .1h.4c.9 0 1.7-.6 1.9-1.5 1-3.8 4.5-6.7 8.7-6.7 3.4 0 6.4 1.9 7.9 4.7.3.5.8.9 1.3 1h.4c.4 0 .8-.1 1.2-.4C31 12.5 32.5 12 34 12c3.9 0 7 3.1 7 7 0 .3.1.7.4.9.2.2.4.2.7.2h.2c.2 0 .4-.1.7-.1 1.7 0 3 1.3 3 3s-1.3 3-3 3c-.9 0-1.7-.4-2.2-1-.4-.4-.9-.7-1.5-.7-.4 0-.8.1-1.2.4-1.2.8-2.6 1.3-4.1 1.3-.3 0-.6 0-.9-.1-.3 0-.5 0-.7.2-.2.2-.3.4-.3.7v.1c0 .5.4.9.9 1 .4 0 .9.1 1.1.1 1.9 0 3.7-.6 5.2-1.7 1 1.1 2.3 1.7 3.8 1.7 2.8 0 5-2.2 5-5-.1-2.8-2.3-5-5.1-5z"/></svg>