<svg xmlns="http://www.w3.org/2000/svg" viewBox="0 0 48 48"><path class="st0" d="M14.4 22.6c.2.2.5.3.8.2.4-.1.7-.5.8-.9 0-.8.2-2.1.6-3.2 1.6-4.8 6.1-8.2 11.4-8.2 4.5 0 8.5 2.5 10.5 6.2.5.8.8 1.7 1.1 2.6.1.3.2.5.4.7.3.3.8.3 1.1.1.3-.2.5-.6.4-1C40 13 34.5 8.5 28 8.5c-7.4 0-13.6 5.8-14 13.3 0 .3.1.6.4.8zM28 6.5c.5 0 1-.4 1-1v-4c0-.5-.4-1-1-1s-1 .4-1 1v4c0 .5.5 1 1 1zm-21 17h4c.5 0 1-.4 1-1s-.4-1-1-1H7c-.5 0-1 .4-1 1s.5 1 1 1zm8.3-12.3c.2.2.4.3.7.3s.5-.1.7-.3c.4-.4.4-1 0-1.4L13.8 7c-.4-.4-1-.4-1.4 0-.4.4-.4 1 0 1.4l2.9 2.8zm24.7.3c.3 0 .5-.1.7-.3l2.8-2.8c.4-.4.4-1 0-1.4-.4-.4-1-.4-1.4 0l-2.8 2.8c-.4.4-.4 1 0 1.4.2.2.5.3.7.3z"/><path class="st0" d="M43.2 27.2c-.2-.1-.4-.3-.5-.5-2.2-5-7.2-8.2-12.7-8.2-4.5 0-8.7 2.2-11.3 5.8-.1.1-.3.2-.5.2-2.4 0-4.9.8-6.8 2.5-.1.1-.3.2-.5.1-.9-.4-1.9-.6-2.9-.6-4.4 0-8 3.6-8 8s3.6 8 8 8c.8 0 1.6-.1 2.3-.3.5-.2 1.1-.1 1.6.3 1.7 1.3 3.8 2.1 6.1 2.1 1.1 0 2.2-.2 3.2-.5.3-.1.7-.1 1 .1 2.3 1.5 5 2.4 7.8 2.4 3.5 0 6.9-1.3 9.5-3.7.2-.2.5-.3.8-.3 4.2-.1 7.7-3.6 7.7-8 0-3.3-1.9-6.2-4.8-7.4zm-3.3 13.3c-.5 0-1.1.2-1.4.6-2.2 2.1-5.1 3.4-8.4 3.4-2.7 0-5.1-.9-7.1-2.3-.6-.4-1.3-.5-1.9-.2-.9.4-1.9.6-3 .6-2.1 0-4-.8-5.4-2.1-.6-.5-1.4-.7-2.2-.4-.7.3-1.5.5-2.4.5-3.3 0-6-2.7-6-6s2.7-6 6-6c.9 0 1.7.2 2.4.5s1.6.2 2.2-.4c1.5-1.4 3.6-2.2 5.8-2.1.7 0 1.3-.3 1.7-.9 2.2-3.1 5.8-5.2 9.9-5.2 5 0 9.2 3 11.1 7.3.2.5.6.9 1.1 1.1 2.2.9 3.8 3 3.8 5.6-.1 3.3-2.8 6.1-6.2 6z"/></svg>