<svg xmlns="http://www.w3.org/2000/svg" viewBox="0 0 48 48"><path class="st0" d="M17.2 31.2c-.1-.1-.1-.2 0-.3l5-5.1c.3-.3.4-.8.2-1.2-.2-.4-.6-.7-1-.7-.3 0-.5.1-.7.3l-7.4 7.4c-.1.1-.1.1-.2 0-.1 0-.1-.1-.1-.2V25c0-.6-.4-1-1-1s-1 .4-1 1v14c0 .6.4 1 1 1s1-.4 1-1v-3.7c0-.2.1-.4.2-.5l2-2c.1-.1.2-.1.3-.1.1 0 .2.1.3.1l5.5 6.8c.2.2.4.4.7.4.4 0 .7-.2.9-.6.2-.3.1-.8-.1-1.1l-5.6-7.1zm20.2.8H34c-.5 0-1 .4-1 1 0 .5.4 1 1 1h1.8c.1 0 .1 0 .2.1 0 0 .1.1.1.2v1.8c-1.3 1.4-2.8 2-4.4 2-.7 0-1.5-.2-2.1-.5-2.7-1.3-4-4.8-2.9-7.9 1-2.8 3.2-3.8 5-3.8 1.5 0 3 .7 3.9 1.9.3.4 1 .5 1.4.2.2-.2.4-.4.4-.7 0-.3 0-.6-.2-.8-1.2-1.7-3.1-2.7-5.7-2.7-3.1 0-5.8 1.9-7 5-1.2 3-.5 6.3 1.6 8.7 1.4 1.6 3.4 2.5 5.4 2.5 1.5 0 2.9-.5 4.2-1.6.1-.1.2-.1.2 0 .1 0 .1.1.1.2v.4c0 .6.4 1 1 1s1-.4 1-1v-6.3c0-.4-.3-.7-.6-.7z"/><path class="st0" d="M47.9 45.2l-5.6-27.4c-.2-1.1-1.2-1.9-2.3-1.9-6.6.1-11 .1-15 .1v-2.1c3.4-.5 6-3.4 6-6.9 0-3.9-3.1-7-7-7s-7 3.1-7 7c0 3.5 2.6 6.4 6 6.9V16H7.9c-1.1 0-2.1.8-2.3 1.9L.1 45.2c-.1.7 0 1.4.5 1.9.4.6 1 .9 1.7.9h43.3c.7 0 1.4-.3 1.8-.9.5-.5.7-1.2.5-1.9zM19 7c0-2.8 2.2-5 5-5s5 2.2 5 5-2.2 5-5 5-5-2.2-5-5zm26.9 38.9c-.1.1-.1.1-.2.1H2.3c-.1 0-.2 0-.2-.1-.1-.1-.1-.2-.1-.3l5.6-27.4c0-.1.2-.3.3-.3h32.2c.2 0 .3.1.3.3L46 45.6c0 .1 0 .2-.1.3z"/></svg>